<svg width="80" height="80" viewBox="0 0 80 80" fill="none" xmlns="http://www.w3.org/2000/svg">
<g clip-path="url(#clip0_2017_266)">
<rect width="80" height="80" rx="8" fill="black"/>
<path d="M11.8661 60L19.4821 21.92H30.9621L38.6901 60H31.4101L29.8981 52.048H20.4901L19.1461 60H11.8661ZM21.7781 45.832H28.7781L25.8101 28.304H24.7461L21.7781 45.832ZM43.92 62.744H51.648C51.5733 63.9013 51.7413 64.6293 52.152 64.928C52.5627 65.264 53.496 65.432 54.952 65.432C56.3707 65.432 57.4347 65.264 58.144 64.928C58.8907 64.592 59.3947 63.92 59.656 62.912C59.9173 61.9413 60.048 60.504 60.048 58.6V56.136H59.824C59.488 57.256 59.096 58.1147 58.648 58.712C58.2 59.272 57.5653 59.664 56.744 59.888C55.9227 60.0747 54.7653 60.168 53.272 60.168C51.144 60.168 49.408 59.9813 48.064 59.608C46.72 59.1973 45.6747 58.4507 44.928 57.368C44.2187 56.2853 43.7333 54.7547 43.472 52.776C43.2107 50.76 43.08 48.1467 43.08 44.936C43.08 41.7253 43.2107 39.112 43.472 37.096C43.7333 35.08 44.2373 33.5307 44.984 32.448C45.7307 31.3653 46.776 30.6373 48.12 30.264C49.5013 29.8533 51.2747 29.648 53.44 29.648C54.9333 29.648 56.0907 29.7413 56.912 29.928C57.7333 30.1147 58.368 30.5067 58.816 31.104C59.3013 31.664 59.7493 32.504 60.16 33.624H60.44V30.208H66.936V59.16C66.936 61.848 66.768 64.032 66.432 65.712C66.1333 67.392 65.536 68.68 64.64 69.576C63.7813 70.5093 62.5493 71.144 60.944 71.48C59.3387 71.816 57.2667 71.984 54.728 71.984C52.4507 71.984 50.6027 71.8533 49.184 71.592C47.8027 71.368 46.72 70.92 45.936 70.248C45.1893 69.6133 44.6667 68.68 44.368 67.448C44.0693 66.2533 43.92 64.6853 43.92 62.744ZM55.064 53.504C56.296 53.504 57.2293 53.2987 57.864 52.888C58.4987 52.4773 58.928 51.656 59.152 50.424C59.376 49.192 59.488 47.3627 59.488 44.936C59.488 42.5093 59.376 40.68 59.152 39.448C58.928 38.216 58.4987 37.376 57.864 36.928C57.2293 36.48 56.296 36.256 55.064 36.256C53.832 36.256 52.8987 36.48 52.264 36.928C51.6667 37.376 51.256 38.216 51.032 39.448C50.808 40.68 50.696 42.4907 50.696 44.88C50.696 47.3067 50.808 49.136 51.032 50.368C51.256 51.6 51.6667 52.44 52.264 52.888C52.8987 53.2987 53.832 53.504 55.064 53.504Z" fill="white"/>
</g>
<defs>
<clipPath id="clip0_2017_266">
<rect width="80" height="80" rx="8" fill="white"/>
</clipPath>
</defs>
</svg>
