<svg width="80" height="80" viewBox="0 0 80 80" fill="none" xmlns="http://www.w3.org/2000/svg">
<g clip-path="url(#clip0_2017_268)">
<rect width="80" height="80" rx="8" fill="black"/>
<path d="M11.8661 60L19.4821 21.92H30.9621L38.6901 60H31.4101L29.8981 52.048H20.4901L19.1461 60H11.8661ZM21.7781 45.832H28.7781L25.8101 28.304H24.7461L21.7781 45.832ZM65.984 30.152V60H59.544V55.632H59.32C58.872 57.0133 58.368 58.0587 57.808 58.768C57.2853 59.4773 56.5573 59.944 55.624 60.168C54.6907 60.4293 53.4027 60.56 51.76 60.56C49.9307 60.56 48.4373 60.4107 47.28 60.112C46.16 59.8133 45.2827 59.2533 44.648 58.432C44.0507 57.6107 43.6213 56.4533 43.36 54.96C43.136 53.4293 43.024 51.432 43.024 48.968V30.152H50.696V48.968C50.696 50.3493 50.7707 51.3947 50.92 52.104C51.1067 52.776 51.4427 53.224 51.928 53.448C52.4133 53.672 53.1227 53.784 54.056 53.784C55.2507 53.784 56.1467 53.5973 56.744 53.224C57.3787 52.8133 57.808 52.0293 58.032 50.872C58.256 49.6773 58.368 47.9413 58.368 45.664V30.152H65.984Z" fill="white"/>
</g>
<defs>
<clipPath id="clip0_2017_268">
<rect width="80" height="80" rx="8" fill="white"/>
</clipPath>
</defs>
</svg>
