<svg width="80" height="80" viewBox="0 0 80 80" fill="none" xmlns="http://www.w3.org/2000/svg">
<rect width="80" height="80" rx="8" fill="black"/>
<path d="M20 31C20 27.0444 21.173 23.1776 23.3706 19.8886C25.5682 16.5996 28.6918 14.0362 32.3463 12.5224C36.0009 11.0087 40.0222 10.6126 43.9018 11.3843C47.7814 12.156 51.3451 14.0608 54.1421 16.8579C56.9392 19.6549 58.844 23.2186 59.6157 27.0982C60.3874 30.9778 59.9913 34.9992 58.4776 38.6537C56.9638 42.3082 54.4004 45.4318 51.1114 47.6294C47.8224 49.827 43.9556 51 40 51" stroke="white" stroke-width="8"/>
<rect x="44" y="47" width="33" height="8" transform="rotate(90 44 47)" fill="white"/>
<rect x="56" y="70" width="33" height="8" transform="rotate(-180 56 70)" fill="white"/>
</svg>
