<svg width="80" height="80" viewBox="0 0 80 80" fill="none" xmlns="http://www.w3.org/2000/svg">
<g clip-path="url(#clip0_2017_264)">
<rect width="80" height="80" rx="8" fill="black"/>
<path d="M30.6261 49.64H38.1301C37.9808 51.9173 37.7008 53.784 37.2901 55.24C36.8795 56.6587 36.2635 57.76 35.4421 58.544C34.6208 59.328 33.4821 59.8507 32.0261 60.112C30.6075 60.4107 28.7595 60.56 26.4821 60.56C23.8688 60.56 21.7408 60.2987 20.0981 59.776C18.4555 59.2533 17.1861 58.3013 16.2901 56.92C15.3941 55.5387 14.7781 53.56 14.4421 50.984C14.1061 48.408 13.9381 45.048 13.9381 40.904C13.9381 36.872 14.1061 33.568 14.4421 30.992C14.8155 28.416 15.4501 26.4373 16.3461 25.056C17.2421 23.6373 18.4928 22.6667 20.0981 22.144C21.7408 21.6213 23.8688 21.36 26.4821 21.36C28.6848 21.36 30.4955 21.5093 31.9141 21.808C33.3328 22.1067 34.4341 22.648 35.2181 23.432C36.0395 24.216 36.6368 25.336 37.0101 26.792C37.3835 28.248 37.6635 30.1333 37.8501 32.448H30.3461C30.0848 30.656 29.7115 29.4987 29.2261 28.976C28.7408 28.4533 27.8261 28.192 26.4821 28.192C25.1755 28.192 24.1675 28.5093 23.4581 29.144C22.7861 29.7787 22.3195 31.0107 22.0581 32.84C21.8341 34.632 21.7221 37.2827 21.7221 40.792C21.7221 44.4133 21.8341 47.1573 22.0581 49.024C22.3195 50.8533 22.7861 52.0853 23.4581 52.72C24.1675 53.3547 25.1755 53.672 26.4821 53.672C28.0128 53.672 29.0395 53.4293 29.5621 52.944C30.0848 52.4587 30.4395 51.3573 30.6261 49.64ZM65.984 30.152V60H59.544V55.632H59.32C58.872 57.0133 58.368 58.0587 57.808 58.768C57.2853 59.4773 56.5573 59.944 55.624 60.168C54.6907 60.4293 53.4027 60.56 51.76 60.56C49.9307 60.56 48.4373 60.4107 47.28 60.112C46.16 59.8133 45.2827 59.2533 44.648 58.432C44.0507 57.6107 43.6213 56.4533 43.36 54.96C43.136 53.4293 43.024 51.432 43.024 48.968V30.152H50.696V48.968C50.696 50.3493 50.7707 51.3947 50.92 52.104C51.1067 52.776 51.4427 53.224 51.928 53.448C52.4133 53.672 53.1227 53.784 54.056 53.784C55.2507 53.784 56.1467 53.5973 56.744 53.224C57.3787 52.8133 57.808 52.0293 58.032 50.872C58.256 49.6773 58.368 47.9413 58.368 45.664V30.152H65.984Z" fill="white"/>
</g>
<defs>
<clipPath id="clip0_2017_264">
<rect width="80" height="80" rx="8" fill="white"/>
</clipPath>
</defs>
</svg>
