<svg width="80" height="80" viewBox="0 0 80 80" fill="none" xmlns="http://www.w3.org/2000/svg">
<g clip-path="url(#clip0_2017_152)">
<rect width="80" height="80" rx="8" fill="black"/>
<path d="M15.3941 60V21.92H37.2901V28.808H23.0101V37.824H35.3861V44.656H23.0101V60H15.3941ZM59.376 51.6H66.376C66.152 53.4667 65.8347 54.9973 65.424 56.192C65.0507 57.3493 64.472 58.2453 63.688 58.88C62.9413 59.5147 61.896 59.944 60.552 60.168C59.2453 60.4293 57.5653 60.56 55.512 60.56C52.8613 60.56 50.696 60.3547 49.016 59.944C47.3733 59.5333 46.104 58.7867 45.208 57.704C44.312 56.584 43.696 55.016 43.36 53C43.024 50.9467 42.856 48.2773 42.856 44.992C42.856 41.7813 43.0053 39.168 43.304 37.152C43.6027 35.0987 44.1627 33.5307 44.984 32.448C45.8427 31.3653 47.0373 30.6187 48.568 30.208C50.0987 29.7973 52.0773 29.592 54.504 29.592C57.1173 29.592 59.2453 29.8347 60.888 30.32C62.5307 30.8053 63.7813 31.7013 64.64 33.008C65.4987 34.3147 66.0587 36.1813 66.32 38.608C66.6187 41.0347 66.7307 44.1893 66.656 48.072H50.024C50.1733 49.7893 50.3973 51.096 50.696 51.992C51.032 52.8507 51.5547 53.4293 52.264 53.728C53.0107 54.0267 54.0747 54.176 55.456 54.176C56.8747 54.176 57.8267 54.0267 58.312 53.728C58.7973 53.392 59.152 52.6827 59.376 51.6ZM50.08 42.64H59.656C59.544 40.6987 59.3573 39.224 59.096 38.216C58.8347 37.208 58.368 36.536 57.696 36.2C57.0613 35.864 56.128 35.696 54.896 35.696C53.6267 35.696 52.656 35.864 51.984 36.2C51.3493 36.536 50.8827 37.208 50.584 38.216C50.3227 39.224 50.1547 40.6987 50.08 42.64Z" fill="white"/>
</g>
<defs>
<clipPath id="clip0_2017_152">
<rect width="80" height="80" rx="8" fill="white"/>
</clipPath>
</defs>
</svg>
