<svg width="80" height="80" viewBox="0 0 80 80" fill="none" xmlns="http://www.w3.org/2000/svg">
<rect width="80" height="80" rx="8" fill="black"/>
<path d="M30 14C33.4144 14 36.7957 14.6729 39.9502 15.9795C43.1045 17.2861 45.9706 19.201 48.3848 21.6152C50.799 24.0294 52.7139 26.8955 54.0205 30.0498C55.3271 33.2043 56 36.5856 56 40H76C76 43.4144 75.3271 46.7957 74.0205 49.9502C72.7139 53.1045 70.799 55.9706 68.3848 58.3848C65.9706 60.799 63.1045 62.7139 59.9502 64.0205C56.7957 65.3271 53.4144 66 50 66C46.5856 66 43.2043 65.3271 40.0498 64.0205C36.8955 62.7139 34.0294 60.799 31.6152 58.3848C29.201 55.9706 27.2861 53.1045 25.9795 49.9502C24.6729 46.7957 24 43.4144 24 40H4C4 36.5856 4.67287 33.2043 5.97949 30.0498C7.28611 26.8955 9.20104 24.0294 11.6152 21.6152C14.0294 19.201 16.8955 17.2861 20.0498 15.9795C23.2043 14.6729 26.5856 14 30 14ZM40 27C33.3726 27 28 32.3726 28 39C28 45.6274 33.3726 51 40 51C46.6274 51 52 45.6274 52 39C52 32.3726 46.6274 27 40 27Z" fill="white"/>
</svg>
