<svg width="80" height="80" viewBox="0 0 80 80" fill="none" xmlns="http://www.w3.org/2000/svg">
<rect width="80" height="80" rx="8" fill="black"/>
<path d="M71 36H63V22.6562L52.5605 33.0947C55.429 37.1299 57 41.9838 57 47C57 53.3652 54.4716 59.4698 49.9707 63.9707L49.5439 64.3867C45.0879 68.627 39.1663 71 33 71C26.8337 71 20.9121 68.627 16.4561 64.3867L16.0293 63.9707C11.5284 59.4698 9 53.3652 9 47C9 40.6348 11.5284 34.5302 16.0293 30.0293C20.5302 25.5284 26.6348 23 33 23C38.0158 23 42.8694 24.5705 46.9043 27.4385L57.3438 17H44V9H71V36ZM33 31C28.7565 31 24.6871 32.6859 21.6865 35.6865C18.6859 38.6871 17 42.7565 17 47C17 51.2435 18.6859 55.3129 21.6865 58.3135C24.6871 61.3141 28.7565 63 33 63C37.2435 63 41.3129 61.3141 44.3135 58.3135C47.3141 55.3129 49 51.2435 49 47C49 42.7565 47.3141 38.6871 44.3135 35.6865C41.3129 32.6859 37.2435 31 33 31Z" fill="white"/>
</svg>
