<svg width="80" height="80" viewBox="0 0 80 80" fill="none" xmlns="http://www.w3.org/2000/svg">
<g clip-path="url(#clip0_2017_284)">
<rect width="80" height="80" rx="8" fill="black"/>
<path d="M13.0981 60V21.92H22.7861L30.9621 51.824H31.0181L30.5141 40.512V21.92H37.4581V60H27.7141L19.5941 29.984H19.4821L20.0421 41.296V60H13.0981ZM43.08 72.04V30.152H50.584V33.008H50.808C51.1067 32.0373 51.4427 31.3093 51.816 30.824C52.2267 30.3387 52.824 30.0213 53.608 29.872C54.392 29.6853 55.4747 29.592 56.856 29.592C58.984 29.592 60.72 29.7973 62.064 30.208C63.408 30.6187 64.4347 31.384 65.144 32.504C65.8533 33.624 66.3387 35.2107 66.6 37.264C66.8987 39.3173 67.048 41.9867 67.048 45.272C67.048 48.4827 66.9173 51.096 66.656 53.112C66.3947 55.0907 65.9093 56.6213 65.2 57.704C64.528 58.7867 63.5387 59.5333 62.232 59.944C60.9627 60.3547 59.32 60.56 57.304 60.56C55.9227 60.56 54.84 60.4667 54.056 60.28C53.272 60.1307 52.656 59.8133 52.208 59.328C51.7973 58.8053 51.4053 58.0587 51.032 57.088H50.808V72.04H43.08ZM54.952 53.84C56.2213 53.84 57.1733 53.6347 57.808 53.224C58.48 52.776 58.928 51.936 59.152 50.704C59.376 49.4347 59.488 47.5867 59.488 45.16C59.488 42.696 59.376 40.8293 59.152 39.56C58.928 38.2907 58.48 37.432 57.808 36.984C57.136 36.536 56.1653 36.312 54.896 36.312C53.664 36.312 52.712 36.536 52.04 36.984C51.4053 37.432 50.976 38.2907 50.752 39.56C50.528 40.792 50.416 42.6213 50.416 45.048C50.416 47.512 50.528 49.3787 50.752 50.648C50.976 51.88 51.4053 52.72 52.04 53.168C52.712 53.616 53.6827 53.84 54.952 53.84Z" fill="white"/>
</g>
<defs>
<clipPath id="clip0_2017_284">
<rect width="80" height="80" rx="8" fill="white"/>
</clipPath>
</defs>
</svg>
