<svg width="80" height="80" viewBox="0 0 80 80" fill="none" xmlns="http://www.w3.org/2000/svg">
<rect width="80" height="80" rx="8" fill="black"/>
<path d="M12 40C12 32.5739 14.95 25.452 20.201 20.201C25.452 14.95 32.5739 12 40 12C47.4261 12 54.548 14.95 59.799 20.201C65.05 25.452 68 32.5739 68 40C68 47.4261 65.05 54.548 59.799 59.799C54.548 65.05 47.4261 68 40 68C32.5739 68 25.452 65.05 20.201 59.799C14.95 54.548 12 47.4261 12 40L12 40Z" stroke="white" stroke-width="8"/>
<path d="M40 14V66.5" stroke="white" stroke-width="8"/>
<path d="M13.755 40.255L66.255 40.255" stroke="white" stroke-width="8"/>
</svg>
