<svg width="80" height="80" viewBox="0 0 80 80" fill="none" xmlns="http://www.w3.org/2000/svg">
<g clip-path="url(#clip0_2017_286)">
<rect width="80" height="80" rx="8" fill="black"/>
<path d="M14.9461 60V21.92C16.0288 21.8453 17.1488 21.7893 18.3061 21.752C19.4635 21.7147 20.9195 21.696 22.6741 21.696C25.8101 21.696 28.3675 21.8827 30.3461 22.256C32.3248 22.592 33.8368 23.208 34.8821 24.104C35.9648 25 36.6928 26.3067 37.0661 28.024C37.4768 29.704 37.6821 31.888 37.6821 34.576C37.6821 37.04 37.5141 39.056 37.1781 40.624C36.8795 42.1547 36.3008 43.3307 35.4421 44.152C34.5835 44.9733 33.3701 45.552 31.8021 45.888C30.2715 46.1867 28.2555 46.336 25.7541 46.336H22.5061V60H14.9461ZM22.5061 39.504H25.3061C26.6128 39.504 27.6021 39.3733 28.2741 39.112C28.9835 38.8133 29.4688 38.2907 29.7301 37.544C29.9915 36.76 30.1221 35.64 30.1221 34.184C30.1221 32.6533 29.9728 31.4773 29.6741 30.656C29.3755 29.7973 28.8155 29.2187 27.9941 28.92C27.1728 28.584 25.9968 28.416 24.4661 28.416H22.5061V39.504ZM65.984 30.152V60H59.544V55.632H59.32C58.872 57.0133 58.368 58.0587 57.808 58.768C57.2853 59.4773 56.5573 59.944 55.624 60.168C54.6907 60.4293 53.4027 60.56 51.76 60.56C49.9307 60.56 48.4373 60.4107 47.28 60.112C46.16 59.8133 45.2827 59.2533 44.648 58.432C44.0507 57.6107 43.6213 56.4533 43.36 54.96C43.136 53.4293 43.024 51.432 43.024 48.968V30.152H50.696V48.968C50.696 50.3493 50.7707 51.3947 50.92 52.104C51.1067 52.776 51.4427 53.224 51.928 53.448C52.4133 53.672 53.1227 53.784 54.056 53.784C55.2507 53.784 56.1467 53.5973 56.744 53.224C57.3787 52.8133 57.808 52.0293 58.032 50.872C58.256 49.6773 58.368 47.9413 58.368 45.664V30.152H65.984Z" fill="white"/>
</g>
<defs>
<clipPath id="clip0_2017_286">
<rect width="80" height="80" rx="8" fill="white"/>
</clipPath>
</defs>
</svg>
