<svg width="80" height="80" viewBox="0 0 80 80" fill="none" xmlns="http://www.w3.org/2000/svg">
<g clip-path="url(#clip0_2017_154)">
<rect width="80" height="80" rx="8" fill="black"/>
<path d="M12.7621 49.696H19.8181C19.8555 50.816 20.0048 51.6747 20.2661 52.272C20.5648 52.832 21.1248 53.2053 21.9461 53.392C22.7675 53.5787 23.9808 53.672 25.5861 53.672C26.9301 53.672 27.9381 53.5787 28.6101 53.392C29.3195 53.168 29.7861 52.7573 30.0101 52.16C30.2715 51.5253 30.4021 50.6107 30.4021 49.416C30.4021 48.2587 30.2341 47.344 29.8981 46.672C29.5995 45.9627 29.0021 45.384 28.1061 44.936C27.2101 44.488 25.9035 44.04 24.1861 43.592C21.8341 42.9947 19.9301 42.3973 18.4741 41.8C17.0181 41.2027 15.8981 40.4933 15.1141 39.672C14.3301 38.8133 13.7888 37.768 13.4901 36.536C13.1915 35.2667 13.0421 33.68 13.0421 31.776C13.0421 29.5733 13.1915 27.8 13.4901 26.456C13.8261 25.0747 14.4235 24.0293 15.2821 23.32C16.1781 22.5733 17.4288 22.0693 19.0341 21.808C20.6768 21.5093 22.7861 21.36 25.3621 21.36C27.8261 21.36 29.8421 21.4907 31.4101 21.752C32.9781 21.976 34.1728 22.424 34.9941 23.096C35.8528 23.768 36.4315 24.72 36.7301 25.952C37.0661 27.184 37.2341 28.7707 37.2341 30.712H30.0661C30.1035 29.592 29.8421 28.8827 29.2821 28.584C28.7595 28.248 27.5648 28.08 25.6981 28.08C24.2048 28.08 23.0661 28.1733 22.2821 28.36C21.4981 28.5467 20.9755 28.92 20.7141 29.48C20.4528 30.0027 20.3221 30.7867 20.3221 31.832C20.3221 32.7653 20.4901 33.512 20.8261 34.072C21.1621 34.632 21.8155 35.1173 22.7861 35.528C23.7568 35.9387 25.1941 36.3867 27.0981 36.872C29.3008 37.432 31.0928 38.0293 32.4741 38.664C33.8928 39.2613 34.9755 40.008 35.7221 40.904C36.5061 41.8 37.0288 42.9387 37.2901 44.32C37.5888 45.664 37.7381 47.3627 37.7381 49.416C37.7381 51.768 37.5701 53.672 37.2341 55.128C36.8981 56.584 36.2821 57.704 35.3861 58.488C34.4901 59.272 33.2208 59.8133 31.5781 60.112C29.9355 60.4107 27.8075 60.56 25.1941 60.56C22.4688 60.56 20.2661 60.4107 18.5861 60.112C16.9061 59.8507 15.6181 59.3467 14.7221 58.6C13.8635 57.816 13.3035 56.7147 13.0421 55.296C12.7808 53.84 12.6875 51.9733 12.7621 49.696ZM50.472 24.272V15.536H59.544V24.272H50.472ZM44.648 60V53.728H52.208V36.424H45.152V30.152H59.432V53.728H66.656V60H44.648Z" fill="white"/>
</g>
<defs>
<clipPath id="clip0_2017_154">
<rect width="80" height="80" rx="8" fill="white"/>
</clipPath>
</defs>
</svg>
