<svg width="80" height="80" viewBox="0 0 80 80" fill="none" xmlns="http://www.w3.org/2000/svg">
<g clip-path="url(#clip0_2017_282)">
<rect width="80" height="80" rx="8" fill="black"/>
<path d="M26.8509 21.92H34.9149V47.12C34.9149 48.8 35.0456 50.088 35.3069 50.984C35.5683 51.88 36.0536 52.496 36.7629 52.832C37.5096 53.1307 38.5923 53.28 40.0109 53.28C41.3923 53.28 42.4563 53.1307 43.2029 52.832C43.9496 52.496 44.4536 51.88 44.7149 50.984C44.9763 50.088 45.1069 48.8187 45.1069 47.176V21.92H53.1149V47.232C53.1149 49.9947 52.9283 52.2533 52.5549 54.008C52.1816 55.7253 51.5283 57.0693 50.5949 58.04C49.6616 58.9733 48.3363 59.6267 46.6189 60C44.9016 60.3733 42.6989 60.56 40.0109 60.56C37.3229 60.56 35.1203 60.3733 33.4029 60C31.6856 59.6267 30.3416 58.9733 29.3709 58.04C28.4376 57.0693 27.7843 55.7067 27.4109 53.952C27.0376 52.1973 26.8509 49.9573 26.8509 47.232V21.92Z" fill="white"/>
</g>
<defs>
<clipPath id="clip0_2017_282">
<rect width="80" height="80" rx="8" fill="white"/>
</clipPath>
</defs>
</svg>
