<svg width="80" height="80" viewBox="0 0 80 80" fill="none" xmlns="http://www.w3.org/2000/svg">
<rect width="80" height="80" rx="8" fill="black"/>
<path d="M40 34C44.7739 34 49.3519 35.8968 52.7275 39.2725C56.1032 42.6481 58 47.2261 58 52C58 56.7739 56.1032 61.3519 52.7275 64.7275C49.3519 68.1032 44.7739 70 40 70C35.2261 70 30.6481 68.1032 27.2725 64.7275C23.8968 61.3519 22 56.7739 22 52C22 47.2261 23.8968 42.6481 27.2725 39.2725C30.6481 35.8968 35.2261 34 40 34Z" stroke="white" stroke-width="8"/>
<path d="M40 34.5V10M55 25L40 10L25 25" stroke="white" stroke-width="8"/>
<circle cx="40" cy="52" r="8" fill="white"/>
</svg>
