<?xml version="1.0" encoding="UTF-8"?>
<svg width="100%" height="100%" viewBox="0 0 936 312" xmlns="http://www.w3.org/2000/svg" role="img" aria-labelledby="sig-title">
    <title id="sig-title">Raresh Nistor</title>
    <g transform="translate(-376.711289,-1111.887979)" fill="none" stroke="currentColor" stroke-width="8" stroke-linecap="round" stroke-linejoin="round" stroke-miterlimit="1.5">
        <path id="sig-r-down" pathLength="1" d="M472.595,1193.762C465.887,1222.273 414.935,1332.545 397.167,1389.658"/>
        <path id="sig-r-sweep" pathLength="1" d="M388.485,1196.475C439.569,1141.461 560.809,1104.027 601.203,1157.404C614.739,1175.292 604.65,1212.877 593.063,1231.747C571.965,1266.107 504.006,1296.857 486.161,1306.633C562.844,1332.737 595.686,1369.289 667.406,1384.774C723.958,1396.984 748.313,1384.754 810.665,1380.975"/>
        <path id="sig-ares" pathLength="1" d="M654.015,1258.066C670.136,1232.211 615.504,1246.785 607.172,1294.694C604.191,1311.832 619.965,1312.446 623.994,1310.431C637.795,1303.531 662.007,1261.384 664.693,1256.709C642.328,1302.837 660.602,1303.848 664.15,1302.834C691.513,1295.016 697.128,1250.098 697.794,1244.771C698.944,1235.576 734.253,1251.001 727.64,1260.508C727.168,1261.185 688.077,1304.25 717.329,1307.175C761.29,1311.571 791.426,1206.63 751.516,1260.508C728.65,1291.377 739.932,1318.216 763.997,1297.95C799.465,1268.082 813.994,1217.577 809.58,1253.996C807.484,1271.282 819.171,1324.784 799.269,1311.516C779.674,1298.453 821.057,1288.797 823.689,1288.183"/>
        <path id="sig-s-comma" pathLength="1" d="M771.916,1340.814C768.325,1346.511 752.28,1371.962 726.012,1411.364"/>
    </g>
    <g transform="translate(-489.732886,-1113.886108)" fill="none" stroke="currentColor" stroke-width="8" stroke-linecap="round" stroke-linejoin="round" stroke-miterlimit="1.5">
        <path id="sig-n-down" pathLength="1" d="M1051.944,1147.673C1040.192,1162.789 1043.512,1164.561 972.493,1373.44"/>
        <path id="sig-n-sweep" pathLength="1" d="M1054.831,1144.386C1050.577,1235.693 1105.771,1414.964 1110.579,1400.541C1136.118,1323.923 1115.625,1216.318 1188.655,1125.659"/>
        <path id="sig-istor-base" pathLength="1" d="M1171.135,1258.729C1167.099,1269.594 1149.775,1305.805 1165.115,1308.165C1178.674,1310.251 1203.85,1269.96 1212.63,1256.231C1223.347,1307.923 1209.787,1311.127 1208.932,1307.134C1204.775,1287.738 1234.584,1302.74 1282.132,1207.644C1278.785,1214.935 1244.37,1289.911 1252.749,1303.526C1254.75,1306.779 1260.29,1311.002 1290.38,1274.143C1289.527,1276.345 1272.403,1320.583 1296.565,1303.01C1333.522,1276.133 1306.798,1248.156 1301.205,1260.74C1292.46,1280.415 1352.289,1243.33 1354.816,1262.286C1356.329,1273.633 1327.534,1295.106 1338.836,1301.464C1340.272,1302.272 1374.549,1307.949 1413.067,1289.608"/>
        <path id="sig-it-top" pathLength="1" d="M1188.312,1203.52C1186.595,1212.676 1180.503,1230.643 1199.137,1228.779C1239.967,1224.696 1253.597,1215.443 1369.25,1226.202"/>
    </g>
</svg>
