<svg width="128" height="128" viewBox="0 0 128 128" fill="none" xmlns="http://www.w3.org/2000/svg">
<path d="M0 48C0 25.3726 0 14.0589 7.02944 7.02944C14.0589 0 25.3726 0 48 0H80C102.627 0 113.941 0 120.971 7.02944C128 14.0589 128 25.3726 128 48V80C128 102.627 128 113.941 120.971 120.971C113.941 128 102.627 128 80 128H48C25.3726 128 14.0589 128 7.02944 120.971C0 113.941 0 102.627 0 80V48Z" fill="#190F2E"/>
<path fill-rule="evenodd" clip-rule="evenodd" d="M87 16C96.3333 16 115 23.2 115 52C115 88 91 88 83 88L98.8984 127.748C93.6553 127.998 87.4391 128 80 128H75L59 88H35.5713L27.0771 127.637C17.5457 127.026 11.4429 125.384 7.0293 120.971C6.2822 120.224 5.61529 119.428 5.01855 118.575L27 16H87ZM40.7139 64H79C83 64 91 61.6 91 52C91 40 83 40 83 40H45.8574L40.7139 64Z" fill="#BA9CEF"/>
</svg>
