<svg width="16" height="16" viewBox="0 0 16 16" fill="none" xmlns="http://www.w3.org/2000/svg">
<g clip-path="url(#clip0_6_206)">
<path d="M1 7C1 5.11438 1 4.17157 1.58579 3.58579C2.17157 3 3.11438 3 5 3H11C12.8856 3 13.8284 3 14.4142 3.58579C15 4.17157 15 5.11438 15 7V9C15 10.8856 15 11.8284 14.4142 12.4142C13.8284 13 12.8856 13 11 13H5C3.11438 13 2.17157 13 1.58579 12.4142C1 11.8284 1 10.8856 1 9V7Z" fill="#250074"/>
<path d="M7.65276 11.3643C6.98549 11.1855 6.47792 10.7948 6.13007 10.1923C5.78221 9.58982 5.69768 8.95493 5.87648 8.28765C6.05527 7.62038 6.44592 7.11282 7.04842 6.76496C7.65093 6.4171 8.28582 6.33257 8.95309 6.51137C9.18562 6.57368 9.39309 6.65917 9.57549 6.76786C9.75789 6.87655 9.92503 7.01063 10.0769 7.17009L11.7917 0.77033L15.4314 1.74558L14.7812 4.17203L12.3548 3.52186L10.7294 9.58798C10.5506 10.2553 10.1599 10.7628 9.55743 11.1107C8.95492 11.4585 8.32003 11.5431 7.65276 11.3643Z" fill="#FF55FF"/>
<path d="M4.10844 9.045L2.93122 9.36044C2.79972 8.81556 2.76925 8.26885 2.83981 7.7203C2.91037 7.17175 3.0844 6.65755 3.3619 6.17769C3.63926 5.69729 3.99766 5.2893 4.43709 4.95373C4.87653 4.61815 5.36513 4.37135 5.9029 4.21333L6.21834 5.39055C5.82593 5.4957 5.47401 5.66425 5.16257 5.89621C4.85113 6.12817 4.59405 6.42011 4.39132 6.77203C4.18826 7.12375 4.06415 7.49245 4.01898 7.87815C3.97382 8.26384 4.00364 8.65279 4.10844 9.045ZM1.78371 9.62441L0.647076 9.92897C0.427235 9.08145 0.372692 8.23488 0.483449 7.38928C0.594205 6.54367 0.867408 5.74358 1.30306 4.98902C1.7389 4.2341 2.2953 3.59729 2.97224 3.07857C3.64917 2.55985 4.40949 2.18397 5.25319 1.95094L5.55775 3.08757C4.87623 3.27744 4.25622 3.5886 3.69771 4.02106C3.13921 4.45351 2.68413 4.97428 2.33248 5.58335C1.98083 6.19243 1.75737 6.84692 1.66211 7.54683C1.56684 8.24674 1.60738 8.93926 1.78371 9.62441Z" fill="#FF55FF"/>
</g>
<defs>
<clipPath id="clip0_6_206">
<rect width="16" height="16" fill="white"/>
</clipPath>
</defs>
</svg>
