<svg width="16" height="16" viewBox="0 0 16 16" fill="none" xmlns="http://www.w3.org/2000/svg">
<g clip-path="url(#clip0_6_219)">
<path d="M1 7C1 5.11438 1 4.17157 1.58579 3.58579C2.17157 3 3.11438 3 5 3H11C12.8856 3 13.8284 3 14.4142 3.58579C15 4.17157 15 5.11438 15 7V9C15 10.8856 15 11.8284 14.4142 12.4142C13.8284 13 12.8856 13 11 13H5C3.11438 13 2.17157 13 1.58579 12.4142C1 11.8284 1 10.8856 1 9V7Z" fill="#FF55FF"/>
<path d="M7.15276 11.3643C6.48549 11.1855 5.97792 10.7948 5.63007 10.1923C5.28221 9.58982 5.19768 8.95493 5.37648 8.28766C5.55527 7.62039 5.94592 7.11282 6.54842 6.76497C7.15093 6.41711 7.78582 6.33258 8.45309 6.51138C8.68562 6.57368 8.89309 6.65918 9.07549 6.76787C9.25789 6.87656 9.42503 7.01063 9.57692 7.1701L11.2917 0.770337L14.9314 1.74558L14.2812 4.17203L11.8548 3.52187L10.2294 9.58799C10.0506 10.2553 9.65993 10.7628 9.05743 11.1107C8.45492 11.4585 7.82003 11.5431 7.15276 11.3643Z" fill="#250074"/>
<mask id="mask0_6_219" style="mask-type:luminance" maskUnits="userSpaceOnUse" x="1" y="0" width="8" height="10">
<path d="M7.45714 7.52102L8.44928 3.8183C8.57869 3.33534 8.51553 2.28314 7.54961 2.02432C6.58368 1.7655 6.00289 2.64516 5.87348 3.12812L4.92448 6.66985C4.79507 7.15281 4.21427 8.03246 3.24835 7.77364C2.28242 7.51483 2.21926 6.46263 2.34867 5.97966L3.34081 2.27695" stroke="white" stroke-linecap="round" stroke-linejoin="round"/>
<path d="M6.64065 7.99242C6.59488 8.16321 6.61884 8.34518 6.70725 8.4983C6.79565 8.65143 6.94126 8.76316 7.11205 8.80892C7.28284 8.85468 7.46481 8.83073 7.61793 8.74232C7.77105 8.65391 7.88278 8.5083 7.92855 8.33752C7.97431 8.16673 7.95035 7.98476 7.86195 7.83164C7.77354 7.67851 7.62793 7.56678 7.45714 7.52102C7.28636 7.47526 7.10439 7.49921 6.95126 7.58762C6.79814 7.67603 6.68641 7.82164 6.64065 7.99242ZM2.86941 1.46045C2.82365 1.63124 2.8476 1.81321 2.93601 1.96633C3.02442 2.11945 3.17003 2.23119 3.34081 2.27695C3.5116 2.32271 3.69357 2.29875 3.84669 2.21035C3.99982 2.12194 4.11155 1.97633 4.15731 1.80554C4.20307 1.63476 4.17912 1.45279 4.09071 1.29966C4.0023 1.14654 3.85669 1.03481 3.68591 0.989048C3.51512 0.943285 3.33315 0.967242 3.18003 1.05565C3.0269 1.14405 2.91517 1.28967 2.86941 1.46045Z" fill="white" stroke="white" stroke-linejoin="round"/>
</mask>
<g mask="url(#mask0_6_219)">
<path d="M10.298 2.07056L8.22741 9.79796L0.5 7.72741L2.57055 4.29153e-06L10.298 2.07056Z" fill="#250074"/>
</g>
</g>
<defs>
<clipPath id="clip0_6_219">
<rect width="16" height="16" fill="white"/>
</clipPath>
</defs>
</svg>
