<svg width="32" height="32" viewBox="0 0 32 32" fill="none" xmlns="http://www.w3.org/2000/svg">
<g clip-path="url(#clip0_435_278)">
<g filter="url(#filter0_d_435_278)">
<path fill-rule="evenodd" clip-rule="evenodd" d="M11.2798 3.24666C10.7463 3.10372 10.198 3.4203 10.0551 3.95377L5.19777 22.0814C5.05483 22.6148 5.37142 23.1632 5.90488 23.3061L19.8534 27.0436C20.3869 27.1866 20.9352 26.87 21.0782 26.3365L25.9354 8.20891C26.0784 7.67544 25.7618 7.12711 25.2283 6.98417L11.2798 3.24666ZM9.83603 6.44306C9.60523 6.38122 9.36799 6.51819 9.30615 6.74899C9.2443 6.9798 9.38127 7.21703 9.61207 7.27888L18.806 9.74238C19.0368 9.80422 19.274 9.66725 19.3359 9.43645C19.3977 9.20565 19.2607 8.96841 19.0299 8.90657L9.83603 6.44306ZM9.38812 8.11466C9.15732 8.05282 8.92008 8.18979 8.85824 8.42059C8.79639 8.65139 8.93336 8.88863 9.16416 8.95047L21.7013 12.3098C21.9321 12.3716 22.1694 12.2347 22.2312 12.0039C22.293 11.7731 22.1561 11.5358 21.9253 11.474L9.38812 8.11466ZM8.41033 10.0922C8.47217 9.86141 8.70941 9.72444 8.94021 9.78628L18.9699 12.4737C19.2007 12.5356 19.3377 12.7728 19.2759 13.0036C19.214 13.2344 18.9768 13.3714 18.746 13.3096L8.71625 10.6221C8.48545 10.5603 8.34848 10.323 8.41033 10.0922ZM8.4923 11.4579C8.26149 11.3961 8.02426 11.533 7.96241 11.7638C7.90057 11.9946 8.03754 12.2319 8.26834 12.2937L19.1339 15.2051C19.3647 15.267 19.6019 15.13 19.6638 14.8992C19.7256 14.6684 19.5886 14.4312 19.3578 14.3693L8.4923 11.4579ZM8.96217 14.7192C9.02402 14.4884 9.26125 14.3514 9.49205 14.4133L15.3427 15.9809C15.5735 16.0428 15.7105 16.28 15.6487 16.5108C15.5868 16.7416 15.3496 16.8786 15.1188 16.8168L9.2681 15.2491C9.0373 15.1872 8.90033 14.95 8.96217 14.7192ZM9.04414 16.0849C8.81334 16.023 8.57611 16.16 8.51426 16.3908C8.45242 16.6216 8.58939 16.8588 8.82019 16.9207L18.0141 19.3842C18.2449 19.446 18.4821 19.3091 18.544 19.0782C18.6058 18.8474 18.4689 18.6102 18.2381 18.5484L9.04414 16.0849ZM8.06635 18.0624C8.12819 17.8316 8.36543 17.6946 8.59623 17.7565L16.1185 19.7721C16.3493 19.8339 16.4863 20.0712 16.4245 20.302C16.3626 20.5328 16.1254 20.6697 15.8946 20.6079L8.37228 18.5923C8.14148 18.5305 8.00451 18.2932 8.06635 18.0624Z" fill="white"/>
</g>
<g filter="url(#filter1_d_435_278)">
<path fill-rule="evenodd" clip-rule="evenodd" d="M10.22 3.85851C9.68651 3.71557 9.13818 4.03215 8.99524 4.56562L4.13796 22.6932C3.99502 23.2267 4.3116 23.775 4.84507 23.918L18.7936 27.6555C19.3271 27.7984 19.8754 27.4818 20.0184 26.9484L24.8756 8.82076C25.0186 8.28729 24.702 7.73895 24.1685 7.59601L10.22 3.85851ZM9.83602 6.44307C9.60522 6.38122 9.36798 6.51819 9.30614 6.749C9.24429 6.9798 9.38126 7.21704 9.61207 7.27888L18.806 9.74238C19.0368 9.80422 19.274 9.66726 19.3359 9.43645C19.3977 9.20565 19.2607 8.96841 19.0299 8.90657L9.83602 6.44307ZM9.38811 8.11467C9.15731 8.05282 8.92007 8.18979 8.85823 8.42059C8.79638 8.6514 8.93335 8.88863 9.16416 8.95048L21.7013 12.3098C21.9321 12.3716 22.1694 12.2347 22.2312 12.0039C22.293 11.7731 22.1561 11.5358 21.9253 11.474L9.38811 8.11467ZM8.41032 10.0922C8.47216 9.86141 8.7094 9.72445 8.9402 9.78629L18.9699 12.4737C19.2007 12.5356 19.3377 12.7728 19.2759 13.0036C19.214 13.2344 18.9768 13.3714 18.746 13.3096L8.71625 10.6221C8.48544 10.5603 8.34847 10.323 8.41032 10.0922ZM8.49229 11.4579C8.26149 11.3961 8.02425 11.533 7.96241 11.7638C7.90056 11.9946 8.03753 12.2319 8.26833 12.2937L19.1339 15.2051C19.3647 15.267 19.6019 15.13 19.6638 14.8992C19.7256 14.6684 19.5886 14.4312 19.3578 14.3693L8.49229 11.4579ZM8.96216 14.7192C9.02401 14.4884 9.26124 14.3514 9.49205 14.4133L15.3427 15.981C15.5735 16.0428 15.7105 16.28 15.6486 16.5108C15.5868 16.7416 15.3496 16.8786 15.1188 16.8168L9.26809 15.2491C9.03729 15.1872 8.90032 14.95 8.96216 14.7192ZM9.04414 16.0849C8.81333 16.023 8.5761 16.16 8.51425 16.3908C8.45241 16.6216 8.58938 16.8588 8.82018 16.9207L18.0141 19.3842C18.2449 19.446 18.4821 19.3091 18.544 19.0783C18.6058 18.8474 18.4689 18.6102 18.2381 18.5484L9.04414 16.0849ZM8.06634 18.0624C8.12819 17.8316 8.36542 17.6946 8.59623 17.7565L16.1185 19.7721C16.3493 19.8339 16.4863 20.0712 16.4244 20.302C16.3626 20.5328 16.1254 20.6697 15.8946 20.6079L8.37227 18.5923C8.14147 18.5305 8.0045 18.2932 8.06634 18.0624Z" fill="white"/>
</g>
<g filter="url(#filter2_d_435_278)">
<path fill-rule="evenodd" clip-rule="evenodd" d="M9.16029 4.47042C8.62682 4.32748 8.07849 4.64406 7.93554 5.17752L3.07827 23.3051C2.93533 23.8386 3.25191 24.3869 3.78537 24.5299L17.7339 28.2674C18.2674 28.4103 18.8157 28.0937 18.9587 27.5603L23.8159 9.43267C23.9589 8.8992 23.6423 8.35086 23.1088 8.20792L9.16029 4.47042ZM9.83603 6.44308C9.60523 6.38124 9.36799 6.51821 9.30615 6.74901C9.2443 6.97981 9.38127 7.21705 9.61207 7.27889L18.806 9.74239C19.0368 9.80424 19.274 9.66727 19.3359 9.43647C19.3977 9.20566 19.2607 8.96843 19.0299 8.90658L9.83603 6.44308ZM9.38812 8.11468C9.15732 8.05283 8.92008 8.1898 8.85824 8.4206C8.79639 8.65141 8.93336 8.88864 9.16416 8.95049L21.7013 12.3098C21.9321 12.3717 22.1694 12.2347 22.2312 12.0039C22.293 11.7731 22.1561 11.5358 21.9253 11.474L9.38812 8.11468ZM8.41033 10.0922C8.47217 9.86143 8.70941 9.72446 8.94021 9.7863L18.9699 12.4738C19.2007 12.5356 19.3377 12.7728 19.2759 13.0036C19.214 13.2344 18.9768 13.3714 18.746 13.3096L8.71625 10.6221C8.48545 10.5603 8.34848 10.323 8.41033 10.0922ZM8.4923 11.4579C8.26149 11.3961 8.02426 11.533 7.96242 11.7639C7.90057 11.9947 8.03754 12.2319 8.26834 12.2937L19.1339 15.2051C19.3647 15.267 19.6019 15.13 19.6638 14.8992C19.7256 14.6684 19.5886 14.4312 19.3578 14.3693L8.4923 11.4579ZM8.96217 14.7192C9.02402 14.4884 9.26125 14.3514 9.49206 14.4133L15.3427 15.981C15.5735 16.0428 15.7105 16.28 15.6487 16.5108C15.5868 16.7417 15.3496 16.8786 15.1188 16.8168L9.2681 15.2491C9.0373 15.1872 8.90033 14.95 8.96217 14.7192ZM9.04414 16.0849C8.81334 16.023 8.57611 16.16 8.51426 16.3908C8.45242 16.6216 8.58939 16.8588 8.82019 16.9207L18.0141 19.3842C18.2449 19.446 18.4821 19.3091 18.544 19.0783C18.6058 18.8475 18.4689 18.6102 18.2381 18.5484L9.04414 16.0849ZM8.06635 18.0624C8.1282 17.8316 8.36543 17.6947 8.59623 17.7565L16.1185 19.7721C16.3493 19.8339 16.4863 20.0712 16.4245 20.302C16.3626 20.5328 16.1254 20.6697 15.8946 20.6079L8.37228 18.5923C8.14148 18.5305 8.00451 18.2932 8.06635 18.0624Z" fill="white"/>
</g>
<g filter="url(#filter3_d_435_278)">
<path d="M24.3344 5.60312L22.8219 7.11562L26.8844 11.1781L28.3969 9.66562C29.1782 8.88437 29.1782 7.61874 28.3969 6.83749L27.1657 5.60312C26.3844 4.82187 25.1188 4.82187 24.3375 5.60312H24.3344ZM22.1157 7.82187L14.8313 15.1094C14.5063 15.4344 14.2688 15.8375 14.1375 16.2781L13.0313 20.0375C12.9532 20.3031 13.025 20.5875 13.2188 20.7812C13.4125 20.975 13.6969 21.0469 13.9594 20.9719L17.7188 19.8656C18.1594 19.7344 18.5625 19.4969 18.8875 19.1719L26.1782 11.8844L22.1157 7.82187Z" fill="white"/>
</g>
</g>
<defs>
<filter id="filter0_d_435_278" x="1.16345" y="-0.787659" width="28.8063" height="31.8656" filterUnits="userSpaceOnUse" color-interpolation-filters="sRGB">
<feFlood flood-opacity="0" result="BackgroundImageFix"/>
<feColorMatrix in="SourceAlpha" type="matrix" values="0 0 0 0 0 0 0 0 0 0 0 0 0 0 0 0 0 0 127 0" result="hardAlpha"/>
<feOffset/>
<feGaussianBlur stdDeviation="2"/>
<feComposite in2="hardAlpha" operator="out"/>
<feColorMatrix type="matrix" values="0 0 0 0 0 0 0 0 0 0 0 0 0 0 0 0 0 0 0.5 0"/>
<feBlend mode="normal" in2="BackgroundImageFix" result="effect1_dropShadow_435_278"/>
<feBlend mode="normal" in="SourceGraphic" in2="effect1_dropShadow_435_278" result="shape"/>
</filter>
<filter id="filter1_d_435_278" x="0.103638" y="-0.175812" width="28.8063" height="31.8656" filterUnits="userSpaceOnUse" color-interpolation-filters="sRGB">
<feFlood flood-opacity="0" result="BackgroundImageFix"/>
<feColorMatrix in="SourceAlpha" type="matrix" values="0 0 0 0 0 0 0 0 0 0 0 0 0 0 0 0 0 0 127 0" result="hardAlpha"/>
<feOffset/>
<feGaussianBlur stdDeviation="2"/>
<feComposite in2="hardAlpha" operator="out"/>
<feColorMatrix type="matrix" values="0 0 0 0 0 0 0 0 0 0 0 0 0 0 0 0 0 0 0.5 0"/>
<feBlend mode="normal" in2="BackgroundImageFix" result="effect1_dropShadow_435_278"/>
<feBlend mode="normal" in="SourceGraphic" in2="effect1_dropShadow_435_278" result="shape"/>
</filter>
<filter id="filter2_d_435_278" x="-0.956055" y="0.436096" width="28.8063" height="31.8656" filterUnits="userSpaceOnUse" color-interpolation-filters="sRGB">
<feFlood flood-opacity="0" result="BackgroundImageFix"/>
<feColorMatrix in="SourceAlpha" type="matrix" values="0 0 0 0 0 0 0 0 0 0 0 0 0 0 0 0 0 0 127 0" result="hardAlpha"/>
<feOffset/>
<feGaussianBlur stdDeviation="2"/>
<feComposite in2="hardAlpha" operator="out"/>
<feColorMatrix type="matrix" values="0 0 0 0 0 0 0 0 0 0 0 0 0 0 0 0 0 0 0.5 0"/>
<feBlend mode="normal" in2="BackgroundImageFix" result="effect1_dropShadow_435_278"/>
<feBlend mode="normal" in="SourceGraphic" in2="effect1_dropShadow_435_278" result="shape"/>
</filter>
<filter id="filter3_d_435_278" x="9.00024" y="1.01718" width="23.9826" height="23.9839" filterUnits="userSpaceOnUse" color-interpolation-filters="sRGB">
<feFlood flood-opacity="0" result="BackgroundImageFix"/>
<feColorMatrix in="SourceAlpha" type="matrix" values="0 0 0 0 0 0 0 0 0 0 0 0 0 0 0 0 0 0 127 0" result="hardAlpha"/>
<feOffset/>
<feGaussianBlur stdDeviation="2"/>
<feComposite in2="hardAlpha" operator="out"/>
<feColorMatrix type="matrix" values="0 0 0 0 0 0 0 0 0 0 0 0 0 0 0 0 0 0 0.5 0"/>
<feBlend mode="normal" in2="BackgroundImageFix" result="effect1_dropShadow_435_278"/>
<feBlend mode="normal" in="SourceGraphic" in2="effect1_dropShadow_435_278" result="shape"/>
</filter>
<clipPath id="clip0_435_278">
<rect width="32" height="32" fill="white"/>
</clipPath>
</defs>
</svg>
