<svg width="229" height="195" viewBox="0 0 229 195" fill="none" xmlns="http://www.w3.org/2000/svg">
<g clip-path="url(#clip0_328_26)">
<mask id="mask0_328_26" style="mask-type:alpha" maskUnits="userSpaceOnUse" x="44" y="0" width="140" height="170">
<rect x="44" width="140" height="170" fill="url(#paint0_linear_328_26)"/>
<rect x="44.5" y="0.5" width="139" height="169" stroke="black" stroke-opacity="0.37"/>
</mask>
<g mask="url(#mask0_328_26)">
<rect x="44" width="140" height="170" fill="url(#paint1_linear_328_26)"/>
<rect x="44.5" y="0.5" width="139" height="169" stroke="black" stroke-opacity="0.37"/>
<path d="M119 153.699L130 140.199C130.667 139.199 132.6 137.399 135 138.199C138 139.199 138.5 141.199 137.5 143.199C136.7 144.799 130.167 152.199 127 155.699C126.333 157.466 124.8 161.6 124 164C123.2 166.4 120.333 176.333 119 181L94 180C91.1667 177 85.1 169.6 83.5 164C81.5 157 76.5 157.5 74.5 156.5C72.5 155.5 71 155 72 152.5C73 150 75 150 79.5 150.5C84 151 89 158 89 161C89 163.949 90.4491 167.863 97.1455 176.542C95.927 174.575 95.5835 169.457 96.5 163.5C97.3 158.3 100.5 152.333 102 150C103.667 148 107.9 144.5 111.5 146.5C115.1 148.5 118 152.133 119 153.699Z" fill="#FFB266"/>
<path d="M119 153.699L130 140.199C130.667 139.199 132.6 137.399 135 138.199C138 139.199 138.5 141.199 137.5 143.199C136.7 144.799 130.167 152.199 127 155.699C126.333 157.466 124.8 161.6 124 164C123.2 166.4 120.333 176.333 119 181L94 180C91.1667 177 85.1 169.6 83.5 164C81.5 157 76.5 157.5 74.5 156.5C72.5 155.5 71 155 72 152.5C73 150 75 150 79.5 150.5C84 151 89 158 89 161C89 164 90.5 168 97.5 177C96 175.5 95.5 170 96.5 163.5C97.3 158.3 100.5 152.333 102 150C103.667 148 107.9 144.5 111.5 146.5C115.1 148.5 118 152.133 119 153.699Z" stroke="black" stroke-width="3" stroke-linecap="round" stroke-linejoin="round"/>
<path d="M109 132.5L110 124.5C106.5 126 101.5 132 100 136C98.5 140 99.5 145 102.5 149.5C105.5 154 116.5 154.5 119.5 153.5C122.5 152.5 127 149.5 128.5 140.5C129.7 133.3 123 126.833 119.5 124.5V132.5H109Z" fill="#FFB266" stroke="black" stroke-width="3" stroke-linecap="round" stroke-linejoin="round"/>
<mask id="mask1_328_26" style="mask-type:alpha" maskUnits="userSpaceOnUse" x="97" y="123" width="34" height="33">
<path d="M109 132.5L110 124.5C106.5 126 101.5 132 100 136C98.5 140 99.5 145 102.5 149.5C105.5 154 116.5 154.5 119.5 153.5C122.5 152.5 127 149.5 128.5 140.5C129.7 133.3 123 126.833 119.5 124.5V132.5H109Z" fill="#FFB266" stroke="black" stroke-width="3" stroke-linecap="round" stroke-linejoin="round"/>
</mask>
<g mask="url(#mask1_328_26)">
<path d="M113 139.199L99 154L107 156C110.167 152.5 119.7 143.799 120.5 142.199C121.5 140.199 121 138.199 118 137.199C115.6 136.399 113.667 138.199 113 139.199Z" fill="#FFB266" stroke="black" stroke-width="3" stroke-linecap="round" stroke-linejoin="round"/>
<path d="M113 139.199L99.5 153L107 156C110.167 152.5 119.7 143.799 120.5 142.199C121.5 140.199 121 138.199 118 137.199C115.6 136.399 113.667 138.199 113 139.199Z" fill="#FFB266" stroke="black" stroke-width="3" stroke-linecap="round" stroke-linejoin="round"/>
</g>
<path d="M82 132.389L44 170V0H82V132.389Z" fill="#00FFFF"/>
<path d="M146 132.389L184 170V0H146V132.389Z" fill="#00FFFF"/>
<mask id="mask2_328_26" style="mask-type:alpha" maskUnits="userSpaceOnUse" x="44" y="0" width="141" height="170">
<path d="M82 132.39L44 170V0H82V132.39ZM184.5 0V170L146.5 132.39V0H184.5Z" fill="#00FFFF"/>
</mask>
<g mask="url(#mask2_328_26)">
<path d="M70.4797 131L46 1H62.4061L86.8857 131H70.4797Z" fill="url(#paint2_linear_328_26)"/>
<path d="M92.1844 131L67.7048 1H74.5204L99 131H92.1844Z" fill="url(#paint3_linear_328_26)"/>
<path d="M173.48 131L149 1H165.406L189.886 131H173.48Z" fill="url(#paint4_linear_328_26)"/>
<path d="M195.184 131L170.705 1H177.52L202 131H195.184Z" fill="url(#paint5_linear_328_26)"/>
</g>
<path d="M81.5 0.5V132.181L44.5 168.801V0.5H81.5Z" stroke="#0094BD"/>
<path d="M146.5 0.5V132.181L183.5 168.801V0.5H146.5Z" stroke="#0094BD"/>
<path d="M94 32C96.2604 30.9804 100.475 27.9529 99.25 24C101.7 27.2 106.104 27.6863 108 27.5294" stroke="white" stroke-width="3" stroke-linecap="round" stroke-linejoin="round"/>
<path d="M121 45C123.26 43.9804 127.475 40.9529 126.25 37C128.7 40.2 133.104 40.6863 135 40.5294" stroke="white" stroke-width="3" stroke-linecap="round" stroke-linejoin="round"/>
</g>
<path d="M159.267 182C160.76 164.261 148.378 153.322 142 150.07L163.467 131C172.644 137.504 191 155.391 191 174.904C181.293 179.517 165.8 181.557 159.267 182Z" fill="white" stroke="black" stroke-width="2" stroke-linecap="round" stroke-linejoin="round"/>
<path d="M78.8298 194C83.8936 188.432 88.3865 177.515 90 172.752C81.9326 170.799 64.5319 164.913 59.4681 157C59.7035 159.965 60.532 164.445 62.2341 169.455C63.3888 172.855 64.9457 176.498 66.9922 180.079C69.8805 185.133 73.7443 190.061 78.8298 194Z" fill="white"/>
<path d="M62.2341 169.455C60.2767 175.024 56.5958 178.37 55 179.347C57.5338 179.835 63.4795 180.665 66.9922 180.079C64.9457 176.498 63.3888 172.855 62.2341 169.455Z" fill="white"/>
<path d="M62.2341 169.455C60.532 164.445 59.7035 159.965 59.4681 157C64.5319 164.913 81.9326 170.799 90 172.752C88.3865 177.515 83.8936 188.432 78.8298 194C73.7443 190.061 69.8805 185.133 66.9922 180.079M62.2341 169.455C60.2767 175.024 56.5958 178.37 55 179.347C57.5338 179.835 63.4795 180.665 66.9922 180.079M62.2341 169.455C63.3888 172.855 64.9457 176.498 66.9922 180.079" stroke="black" stroke-width="2" stroke-linecap="round" stroke-linejoin="round"/>
<path d="M214.733 61.6648C217.405 62.1911 221.792 61.6001 223.652 61.2389C223.047 58.4842 222.307 52.2468 224.183 49.3341C223.22 49.9292 221.838 50.9696 220.414 52.3648C219.448 53.3113 218.463 54.4211 217.575 55.666C216.323 57.423 215.265 59.4491 214.733 61.6648Z" fill="white"/>
<path d="M220.414 52.3648C218.229 52.766 216.523 52.2592 215.944 51.9557C216.176 52.7987 216.827 54.721 217.575 55.666C218.463 54.4211 219.448 53.3113 220.414 52.3648Z" fill="white"/>
<path d="M220.414 52.3648C221.838 50.9696 223.22 49.9292 224.183 49.3341C222.307 52.2468 223.047 58.4842 223.652 61.2389C221.792 61.6001 217.405 62.1911 214.733 61.6648C215.265 59.4491 216.323 57.423 217.575 55.666M220.414 52.3648C218.229 52.766 216.523 52.2592 215.944 51.9557C216.176 52.7987 216.827 54.721 217.575 55.666M220.414 52.3648C219.448 53.3113 218.463 54.4211 217.575 55.666" stroke="black" stroke-width="2" stroke-linecap="round" stroke-linejoin="round"/>
<path d="M109.5 54.5L100.5 57C102 61 103 68 101.5 76.5C103.44 74.7541 105.145 70.8993 106.5 66.7263C106.899 65.4966 107.269 64.2392 107.604 63C108.479 59.7736 109.128 56.6706 109.5 54.5Z" fill="white"/>
<path d="M116 73.5C113.6 72.7 109.403 66.1667 107.604 63C107.269 64.2392 106.899 65.4966 106.5 66.7263C107.833 68.6509 111.6 72.7 116 73.5Z" fill="white"/>
<path d="M107.604 63C108.479 59.7736 109.128 56.6706 109.5 54.5L100.5 57C102 61 103 68 101.5 76.5C103.44 74.7541 105.145 70.8993 106.5 66.7263M107.604 63C109.403 66.1667 113.6 72.7 116 73.5C111.6 72.7 107.833 68.6509 106.5 66.7263M107.604 63C107.269 64.2392 106.899 65.4966 106.5 66.7263" stroke="black" stroke-width="2" stroke-linecap="round" stroke-linejoin="round"/>
<path d="M14.2623 79.3878L2.94084 78.7281C4.16166 81.8911 4.32203 86.9952 1.21605 92.4728C3.83835 91.7806 6.49269 89.5683 8.77029 87.0433C9.44149 86.2992 10.08 85.528 10.6753 84.7605C12.2252 82.7623 13.4825 80.7895 14.2623 79.3878Z" fill="white"/>
<path d="M19.3012 94.2461C16.5033 93.0563 12.3848 87.4266 10.6753 84.7605C10.08 85.528 9.44149 86.2992 8.77029 87.0433C10.1014 88.7274 14.0712 92.5257 19.3012 94.2461Z" fill="white"/>
<path d="M10.6753 84.7605C12.2252 82.7623 13.4825 80.7895 14.2623 79.3878L2.94084 78.7281C4.16166 81.8911 4.32203 86.9952 1.21605 92.4728C3.83835 91.7806 6.49269 89.5683 8.77029 87.0433M10.6753 84.7605C12.3848 87.4266 16.5033 93.0563 19.3012 94.2461C14.0712 92.5257 10.1014 88.7274 8.77029 87.0433M10.6753 84.7605C10.08 85.528 9.44149 86.2992 8.77029 87.0433" stroke="black" stroke-width="2" stroke-linecap="round" stroke-linejoin="round"/>
</g>
<defs>
<linearGradient id="paint0_linear_328_26" x1="114" y1="170" x2="114" y2="0" gradientUnits="userSpaceOnUse">
<stop stop-color="#FF8800"/>
<stop offset="1" stop-color="#443DFF"/>
</linearGradient>
<linearGradient id="paint1_linear_328_26" x1="114" y1="170" x2="114" y2="0" gradientUnits="userSpaceOnUse">
<stop stop-color="#FF8800"/>
<stop offset="1" stop-color="#443DFF"/>
</linearGradient>
<linearGradient id="paint2_linear_328_26" x1="72.5" y1="1" x2="72.5" y2="131" gradientUnits="userSpaceOnUse">
<stop stop-color="white"/>
<stop offset="1" stop-color="white" stop-opacity="0"/>
</linearGradient>
<linearGradient id="paint3_linear_328_26" x1="72.5" y1="1" x2="72.5" y2="131" gradientUnits="userSpaceOnUse">
<stop stop-color="white"/>
<stop offset="1" stop-color="white" stop-opacity="0"/>
</linearGradient>
<linearGradient id="paint4_linear_328_26" x1="175.5" y1="1" x2="175.5" y2="131" gradientUnits="userSpaceOnUse">
<stop stop-color="white"/>
<stop offset="1" stop-color="white" stop-opacity="0"/>
</linearGradient>
<linearGradient id="paint5_linear_328_26" x1="175.5" y1="1" x2="175.5" y2="131" gradientUnits="userSpaceOnUse">
<stop stop-color="white"/>
<stop offset="1" stop-color="white" stop-opacity="0"/>
</linearGradient>
<clipPath id="clip0_328_26">
<rect width="228.966" height="195" fill="white"/>
</clipPath>
</defs>
</svg>
