<?xml version="1.0" encoding="UTF-8" standalone="no"?>
<!DOCTYPE svg PUBLIC "-//W3C//DTD SVG 1.1//EN" "http://www.w3.org/Graphics/SVG/1.1/DTD/svg11.dtd">
<svg width="100%" height="100%" viewBox="0 0 480 500" version="1.1" xmlns="http://www.w3.org/2000/svg" xmlns:xlink="http://www.w3.org/1999/xlink" xml:space="preserve" xmlns:serif="http://www.serif.com/" style="fill-rule:evenodd;clip-rule:evenodd;stroke-linejoin:round;stroke-miterlimit:2;">
    <g id="Blue_on_white" transform="matrix(1,0,0,1,2,-8)">
        <g transform="matrix(1,0,0,1,-331.689658,-272.055)">
            <g>
                <path d="M592.85,764.11C492.05,733.34 418.73,640.19 418.73,530.06C418.73,419.93 493.61,324.77 596.13,295.04C606.61,291.98 603.86,285.18 591.22,285.18C454.94,285.18 344.42,394.87 344.42,530.07C344.42,665.27 454.93,774.93 591.22,774.93C603.85,774.93 604.36,767.63 592.85,764.12L592.85,764.11Z" style="fill:rgb(0,164,235);fill-rule:nonzero;"/>
                <path d="M465.48,587.42C464.8,580.84 464.47,574.19 464.47,567.48C464.47,460.12 551.52,373.09 658.9,373.09C760.42,373.09 790.9,418.4 794.68,415.44C798.8,412.18 757.84,322.37 638.63,322.37C531.24,322.37 444.19,409.4 444.19,516.76C444.19,541.6 448.84,565.28 457.32,587.07C460.9,596.21 466.4,596.29 465.49,587.42L465.48,587.42Z" style="fill:rgb(0,164,235);fill-rule:nonzero;"/>
                <path d="M546.92,447.31C597.45,425.28 660.93,424.61 723.34,446.42C765.25,461.04 789.54,481.92 791.53,481.06C794.84,479.63 767.15,435.78 717.17,416.82C656.66,393.89 591.48,405.89 543.99,443.14C538.77,447.25 540.74,450.01 546.92,447.31Z" style="fill:rgb(0,164,235);fill-rule:nonzero;"/>
            </g>
        </g>
    </g>
</svg>
