<svg width="16" height="16" viewBox="0 0 16 16" fill="none" xmlns="http://www.w3.org/2000/svg">
<path d="M1 7C1 5.11438 1 4.17157 1.58579 3.58579C2.17157 3 3.11438 3 5 3H11C12.8856 3 13.8284 3 14.4142 3.58579C15 4.17157 15 5.11438 15 7V9C15 10.8856 15 11.8284 14.4142 12.4142C13.8284 13 12.8856 13 11 13H5C3.11438 13 2.17157 13 1.58579 12.4142C1 11.8284 1 10.8856 1 9V7Z" fill="black"/>
<mask id="mask0_577_1179" style="mask-type:alpha" maskUnits="userSpaceOnUse" x="1" y="3" width="14" height="10">
<path d="M1 7C1 5.11438 1 4.17157 1.58579 3.58579C2.17157 3 3.11438 3 5 3H11C12.8856 3 13.8284 3 14.4142 3.58579C15 4.17157 15 5.11438 15 7V9C15 10.8856 15 11.8284 14.4142 12.4142C13.8284 13 12.8856 13 11 13H5C3.11438 13 2.17157 13 1.58579 12.4142C1 11.8284 1 10.8856 1 9V7Z" fill="black"/>
</mask>
<g mask="url(#mask0_577_1179)">
<rect x="2" y="4" width="6" height="1" rx="0.5" fill="#0063D7"/>
<rect x="4" y="6" width="3" height="1" rx="0.5" fill="#D9D9D9"/>
<rect x="8" y="6" width="2" height="1" rx="0.5" fill="#E81123"/>
<rect x="11" y="6" width="2" height="1" rx="0.5" fill="#FFFF55"/>
<rect x="4" y="8" width="4" height="1" rx="0.5" fill="#0063D7"/>
<rect x="4" y="10" width="9" height="1" rx="0.5" fill="#1F7F00"/>
<rect x="2" y="12" width="3" height="1" rx="0.5" fill="#0063D7"/>
</g>
</svg>
