<?xml version="1.0" encoding="UTF-8"?>
<!-- Generated by Pixelmator Pro 3.6.6 -->
<svg width="97" height="94" viewBox="0 0 97 94" xmlns="http://www.w3.org/2000/svg">
    <g id="Group">
        <g id="g1">
            <g id="Light-Logo">
                <g id="Logo">
                    <g id="Icon">
                        <g id="g2">
                            <g id="g3">
                                <path id="Path" fill="#1f88c0" fill-rule="evenodd" stroke="none" d="M 89.723145 35.394409 C 90.924675 41.232929 90.810547 46.994316 89.819328 52.522846 C 88.814278 58.131691 86.771652 63.435486 83.868454 68.233414 C 82.711754 70.14682 81.433723 71.985229 80.030525 73.734497 C 78.632095 75.467133 77.120857 77.122482 75.488083 78.664864 C 70.688126 83.20385 64.872429 86.818161 58.124565 88.871796 C 52.783886 90.548203 47.377823 91.17601 42.106586 90.823891 C 36.555565 90.446907 31.186401 89.039375 26.233368 86.722435 L 25.749977 87.649857 C 30.683117 90.470901 36.131622 92.363449 41.843586 93.226616 C 47.440926 94.074234 53.268127 93.901474 59.123802 92.601028 C 66.721184 90.826027 73.487175 87.348358 79.023201 82.581429 C 80.939651 80.932503 82.695053 79.1119 84.280128 77.168175 C 85.869972 75.207817 87.291855 73.116028 88.505486 70.911285 C 91.513351 65.456177 93.431213 59.380234 93.974014 53.074318 C 94.491249 47.082233 93.752579 40.912537 91.740219 34.853928 L 89.723145 35.394409 Z"/>
                            </g>
                            <g id="g4">
                                <path id="path1" fill="#1f88c0" fill-rule="evenodd" stroke="none" d="M 12.970259 75.807396 C 10.759853 73.384521 8.783575 70.707314 7.144474 67.770996 C 5.547194 64.907761 4.274715 61.81945 3.326609 58.544395 C 2.963295 56.907913 2.684025 55.287308 2.520738 53.658661 C 1.854295 46.994057 2.933203 40.52145 5.052775 34.491104 C 6.189064 31.256142 7.702108 28.196129 9.435171 25.261459 C 11.735817 21.36145 14.468569 17.714073 17.777517 14.556435 C 22.644482 9.915207 28.549278 6.215591 35.410435 4.100876 C 40.99519 2.381927 46.653576 1.748131 52.142479 2.25676 C 55.955147 2.608246 59.694702 3.439896 63.201752 4.832436 C 67.17057 6.408035 70.826408 8.696648 74.11805 11.412674 C 77.354309 14.082298 80.173477 17.262444 82.54747 20.799736 C 82.859474 21.268486 83.067276 21.803543 83.454918 22.213814 C 83.753876 22.524979 84.098198 22.647552 84.449333 22.898659 L 85.868538 21.996559 C 85.782364 21.551781 85.789307 21.174004 85.603355 20.763451 C 85.358772 20.222885 84.896469 19.817451 84.529549 19.355743 C 80.652969 14.479546 75.863564 10.52298 70.518303 7.543961 C 68.241089 6.27459 65.860016 5.201805 63.421318 4.274818 C 60.72863 3.247139 57.958832 2.401382 55.110527 1.806664 C 48.603676 0.450737 41.733131 0.34304 34.827377 1.92485 C 27.341148 3.639351 20.666004 7.02375 15.197414 11.695824 C 11.394276 14.947296 8.1157 18.77951 5.677112 23.092392 C 3.847011 26.32914 2.507982 29.841125 1.617786 33.470528 C 0.016507 40.006493 0.003752 46.922016 1.445704 53.823849 C 1.787766 55.458347 2.185419 57.085629 2.698135 58.712795 C 3.530356 62.08783 4.73542 65.270996 6.209711 68.259338 C 7.742798 71.369781 9.572142 74.262985 11.692284 76.901649 L 12.970259 75.807396 Z"/>
                            </g>
                        </g>
                        <g id="g5">
                            <g id="g6">
                                <path id="path2" fill="none" stroke="#1f88c0" stroke-width="3.580642" stroke-linecap="round" stroke-linejoin="round" d="M 81.804932 26.678055 C 81.240456 30.376152 83.819885 33.884911 87.51796 34.449387 C 89.469818 34.747322 91.365417 34.170807 92.807396 33.01796 C 94.096817 31.983253 95.022186 30.485924 95.289246 28.73632 C 95.853722 25.038223 93.274292 21.529465 89.576218 20.964989 C 85.878143 20.400505 82.369408 22.979958 81.804932 26.678055 Z"/>
                            </g>
                            <g id="g7">
                                <path id="path3" fill="#1f88c0" fill-rule="evenodd" stroke="none" d="M 73.875587 41.709675 C 73.875587 41.709675 75.067734 40.598198 76.554245 39.139145 C 79.166275 36.572945 82.668556 32.986588 82.668556 32.986588 L 81.519829 31.640694 C 81.519829 31.640694 77.431396 34.544441 74.48645 36.720345 C 72.817009 37.964142 71.532295 38.968834 71.532295 38.968834 L 73.875587 41.709675 Z"/>
                            </g>
                        </g>
                        <g id="Padlock">
                            <g id="g8">
                                <path id="path4" fill="none" stroke="#22b638" stroke-width="5.885952" d="M 40.790684 74.221176 L 66.595367 74.221176 C 68.037262 74.221176 69.205109 73.053322 69.205109 71.61142 L 69.205109 45.688236 C 69.205109 44.246326 68.037262 43.078476 66.595367 43.078476 L 28.21534 43.078476 C 26.773441 43.078476 25.605598 44.246326 25.605598 45.688236 L 25.605598 61.010441"/>
                                <path id="path5" fill="none" stroke="#22b638" stroke-width="5.885952" stroke-linecap="round" stroke-linejoin="round" d="M 34.948349 43.078476 L 34.948349 30.621399 C 34.948349 23.788689 40.572685 18.164322 47.405354 18.164322 C 54.238022 18.164322 59.862358 23.788689 59.862358 30.621399 L 59.862358 43.078476"/>
                            </g>
                        </g>
                        <g id="g9">
                            <g id="g10">
                                <path id="path6" fill="none" stroke="#1f88c0" stroke-width="5.248268" stroke-linecap="round" stroke-linejoin="round" d="M 32.890236 78.602097 C 33.128052 76.791458 32.890671 75.021034 32.274952 73.416969 C 30.911522 69.856613 27.679729 67.114937 23.665554 66.587692 C 17.840752 65.822624 12.416281 69.987595 11.65122 75.812424 C 10.886158 81.637268 15.051102 87.061768 20.875902 87.826836 C 26.700703 88.591904 32.125172 84.426933 32.890236 78.602097 Z"/>
                            </g>
                            <g id="g11">
                                <path id="path7" fill="#1f88c0" fill-rule="evenodd" stroke="none" d="M 44.547169 57.397552 C 44.547169 57.397552 37.973373 61.316746 33.252201 64.365685 C 30.578724 66.090942 28.556561 67.53994 28.556561 67.53994 L 32.748219 72.896568 C 32.748219 72.896568 34.633648 71.275742 36.954021 69.098106 C 41.04752 65.247681 46.441166 59.812447 46.441166 59.812447 L 44.547169 57.397552 Z"/>
                            </g>
                        </g>
                    </g>
                </g>
            </g>
        </g>
    </g>
</svg>
