<svg width="16" height="16" viewBox="0 0 16 16" fill="none" xmlns="http://www.w3.org/2000/svg">
<path d="M9 1C10.8856 1 11.8284 1 12.4142 1.58579C13 2.17157 13 3.11438 13 5L13 11C13 12.8856 13 13.8284 12.4142 14.4142C11.8284 15 10.8856 15 9 15L7 15C5.11438 15 4.17157 15 3.58579 14.4142C3 13.8284 3 12.8856 3 11L3 5C3 3.11438 3 2.17157 3.58579 1.58579C4.17157 1 5.11438 1 7 1L9 1Z" fill="white"/>
<mask id="mask0_577_1191" style="mask-type:alpha" maskUnits="userSpaceOnUse" x="3" y="1" width="10" height="14">
<path d="M9 1C10.8856 1 11.8284 1 12.4142 1.58579C13 2.17157 13 3.11438 13 5L13 11C13 12.8856 13 13.8284 12.4142 14.4142C11.8284 15 10.8856 15 9 15L7 15C5.11438 15 4.17157 15 3.58579 14.4142C3 13.8284 3 12.8856 3 11L3 5C3 3.11438 3 2.17157 3.58579 1.58579C4.17157 1 5.11438 1 7 1L9 1Z" fill="black"/>
</mask>
<g mask="url(#mask0_577_1191)">
</g>
<g clip-path="url(#clip0_577_1191)">
<path fill-rule="evenodd" clip-rule="evenodd" d="M6.07302 2.54696C6.17467 2.59139 6.26643 2.66457 6.34973 2.76128C6.48855 2.92123 6.60573 3.15017 6.69514 3.42146C6.78503 3.69432 6.84338 3.99645 6.8655 4.29963C7.16178 4.11345 7.49061 4.00007 7.82973 3.96718L7.85373 3.96509C8.26315 3.9285 8.66785 4.01057 9.0208 4.21286C9.06833 4.24057 9.11492 4.27036 9.16056 4.30172C9.18409 4.0043 9.24151 3.70896 9.32998 3.44237C9.41939 3.17056 9.53657 2.94214 9.67492 2.78166C9.75224 2.68876 9.84682 2.61563 9.95209 2.56735C10.073 2.51507 10.2015 2.50567 10.3267 2.54539C10.5154 2.60498 10.6773 2.73775 10.8048 2.93064C10.9215 3.10679 11.009 3.3326 11.0688 3.60337C11.177 4.09159 11.1959 4.73401 11.1229 5.50868L11.1479 5.52959L11.1601 5.53952C11.5163 5.84061 11.7643 6.26976 11.8956 6.76791C12.1004 7.54519 11.9973 8.41707 11.6443 8.90481L11.6359 8.91576L11.6368 8.91732C11.8331 9.31564 11.9521 9.73644 11.9776 10.1719L11.9785 10.1876C12.0086 10.7443 11.8843 11.3046 11.5954 11.855L11.5921 11.8603L11.5968 11.8728C11.8189 12.4776 11.8886 13.0865 11.8029 13.695L11.8001 13.7154C11.7868 13.8042 11.7424 13.8837 11.6765 13.9362C11.6106 13.9886 11.5286 14.0101 11.4486 13.9955C11.4089 13.9886 11.3709 13.9732 11.3367 13.95C11.3024 13.9268 11.2727 13.8962 11.249 13.8602C11.2255 13.8242 11.2085 13.7833 11.1991 13.74C11.1897 13.6967 11.1881 13.6517 11.1944 13.6077C11.273 13.0677 11.1992 12.5262 10.9686 11.9753C10.9471 11.9241 10.9375 11.8677 10.9408 11.8113C10.9441 11.7549 10.9601 11.7004 10.9874 11.6527L10.9893 11.6496C11.2735 11.1666 11.3912 10.693 11.3657 10.2278C11.3441 9.82058 11.2128 9.4207 10.9893 9.03964C10.9458 8.96558 10.9303 8.87546 10.9462 8.7888C10.962 8.70213 11.0079 8.62587 11.074 8.57651L11.0782 8.57338C11.1926 8.49026 11.298 8.27806 11.3512 7.98794C11.4098 7.64492 11.3945 7.29131 11.3064 6.95609C11.21 6.59019 11.0335 6.28492 10.7864 6.07635C10.5064 5.83904 10.1356 5.72456 9.66645 5.75749C9.60508 5.76193 9.54395 5.74582 9.49092 5.71125C9.43793 5.67667 9.39544 5.62524 9.36904 5.56357C9.22127 5.21596 9.00574 4.96715 8.73704 4.81294C8.47905 4.66993 8.19024 4.60982 7.90314 4.6394C7.31726 4.69115 6.80056 5.0581 6.64667 5.5207C6.6249 5.58581 6.58574 5.64198 6.53444 5.68169C6.48313 5.72138 6.42213 5.74273 6.35961 5.74286C5.85749 5.74391 5.46879 5.87459 5.18455 6.11033C4.9389 6.31419 4.77137 6.59907 4.6829 6.94041C4.60284 7.26169 4.59188 7.59942 4.6509 7.92625C4.7036 8.21794 4.80666 8.45944 4.92479 8.58957L4.92855 8.59325C5.02832 8.70144 5.04949 8.87031 4.97984 9.00357C4.81043 9.3287 4.68384 9.81326 4.66313 10.279C4.6396 10.8111 4.75066 11.2732 5.00149 11.6046L5.00902 11.6146C5.04688 11.6636 5.07121 11.7236 5.07915 11.7876C5.08707 11.8516 5.07824 11.9167 5.05373 11.9753C4.78266 12.6213 4.69937 13.1524 4.78925 13.5706C4.8054 13.6576 4.79037 13.7481 4.74735 13.8229C4.70433 13.8977 4.63672 13.9509 4.5589 13.9712C4.48108 13.9916 4.39921 13.9773 4.3307 13.9316C4.26218 13.8858 4.21245 13.8122 4.19208 13.7263C4.07772 13.1942 4.15537 12.5847 4.41466 11.8979L4.42125 11.8796L4.41749 11.8733C4.29004 11.6642 4.19494 11.433 4.13608 11.1891L4.13372 11.1791C4.06229 10.8749 4.03418 10.56 4.05043 10.2461C4.07114 9.77039 4.18125 9.28325 4.34314 8.89225L4.34878 8.87864L4.34784 8.87762C4.20996 8.65912 4.10784 8.37944 4.05137 8.07L4.04902 8.05744C3.97121 7.62583 3.9862 7.1799 4.09278 6.75589C4.21608 6.2776 4.45843 5.86674 4.8156 5.56984C4.84384 5.54632 4.87349 5.52279 4.90313 5.50084C4.82831 4.72042 4.84713 4.07382 4.95584 3.58246C5.01561 3.31169 5.10361 3.08588 5.22032 2.90973C5.34737 2.71737 5.50926 2.5846 5.69796 2.52448C5.82314 2.48476 5.95208 2.49417 6.07302 2.54696ZM8.00997 7.29849C8.45044 7.29849 8.85704 7.46207 9.16104 7.74538C9.45751 8.02087 9.63398 8.39094 9.63398 8.7595C9.63398 9.22364 9.44292 9.58538 9.1008 9.81639C8.80904 10.0124 8.41797 10.1076 7.96997 10.1076C7.49514 10.1076 7.0895 9.97219 6.79679 9.72389C6.50644 9.4782 6.34361 9.1332 6.34361 8.7595C6.34361 8.38993 6.53091 8.01876 6.84056 7.74225C7.15491 7.46156 7.56997 7.29849 8.00997 7.29849ZM8.00997 7.76682C7.68349 7.76369 7.36567 7.88343 7.10832 8.10662C6.89138 8.3 6.76856 8.54307 6.76856 8.76C6.76856 8.9837 6.86738 9.19332 7.05561 9.35276C7.26973 9.53414 7.58456 9.6392 7.96997 9.6392C8.34597 9.6392 8.66315 9.56238 8.87915 9.41651C9.09704 9.27019 9.20857 9.05794 9.20857 8.7595C9.20857 8.53837 9.0928 8.29425 8.88715 8.10294C8.65938 7.89125 8.35068 7.76682 8.00997 7.76682ZM8.3215 8.39932L8.32338 8.40143C8.37985 8.48032 8.36809 8.59482 8.29703 8.65756L8.15962 8.77776V9.01089C8.15936 9.06282 8.1406 9.1125 8.10743 9.14902C8.07426 9.18559 8.02939 9.20602 7.98267 9.20588C7.93595 9.20602 7.89109 9.18559 7.85792 9.14902C7.82474 9.1125 7.80598 9.06282 7.80573 9.01089V8.77044L7.6782 8.6565C7.66137 8.64151 7.64739 8.62301 7.63705 8.60199C7.6267 8.58097 7.62021 8.55792 7.61793 8.5341C7.61565 8.51027 7.61765 8.48621 7.62379 8.46326C7.62994 8.4403 7.64011 8.41891 7.65373 8.40037C7.68151 8.36279 7.72151 8.33896 7.76504 8.33395C7.80856 8.32898 7.8521 8.34324 7.8862 8.37369L7.98738 8.46362L8.09091 8.37268C8.12489 8.34283 8.16801 8.32894 8.21108 8.33395C8.25416 8.33892 8.29377 8.36238 8.3215 8.39932ZM5.94973 7.39624C6.17467 7.39624 6.35773 7.60007 6.35773 7.8515C6.35785 7.97202 6.3149 8.08767 6.23831 8.17304C6.16172 8.25842 6.05776 8.30653 5.94926 8.30681C5.84092 8.3064 5.73714 8.25828 5.66067 8.17304C5.58419 8.0878 5.54126 7.97239 5.54126 7.85205C5.541 7.73153 5.58384 7.6158 5.66033 7.53033C5.73684 7.44486 5.84123 7.39665 5.94973 7.39624ZM10.0467 7.39624C10.2726 7.39624 10.4552 7.60007 10.4552 7.8515C10.4553 7.97202 10.4123 8.08767 10.3357 8.17304C10.2592 8.25842 10.1552 8.30653 10.0467 8.30681C9.93835 8.3064 9.83459 8.25828 9.75812 8.17304C9.6816 8.0878 9.63868 7.97239 9.63868 7.85205C9.63845 7.73153 9.68127 7.6158 9.75774 7.53033C9.83426 7.44486 9.93817 7.39665 10.0467 7.39624ZM5.8542 3.17944L5.85279 3.18049C5.79826 3.20682 5.75171 3.25001 5.71867 3.30489L5.71632 3.30803C5.65137 3.40683 5.5949 3.55214 5.55255 3.74293C5.47255 4.10466 5.4509 4.59549 5.4942 5.19714C5.69655 5.13023 5.91726 5.08842 6.1549 5.07326L6.15961 5.07273L6.16855 5.05496C6.1902 5.0121 6.21326 4.9708 6.2382 4.93003C6.29608 4.52701 6.24855 4.04559 6.11914 3.65251C6.05608 3.46224 5.97937 3.31274 5.90596 3.22754C5.89081 3.20983 5.87392 3.19405 5.85561 3.18049L5.8542 3.17944ZM10.1714 3.20035L10.1704 3.20087C10.1521 3.21444 10.1352 3.23021 10.1201 3.24792C10.0467 3.33312 9.96951 3.48314 9.90692 3.67341C9.77045 4.08845 9.7248 4.60176 9.79868 5.01785L9.82598 5.06855L9.82974 5.07587H9.84386C10.0774 5.07594 10.3097 5.11326 10.5337 5.18669C10.5742 4.59915 10.5516 4.11877 10.4735 3.76385C10.4312 3.57305 10.3747 3.42774 10.3093 3.32894L10.3074 3.32581C10.2744 3.27072 10.2279 3.22736 10.1733 3.20087L10.1714 3.20035Z" fill="black"/>
</g>
<defs>
<clipPath id="clip0_577_1191">
<rect width="8" height="11.5" fill="white" transform="translate(4 2.5)"/>
</clipPath>
</defs>
</svg>
