<svg width="16" height="16" viewBox="0 0 16 16" fill="none" xmlns="http://www.w3.org/2000/svg">
<path d="M1 5C1 3.11438 1 2.17157 1.58579 1.58579C2.17157 1 3.11438 1 5 1H11C12.8856 1 13.8284 1 14.4142 1.58579C15 2.17157 15 3.11438 15 5V11C15 12.8856 15 13.8284 14.4142 14.4142C13.8284 15 12.8856 15 11 15H5C3.11438 15 2.17157 15 1.58579 14.4142C1 13.8284 1 12.8856 1 11V5Z" fill="white"/>
<g clip-path="url(#clip0_577_1203)">
<mask id="mask0_577_1203" style="mask-type:luminance" maskUnits="userSpaceOnUse" x="4" y="3" width="8" height="10">
<path d="M12 3H4V13H12V3Z" fill="white"/>
</mask>
<g mask="url(#mask0_577_1203)">
<mask id="mask1_577_1203" style="mask-type:luminance" maskUnits="userSpaceOnUse" x="4" y="3" width="8" height="10">
<path d="M12 3H4V13H12V3Z" fill="white"/>
</mask>
<g mask="url(#mask1_577_1203)">
<path d="M10 11H6V7H10V11Z" fill="#CFCECD"/>
<path d="M10 5H6V11H10V5ZM12 13H4V3H12V13Z" fill="#211E1E"/>
</g>
</g>
</g>
<defs>
<clipPath id="clip0_577_1203">
<rect width="8" height="10" fill="white" transform="translate(4 3)"/>
</clipPath>
</defs>
</svg>
