<svg xmlns="http://www.w3.org/2000/svg" viewBox="0 0 96 83.2"><defs><style>.cls-1{fill:#142149;}.cls-2{fill:#c9f4ff;}.cls-3{fill:#51b9ff;}.cls-4{fill:#007bfc;}</style></defs><g id="sygnet"><path class="cls-2" d="M33.45,2.24A4.78,4.78,0,0,0,29.39,0H4.8A4.8,4.8,0,0,0,.74,7.36l5,8,32.71-5.12Z"/><path class="cls-3" d="M38.49,10.24A4.78,4.78,0,0,0,34.43,8H9.84a4.8,4.8,0,0,0-4.06,7.36l7.06,11.2,32.71-5.12Z"/><path class="cls-4" d="M12.84,26.56A4.85,4.85,0,0,1,12.1,24a4.8,4.8,0,0,1,4.8-4.8H41.49a4.78,4.78,0,0,1,4.06,2.24l22,34.9a4.8,4.8,0,0,1,0,5.12L55.26,81a4.8,4.8,0,0,1-8.12,0Z"/><path class="cls-4" d="M74.85,37A4.8,4.8,0,0,0,83,37L87.2,30.3l8.06-12.79a4.8,4.8,0,0,0,0-5.12L88.86,2.24A4.78,4.78,0,0,0,84.8,0H60.21a4.8,4.8,0,0,0-4.06,7.36Z"/></g></svg>