<svg width="16" height="16" viewBox="0 0 16 16" fill="none" xmlns="http://www.w3.org/2000/svg">
<path d="M1 7C1 5.11438 1 4.17157 1.58579 3.58579C2.17157 3 3.11438 3 5 3H11C12.8856 3 13.8284 3 14.4142 3.58579C15 4.17157 15 5.11438 15 7V9C15 10.8856 15 11.8284 14.4142 12.4142C13.8284 13 12.8856 13 11 13H5C3.11438 13 2.17157 13 1.58579 12.4142C1 11.8284 1 10.8856 1 9V7Z" fill="black"/>
<path d="M4.38232 4.965C4.65999 4.965 4.89232 5.01883 5.07932 5.1265C5.27199 5.23417 5.41649 5.3815 5.51282 5.5685C5.61482 5.7555 5.66582 5.97083 5.66582 6.2145V6.7075C5.66582 6.9455 5.61482 7.16083 5.51282 7.3535C5.41649 7.5405 5.27199 7.68783 5.07932 7.7955C4.89232 7.90317 4.65999 7.957 4.38232 7.957C3.97432 7.957 3.65982 7.84083 3.43882 7.6085C3.21782 7.3705 3.10732 7.07017 3.10732 6.7075V6.2145C3.10732 5.97083 3.15549 5.7555 3.25182 5.5685C3.35382 5.3815 3.50115 5.23417 3.69382 5.1265C3.88649 5.01883 4.11599 4.965 4.38232 4.965ZM3.71082 6.6395C3.71082 6.7755 3.72782 6.89167 3.76182 6.988C3.79582 7.08433 3.84115 7.1665 3.89782 7.2345C3.96015 7.29117 4.03099 7.33367 4.11032 7.362C4.18965 7.39033 4.28032 7.4045 4.38232 7.4045C4.60899 7.4045 4.77615 7.33933 4.88382 7.209C4.99715 7.07867 5.05382 6.88883 5.05382 6.6395V6.2825C5.05382 6.15217 5.03965 6.036 5.01132 5.934C4.98299 5.832 4.93765 5.75267 4.87532 5.696C4.76199 5.58267 4.59765 5.526 4.38232 5.526C4.16132 5.526 3.99415 5.59117 3.88082 5.7215C3.76749 5.84617 3.71082 6.03317 3.71082 6.2825V6.6395ZM6.52432 8.093C6.79632 8.093 7.02582 8.14683 7.21282 8.2545C7.40549 8.36217 7.54999 8.5095 7.64632 8.6965C7.74832 8.8835 7.79932 9.09883 7.79932 9.3425V9.8355C7.79932 10.0735 7.74832 10.2888 7.64632 10.4815C7.54999 10.6685 7.40549 10.8158 7.21282 10.9235C7.02582 11.0312 6.79632 11.085 6.52432 11.085C6.11632 11.085 5.79899 10.9688 5.57232 10.7365C5.35132 10.4985 5.24082 10.1982 5.24082 9.8355V9.3425C5.24082 9.09883 5.28899 8.8835 5.38532 8.6965C5.48732 8.5095 5.63465 8.36217 5.82732 8.2545C6.01999 8.14683 6.25232 8.093 6.52432 8.093ZM5.85282 9.7675C5.85282 9.9035 5.86699 10.0197 5.89532 10.116C5.92932 10.2123 5.97749 10.2917 6.03982 10.354C6.09649 10.4107 6.16449 10.4532 6.24382 10.4815C6.32315 10.5098 6.41665 10.524 6.52432 10.524C6.74532 10.524 6.91249 10.4588 7.02582 10.3285C7.13915 10.1982 7.19582 10.0112 7.19582 9.7675V9.4105C7.19582 9.2745 7.17882 9.15833 7.14482 9.062C7.11649 8.96 7.07115 8.87783 7.00882 8.8155C6.89549 8.70217 6.73399 8.6455 6.52432 8.6455C6.30332 8.6455 6.13615 8.71067 6.02282 8.841C5.90949 8.97133 5.85282 9.16117 5.85282 9.4105V9.7675ZM6.01432 7.5575C6.05965 7.46117 6.11065 7.345 6.16732 7.209C6.22399 7.073 6.28349 6.92567 6.34582 6.767C6.40815 6.60267 6.47049 6.4355 6.53282 6.2655C6.60082 6.08983 6.66599 5.91983 6.72832 5.7555C6.79065 5.59117 6.85015 5.441 6.90682 5.305C6.96349 5.169 7.01449 5.05567 7.05982 4.965C7.07682 4.965 7.11649 4.965 7.17882 4.965C7.24682 4.965 7.32049 4.965 7.39982 4.965C7.47915 4.965 7.54999 4.965 7.61232 4.965C7.67465 4.965 7.71715 4.965 7.73982 4.965C7.76249 4.965 7.77949 4.97067 7.79082 4.982C7.80782 4.98767 7.81632 4.999 7.81632 5.016C7.82199 5.033 7.81915 5.05283 7.80782 5.0755C7.80215 5.10383 7.77099 5.1775 7.71432 5.2965C7.65765 5.4155 7.58965 5.56283 7.51032 5.7385C7.43665 5.91417 7.35732 6.10117 7.27232 6.2995C7.18732 6.49217 7.10515 6.67633 7.02582 6.852C6.94649 7.02767 6.88132 7.175 6.83032 7.294C6.77932 7.40733 6.75099 7.47533 6.74532 7.498C6.73399 7.52067 6.72265 7.53767 6.71132 7.549C6.69999 7.55467 6.68299 7.5575 6.66032 7.5575C6.63765 7.5575 6.59515 7.5575 6.53282 7.5575C6.47615 7.5575 6.41099 7.5575 6.33732 7.5575C6.26365 7.5575 6.19565 7.5575 6.13332 7.5575C6.07665 7.5575 6.03699 7.5575 6.01432 7.5575ZM4.89232 8.484C4.84699 8.57467 4.79599 8.69083 4.73932 8.8325C4.68265 8.9685 4.62315 9.11867 4.56082 9.283C4.49849 9.44167 4.43332 9.60883 4.36532 9.7845C4.30299 9.9545 4.24065 10.1217 4.17832 10.286C4.11599 10.4503 4.05649 10.6005 3.99982 10.7365C3.94315 10.8725 3.89215 10.9858 3.84682 11.0765C3.82982 11.0765 3.78732 11.0765 3.71932 11.0765C3.65699 11.0765 3.58615 11.0765 3.50682 11.0765C3.42749 11.0765 3.35665 11.0765 3.29432 11.0765C3.23199 11.0765 3.18949 11.0765 3.16682 11.0765C3.14415 11.0765 3.12432 11.0708 3.10732 11.0595C3.09599 11.0538 3.08749 11.0425 3.08182 11.0255C3.08182 11.0085 3.08749 10.9887 3.09882 10.966C3.10449 10.9433 3.13282 10.8725 3.18382 10.7535C3.24049 10.6288 3.30849 10.4787 3.38782 10.303C3.46715 10.1273 3.54932 9.94317 3.63432 9.7505C3.71932 9.55217 3.80149 9.36517 3.88082 9.1895C3.96015 9.01383 4.02532 8.8665 4.07632 8.7475C4.12732 8.6285 4.15565 8.5605 4.16132 8.5435C4.17265 8.51517 4.18399 8.49817 4.19532 8.4925C4.20665 8.48683 4.22365 8.484 4.24632 8.484C4.26899 8.484 4.30865 8.484 4.36532 8.484C4.42765 8.484 4.49565 8.484 4.56932 8.484C4.64299 8.484 4.70815 8.484 4.76482 8.484C4.82715 8.484 4.86965 8.484 4.89232 8.484ZM8.5525 11.6715H12.454C12.4767 11.6715 12.4937 11.6743 12.505 11.68C12.5163 11.6913 12.5248 11.7027 12.5305 11.714C12.5418 11.7253 12.5475 11.7423 12.5475 11.765C12.5475 11.8783 12.5475 11.986 12.5475 12.088C12.5475 12.1957 12.5475 12.3062 12.5475 12.4195H8.646C8.629 12.4195 8.612 12.4138 8.595 12.4025C8.58367 12.3968 8.57233 12.3855 8.561 12.3685C8.55533 12.3572 8.5525 12.343 8.5525 12.326C8.5525 12.2127 8.5525 12.1022 8.5525 11.9945C8.5525 11.8925 8.5525 11.7848 8.5525 11.6715Z" fill="#E84654"/>
</svg>
