<svg width="842" height="595" viewBox="0 0 842 595" fill="none" xmlns="http://www.w3.org/2000/svg">
<rect width="842" height="595" fill="#101117"/>
<path d="M383.516 146.597L383.527 153.919C387.387 153.919 391.211 154.683 394.779 156.168C398.346 157.653 401.586 159.829 404.312 162.57C410.085 168.343 412.978 175.851 412.963 183.355L420.286 183.366C420.285 178.544 419.332 173.766 417.481 169.307C415.629 164.848 412.916 160.797 409.497 157.385C402.32 150.208 392.916 146.611 383.516 146.597ZM383.538 161.293L383.549 168.616C385.478 168.619 387.389 169.003 389.172 169.746C390.955 170.488 392.576 171.574 393.941 172.941C396.828 175.828 398.261 179.595 398.267 183.334L405.589 183.345C405.591 180.452 405.02 177.585 403.911 174.91C402.802 172.235 401.176 169.803 399.127 167.756C394.836 163.465 389.198 161.302 383.538 161.293ZM378.369 178.111C376.994 179.487 376.223 181.353 376.226 183.301C376.229 185.249 377.005 187.118 378.385 188.497C379.764 189.877 381.633 190.653 383.581 190.656C385.529 190.659 387.396 189.888 388.771 188.513C390.146 187.138 390.917 185.271 390.914 183.323C390.912 181.375 390.135 179.506 388.756 178.127C387.376 176.747 385.507 175.971 383.559 175.968C381.612 175.965 379.745 176.736 378.369 178.111Z" fill="white"/>
<rect x="486" y="398" width="148" height="78" rx="15" stroke="white" stroke-width="2"/>
<path d="M526.171 421.091C526.086 420.371 525.74 419.812 525.134 419.415C524.528 419.017 523.785 418.818 522.904 418.818C522.26 418.818 521.697 418.922 521.214 419.131C520.735 419.339 520.361 419.625 520.091 419.99C519.826 420.355 519.694 420.769 519.694 421.233C519.694 421.621 519.786 421.955 519.971 422.234C520.16 422.509 520.402 422.739 520.695 422.923C520.989 423.103 521.296 423.252 521.618 423.371C521.94 423.484 522.236 423.577 522.506 423.648L523.983 424.045C524.362 424.145 524.784 424.282 525.248 424.457C525.716 424.633 526.164 424.872 526.59 425.175C527.021 425.473 527.376 425.857 527.655 426.325C527.935 426.794 528.074 427.369 528.074 428.051C528.074 428.837 527.868 429.547 527.456 430.182C527.049 430.816 526.453 431.321 525.667 431.695C524.885 432.069 523.936 432.256 522.819 432.256C521.777 432.256 520.875 432.088 520.113 431.751C519.355 431.415 518.759 430.946 518.323 430.345C517.892 429.744 517.648 429.045 517.591 428.25H519.41C519.457 428.799 519.642 429.254 519.964 429.614C520.29 429.969 520.702 430.234 521.199 430.409C521.701 430.58 522.241 430.665 522.819 430.665C523.491 430.665 524.095 430.556 524.63 430.338C525.165 430.116 525.589 429.808 525.901 429.415C526.214 429.017 526.37 428.553 526.37 428.023C526.37 427.54 526.235 427.147 525.965 426.844C525.695 426.541 525.34 426.295 524.9 426.105C524.459 425.916 523.983 425.75 523.472 425.608L521.682 425.097C520.546 424.77 519.646 424.304 518.983 423.697C518.321 423.091 517.989 422.298 517.989 421.318C517.989 420.504 518.209 419.794 518.65 419.188C519.095 418.577 519.691 418.103 520.439 417.767C521.192 417.426 522.033 417.256 522.961 417.256C523.898 417.256 524.732 417.424 525.461 417.76C526.19 418.091 526.768 418.546 527.194 419.124C527.625 419.701 527.852 420.357 527.876 421.091H526.171ZM533.953 432.256C533.262 432.256 532.635 432.125 532.071 431.865C531.508 431.6 531.06 431.219 530.729 430.722C530.397 430.22 530.232 429.614 530.232 428.903C530.232 428.278 530.355 427.772 530.601 427.384C530.847 426.991 531.176 426.683 531.588 426.46C532 426.238 532.455 426.072 532.952 425.963C533.454 425.849 533.958 425.759 534.465 425.693C535.128 425.608 535.665 425.544 536.077 425.501C536.494 425.454 536.797 425.376 536.986 425.267C537.18 425.158 537.277 424.969 537.277 424.699V424.642C537.277 423.941 537.085 423.397 536.702 423.009C536.323 422.62 535.748 422.426 534.976 422.426C534.176 422.426 533.548 422.601 533.094 422.952C532.639 423.302 532.32 423.676 532.135 424.074L530.544 423.506C530.828 422.843 531.207 422.327 531.681 421.957C532.159 421.583 532.68 421.323 533.243 421.176C533.811 421.025 534.37 420.949 534.919 420.949C535.27 420.949 535.672 420.991 536.127 421.077C536.586 421.157 537.029 421.325 537.455 421.581C537.886 421.837 538.243 422.223 538.527 422.739C538.811 423.255 538.953 423.946 538.953 424.812V432H537.277V430.523H537.192C537.078 430.759 536.889 431.013 536.624 431.283C536.359 431.553 536.006 431.782 535.566 431.972C535.125 432.161 534.588 432.256 533.953 432.256ZM534.209 430.75C534.872 430.75 535.431 430.62 535.885 430.359C536.344 430.099 536.69 429.763 536.922 429.351C537.159 428.939 537.277 428.506 537.277 428.051V426.517C537.206 426.602 537.05 426.68 536.808 426.751C536.572 426.818 536.297 426.877 535.985 426.929C535.677 426.976 535.376 427.019 535.083 427.057C534.794 427.09 534.559 427.118 534.379 427.142C533.944 427.199 533.537 427.291 533.158 427.419C532.784 427.542 532.481 427.729 532.249 427.98C532.021 428.226 531.908 428.562 531.908 428.989C531.908 429.571 532.123 430.011 532.554 430.31C532.99 430.603 533.541 430.75 534.209 430.75ZM543.689 417.455V432H542.013V417.455H543.689ZM555.679 421.091L551.645 432H549.941L545.906 421.091H547.725L550.736 429.784H550.85L553.861 421.091H555.679ZM560.77 432.256C560.078 432.256 559.451 432.125 558.888 431.865C558.324 431.6 557.877 431.219 557.545 430.722C557.214 430.22 557.048 429.614 557.048 428.903C557.048 428.278 557.171 427.772 557.417 427.384C557.664 426.991 557.993 426.683 558.405 426.46C558.817 426.238 559.271 426.072 559.768 425.963C560.27 425.849 560.774 425.759 561.281 425.693C561.944 425.608 562.481 425.544 562.893 425.501C563.31 425.454 563.613 425.376 563.802 425.267C563.997 425.158 564.094 424.969 564.094 424.699V424.642C564.094 423.941 563.902 423.397 563.518 423.009C563.14 422.62 562.564 422.426 561.792 422.426C560.992 422.426 560.365 422.601 559.91 422.952C559.456 423.302 559.136 423.676 558.952 424.074L557.361 423.506C557.645 422.843 558.023 422.327 558.497 421.957C558.975 421.583 559.496 421.323 560.059 421.176C560.628 421.025 561.186 420.949 561.736 420.949C562.086 420.949 562.488 420.991 562.943 421.077C563.402 421.157 563.845 421.325 564.271 421.581C564.702 421.837 565.059 422.223 565.344 422.739C565.628 423.255 565.77 423.946 565.77 424.812V432H564.094V430.523H564.008C563.895 430.759 563.705 431.013 563.44 431.283C563.175 431.553 562.822 431.782 562.382 431.972C561.942 432.161 561.404 432.256 560.77 432.256ZM561.025 430.75C561.688 430.75 562.247 430.62 562.702 430.359C563.161 430.099 563.506 429.763 563.738 429.351C563.975 428.939 564.094 428.506 564.094 428.051V426.517C564.023 426.602 563.866 426.68 563.625 426.751C563.388 426.818 563.113 426.877 562.801 426.929C562.493 426.976 562.193 427.019 561.899 427.057C561.61 427.09 561.376 427.118 561.196 427.142C560.76 427.199 560.353 427.291 559.974 427.419C559.6 427.542 559.297 427.729 559.065 427.98C558.838 428.226 558.724 428.562 558.724 428.989C558.724 429.571 558.94 430.011 559.371 430.31C559.806 430.603 560.358 430.75 561.025 430.75ZM573.232 436.318C572.423 436.318 571.727 436.214 571.144 436.006C570.562 435.802 570.077 435.532 569.688 435.196C569.305 434.865 568.999 434.509 568.772 434.131L570.107 433.193C570.259 433.392 570.451 433.619 570.683 433.875C570.915 434.135 571.232 434.36 571.634 434.55C572.042 434.744 572.574 434.841 573.232 434.841C574.113 434.841 574.84 434.628 575.413 434.202C575.986 433.776 576.272 433.108 576.272 432.199V429.983H576.13C576.007 430.182 575.832 430.428 575.605 430.722C575.382 431.01 575.06 431.268 574.639 431.496C574.222 431.718 573.659 431.83 572.948 431.83C572.068 431.83 571.277 431.621 570.576 431.205C569.88 430.788 569.329 430.182 568.921 429.386C568.519 428.591 568.318 427.625 568.318 426.489C568.318 425.371 568.514 424.398 568.907 423.57C569.3 422.736 569.847 422.092 570.548 421.638C571.249 421.179 572.058 420.949 572.977 420.949C573.687 420.949 574.25 421.067 574.667 421.304C575.088 421.536 575.41 421.801 575.633 422.099C575.86 422.393 576.035 422.634 576.159 422.824H576.329V421.091H577.948V432.312C577.948 433.25 577.735 434.012 577.309 434.599C576.888 435.191 576.32 435.625 575.605 435.899C574.894 436.179 574.104 436.318 573.232 436.318ZM573.176 430.324C573.848 430.324 574.416 430.17 574.88 429.862C575.344 429.554 575.697 429.112 575.938 428.534C576.18 427.956 576.301 427.265 576.301 426.46C576.301 425.674 576.182 424.981 575.945 424.379C575.709 423.778 575.358 423.307 574.894 422.966C574.43 422.625 573.857 422.455 573.176 422.455C572.465 422.455 571.874 422.634 571.4 422.994C570.931 423.354 570.579 423.837 570.342 424.443C570.11 425.049 569.994 425.722 569.994 426.46C569.994 427.218 570.112 427.888 570.349 428.47C570.59 429.048 570.945 429.502 571.414 429.834C571.888 430.161 572.475 430.324 573.176 430.324ZM585.59 432.227C584.539 432.227 583.633 431.995 582.87 431.531C582.113 431.062 581.528 430.409 581.116 429.571C580.709 428.728 580.505 427.748 580.505 426.631C580.505 425.513 580.709 424.528 581.116 423.676C581.528 422.819 582.101 422.152 582.835 421.673C583.573 421.19 584.435 420.949 585.42 420.949C585.988 420.949 586.549 421.044 587.103 421.233C587.657 421.422 588.161 421.73 588.616 422.156C589.07 422.578 589.433 423.136 589.703 423.832C589.972 424.528 590.107 425.385 590.107 426.403V427.114H581.698V425.665H588.403C588.403 425.049 588.28 424.5 588.034 424.017C587.792 423.534 587.446 423.153 586.997 422.874C586.552 422.594 586.026 422.455 585.42 422.455C584.752 422.455 584.175 422.62 583.687 422.952C583.204 423.278 582.832 423.705 582.572 424.23C582.311 424.756 582.181 425.319 582.181 425.92V426.886C582.181 427.71 582.323 428.409 582.607 428.982C582.896 429.55 583.296 429.983 583.808 430.281C584.319 430.575 584.913 430.722 585.59 430.722C586.031 430.722 586.428 430.66 586.784 430.537C587.143 430.409 587.454 430.22 587.714 429.969C587.974 429.713 588.176 429.396 588.318 429.017L589.937 429.472C589.767 430.021 589.48 430.504 589.078 430.92C588.675 431.332 588.178 431.654 587.586 431.886C586.994 432.114 586.329 432.227 585.59 432.227ZM596.776 432.227C595.867 432.227 595.065 431.998 594.369 431.538C593.673 431.074 593.128 430.421 592.735 429.578C592.342 428.731 592.146 427.729 592.146 426.574C592.146 425.428 592.342 424.434 592.735 423.591C593.128 422.748 593.675 422.097 594.376 421.638C595.077 421.179 595.886 420.949 596.805 420.949C597.515 420.949 598.076 421.067 598.488 421.304C598.905 421.536 599.222 421.801 599.44 422.099C599.662 422.393 599.835 422.634 599.958 422.824H600.1V417.455H601.776V432H600.157V430.324H599.958C599.835 430.523 599.66 430.774 599.433 431.077C599.205 431.375 598.881 431.643 598.46 431.879C598.038 432.111 597.477 432.227 596.776 432.227ZM597.004 430.722C597.676 430.722 598.244 430.546 598.708 430.196C599.172 429.841 599.525 429.351 599.767 428.726C600.008 428.096 600.129 427.369 600.129 426.545C600.129 425.731 600.01 425.018 599.774 424.408C599.537 423.792 599.186 423.314 598.722 422.973C598.258 422.627 597.686 422.455 597.004 422.455C596.294 422.455 595.702 422.637 595.228 423.001C594.759 423.361 594.407 423.851 594.17 424.472C593.938 425.087 593.822 425.778 593.822 426.545C593.822 427.322 593.94 428.027 594.177 428.662C594.419 429.292 594.774 429.794 595.242 430.168C595.716 430.537 596.303 430.722 597.004 430.722ZM518.174 456H513.685V441.455H518.373C519.784 441.455 520.991 441.746 521.995 442.328C522.999 442.906 523.768 443.737 524.303 444.821C524.838 445.901 525.106 447.193 525.106 448.699C525.106 450.214 524.836 451.518 524.296 452.612C523.756 453.701 522.97 454.539 521.938 455.126C520.906 455.709 519.651 456 518.174 456ZM515.447 454.438H518.06C519.263 454.438 520.26 454.205 521.05 453.741C521.841 453.277 522.43 452.617 522.819 451.76C523.207 450.903 523.401 449.883 523.401 448.699C523.401 447.525 523.209 446.514 522.826 445.666C522.442 444.814 521.869 444.161 521.107 443.706C520.345 443.247 519.395 443.017 518.259 443.017H515.447V454.438ZM527.973 441.455L532.291 453.699H532.462L536.78 441.455H538.627L533.286 456H531.468L526.127 441.455H527.973ZM545.381 456H540.892V441.455H545.58C546.991 441.455 548.198 441.746 549.202 442.328C550.206 442.906 550.975 443.737 551.51 444.821C552.045 445.901 552.313 447.193 552.313 448.699C552.313 450.214 552.043 451.518 551.503 452.612C550.963 453.701 550.177 454.539 549.145 455.126C548.113 455.709 546.858 456 545.381 456ZM542.654 454.438H545.267C546.47 454.438 547.467 454.205 548.257 453.741C549.048 453.277 549.637 452.617 550.026 451.76C550.414 450.903 550.608 449.883 550.608 448.699C550.608 447.525 550.416 446.514 550.033 445.666C549.649 444.814 549.076 444.161 548.314 443.706C547.552 443.247 546.602 443.017 545.466 443.017H542.654V454.438ZM565.381 456H560.892V441.455H565.58C566.991 441.455 568.198 441.746 569.202 442.328C570.206 442.906 570.975 443.737 571.51 444.821C572.045 445.901 572.313 447.193 572.313 448.699C572.313 450.214 572.043 451.518 571.503 452.612C570.963 453.701 570.177 454.539 569.145 455.126C568.113 455.709 566.858 456 565.381 456ZM562.654 454.438H565.267C566.47 454.438 567.467 454.205 568.257 453.741C569.048 453.277 569.637 452.617 570.026 451.76C570.414 450.903 570.608 449.883 570.608 448.699C570.608 447.525 570.416 446.514 570.033 445.666C569.649 444.814 569.076 444.161 568.314 443.706C567.552 443.247 566.602 443.017 565.466 443.017H562.654V454.438ZM575.04 456V445.091H576.659V446.739H576.773C576.972 446.199 577.332 445.761 577.852 445.425C578.373 445.089 578.96 444.92 579.614 444.92C579.737 444.92 579.891 444.923 580.075 444.928C580.26 444.932 580.4 444.939 580.494 444.949V446.653C580.438 446.639 580.307 446.618 580.104 446.589C579.905 446.556 579.694 446.54 579.472 446.54C578.941 446.54 578.468 446.651 578.051 446.874C577.639 447.091 577.313 447.394 577.071 447.783C576.834 448.166 576.716 448.604 576.716 449.097V456H575.04ZM582.481 456V445.091H584.157V456H582.481ZM583.334 443.273C583.007 443.273 582.725 443.161 582.488 442.939C582.256 442.716 582.14 442.449 582.14 442.136C582.14 441.824 582.256 441.556 582.488 441.334C582.725 441.111 583.007 441 583.334 441C583.66 441 583.94 441.111 584.172 441.334C584.408 441.556 584.527 441.824 584.527 442.136C584.527 442.449 584.408 442.716 584.172 442.939C583.94 443.161 583.66 443.273 583.334 443.273ZM596.148 445.091L592.114 456H590.409L586.375 445.091H588.193L591.205 453.784H591.318L594.33 445.091H596.148ZM602.544 456.227C601.492 456.227 600.586 455.995 599.823 455.531C599.066 455.062 598.481 454.409 598.069 453.571C597.662 452.728 597.458 451.748 597.458 450.631C597.458 449.513 597.662 448.528 598.069 447.676C598.481 446.819 599.054 446.152 599.788 445.673C600.526 445.19 601.388 444.949 602.373 444.949C602.941 444.949 603.502 445.044 604.056 445.233C604.61 445.422 605.115 445.73 605.569 446.156C606.024 446.578 606.386 447.136 606.656 447.832C606.926 448.528 607.061 449.385 607.061 450.403V451.114H598.651V449.665H605.356C605.356 449.049 605.233 448.5 604.987 448.017C604.745 447.534 604.4 447.153 603.95 446.874C603.505 446.594 602.979 446.455 602.373 446.455C601.705 446.455 601.128 446.62 600.64 446.952C600.157 447.278 599.785 447.705 599.525 448.23C599.265 448.756 599.134 449.319 599.134 449.92V450.886C599.134 451.71 599.276 452.409 599.561 452.982C599.849 453.55 600.249 453.983 600.761 454.281C601.272 454.575 601.866 454.722 602.544 454.722C602.984 454.722 603.382 454.66 603.737 454.537C604.097 454.409 604.407 454.22 604.667 453.969C604.927 453.713 605.129 453.396 605.271 453.017L606.89 453.472C606.72 454.021 606.433 454.504 606.031 454.92C605.628 455.332 605.131 455.654 604.539 455.886C603.947 456.114 603.282 456.227 602.544 456.227Z" fill="white"/>
<rect x="486" y="209" width="148" height="78" rx="15" stroke="white" stroke-width="2"/>
<path d="M528.778 240.455H530.539V250.085C530.539 251.08 530.305 251.967 529.836 252.749C529.372 253.525 528.716 254.138 527.868 254.588C527.021 255.033 526.027 255.256 524.885 255.256C523.744 255.256 522.75 255.033 521.903 254.588C521.055 254.138 520.397 253.525 519.928 252.749C519.464 251.967 519.232 251.08 519.232 250.085V240.455H520.993V249.943C520.993 250.653 521.15 251.286 521.462 251.839C521.775 252.389 522.22 252.822 522.797 253.139C523.38 253.452 524.076 253.608 524.885 253.608C525.695 253.608 526.391 253.452 526.974 253.139C527.556 252.822 528.001 252.389 528.309 251.839C528.621 251.286 528.778 250.653 528.778 249.943V240.455ZM542.011 244.091C541.926 243.371 541.58 242.812 540.974 242.415C540.368 242.017 539.624 241.818 538.744 241.818C538.1 241.818 537.536 241.922 537.053 242.131C536.575 242.339 536.201 242.625 535.931 242.99C535.666 243.355 535.534 243.769 535.534 244.233C535.534 244.621 535.626 244.955 535.811 245.234C536 245.509 536.241 245.739 536.535 245.923C536.829 246.103 537.136 246.252 537.458 246.371C537.78 246.484 538.076 246.577 538.346 246.648L539.823 247.045C540.202 247.145 540.624 247.282 541.088 247.457C541.556 247.633 542.004 247.872 542.43 248.175C542.861 248.473 543.216 248.857 543.495 249.325C543.775 249.794 543.914 250.369 543.914 251.051C543.914 251.837 543.708 252.547 543.296 253.182C542.889 253.816 542.293 254.321 541.507 254.695C540.725 255.069 539.776 255.256 538.659 255.256C537.617 255.256 536.715 255.088 535.953 254.751C535.195 254.415 534.598 253.946 534.163 253.345C533.732 252.744 533.488 252.045 533.431 251.25H535.249C535.297 251.799 535.481 252.254 535.803 252.614C536.13 252.969 536.542 253.234 537.039 253.409C537.541 253.58 538.081 253.665 538.659 253.665C539.331 253.665 539.935 253.556 540.47 253.338C541.005 253.116 541.428 252.808 541.741 252.415C542.053 252.017 542.21 251.553 542.21 251.023C542.21 250.54 542.075 250.147 541.805 249.844C541.535 249.541 541.18 249.295 540.74 249.105C540.299 248.916 539.823 248.75 539.312 248.608L537.522 248.097C536.386 247.77 535.486 247.304 534.823 246.697C534.16 246.091 533.829 245.298 533.829 244.318C533.829 243.504 534.049 242.794 534.49 242.188C534.935 241.577 535.531 241.103 536.279 240.767C537.032 240.426 537.873 240.256 538.801 240.256C539.738 240.256 540.571 240.424 541.301 240.76C542.03 241.091 542.607 241.546 543.034 242.124C543.464 242.701 543.692 243.357 543.715 244.091H542.011ZM546.81 255V240.455H551.895C552.909 240.455 553.744 240.63 554.403 240.98C555.061 241.326 555.551 241.792 555.873 242.379C556.195 242.962 556.356 243.608 556.356 244.318C556.356 244.943 556.244 245.459 556.022 245.866C555.804 246.274 555.515 246.596 555.155 246.832C554.8 247.069 554.414 247.244 553.998 247.358V247.5C554.443 247.528 554.89 247.685 555.34 247.969C555.79 248.253 556.166 248.66 556.469 249.19C556.772 249.721 556.924 250.369 556.924 251.136C556.924 251.866 556.758 252.521 556.427 253.104C556.095 253.686 555.572 254.148 554.857 254.489C554.142 254.83 553.212 255 552.066 255H546.81ZM548.572 253.438H552.066C553.216 253.438 554.033 253.215 554.516 252.77C555.004 252.32 555.248 251.776 555.248 251.136C555.248 250.644 555.122 250.189 554.871 249.773C554.62 249.351 554.263 249.015 553.799 248.764C553.335 248.509 552.786 248.381 552.151 248.381H548.572V253.438ZM548.572 246.847H551.839C552.369 246.847 552.847 246.742 553.273 246.534C553.704 246.326 554.045 246.032 554.296 245.653C554.552 245.275 554.68 244.83 554.68 244.318C554.68 243.679 554.457 243.137 554.012 242.692C553.567 242.242 552.861 242.017 551.895 242.017H548.572V246.847ZM565.443 255V240.455H567.204V246.932H574.96V240.455H576.721V255H574.96V248.494H567.204V255H565.443ZM586.895 250.54V244.091H588.572V255H586.895V253.153H586.782C586.526 253.707 586.128 254.179 585.589 254.567C585.049 254.95 584.367 255.142 583.543 255.142C582.861 255.142 582.255 254.993 581.725 254.695C581.195 254.392 580.778 253.937 580.475 253.331C580.172 252.72 580.02 251.951 580.02 251.023V244.091H581.697V250.909C581.697 251.705 581.919 252.339 582.364 252.812C582.814 253.286 583.387 253.523 584.083 253.523C584.5 253.523 584.923 253.416 585.354 253.203C585.79 252.99 586.154 252.663 586.448 252.223C586.746 251.783 586.895 251.222 586.895 250.54ZM591.869 255V240.455H593.545V245.824H593.687C593.81 245.634 593.981 245.393 594.198 245.099C594.421 244.801 594.738 244.536 595.15 244.304C595.567 244.067 596.13 243.949 596.84 243.949C597.759 243.949 598.569 244.179 599.269 244.638C599.97 245.097 600.517 245.748 600.91 246.591C601.303 247.434 601.499 248.428 601.499 249.574C601.499 250.729 601.303 251.731 600.91 252.578C600.517 253.421 599.972 254.074 599.276 254.538C598.58 254.998 597.778 255.227 596.869 255.227C596.168 255.227 595.607 255.111 595.186 254.879C594.764 254.643 594.44 254.375 594.213 254.077C593.985 253.774 593.81 253.523 593.687 253.324H593.488V255H591.869ZM593.517 249.545C593.517 250.369 593.637 251.096 593.879 251.726C594.12 252.351 594.473 252.841 594.937 253.196C595.401 253.546 595.969 253.722 596.642 253.722C597.342 253.722 597.927 253.537 598.396 253.168C598.869 252.794 599.224 252.292 599.461 251.662C599.703 251.027 599.823 250.322 599.823 249.545C599.823 248.778 599.705 248.087 599.468 247.472C599.236 246.851 598.883 246.361 598.41 246.001C597.941 245.637 597.352 245.455 596.642 245.455C595.96 245.455 595.387 245.627 594.923 245.973C594.459 246.314 594.108 246.792 593.872 247.408C593.635 248.018 593.517 248.731 593.517 249.545Z" fill="white"/>
<rect x="142" y="164" width="168" height="168" rx="15" stroke="white" stroke-width="2"/>
<path d="M167.673 255V240.455H172.588C173.725 240.455 174.657 240.649 175.387 241.037C176.116 241.42 176.655 241.948 177.006 242.621C177.356 243.293 177.531 244.058 177.531 244.915C177.531 245.772 177.356 246.532 177.006 247.195C176.655 247.857 176.118 248.378 175.394 248.757C174.669 249.131 173.744 249.318 172.617 249.318H168.639V247.727H172.56C173.336 247.727 173.961 247.614 174.435 247.386C174.913 247.159 175.259 246.837 175.472 246.42C175.69 245.999 175.798 245.497 175.798 244.915C175.798 244.332 175.69 243.823 175.472 243.388C175.254 242.952 174.906 242.616 174.428 242.379C173.95 242.138 173.317 242.017 172.531 242.017H169.435V255H167.673ZM174.52 248.466L178.1 255H176.054L172.531 248.466H174.52ZM183.449 255.256C182.758 255.256 182.131 255.125 181.567 254.865C181.004 254.6 180.556 254.219 180.225 253.722C179.894 253.22 179.728 252.614 179.728 251.903C179.728 251.278 179.851 250.772 180.097 250.384C180.343 249.991 180.672 249.683 181.084 249.46C181.496 249.238 181.951 249.072 182.448 248.963C182.95 248.849 183.454 248.759 183.961 248.693C184.624 248.608 185.161 248.544 185.573 248.501C185.99 248.454 186.293 248.376 186.482 248.267C186.676 248.158 186.773 247.969 186.773 247.699V247.642C186.773 246.941 186.581 246.397 186.198 246.009C185.819 245.62 185.244 245.426 184.472 245.426C183.672 245.426 183.045 245.601 182.59 245.952C182.135 246.302 181.816 246.676 181.631 247.074L180.04 246.506C180.324 245.843 180.703 245.327 181.177 244.957C181.655 244.583 182.176 244.323 182.739 244.176C183.307 244.025 183.866 243.949 184.415 243.949C184.766 243.949 185.168 243.991 185.623 244.077C186.082 244.157 186.525 244.325 186.951 244.581C187.382 244.837 187.739 245.223 188.023 245.739C188.307 246.255 188.449 246.946 188.449 247.812V255H186.773V253.523H186.688C186.574 253.759 186.385 254.013 186.12 254.283C185.855 254.553 185.502 254.782 185.062 254.972C184.621 255.161 184.084 255.256 183.449 255.256ZM183.705 253.75C184.368 253.75 184.927 253.62 185.381 253.359C185.84 253.099 186.186 252.763 186.418 252.351C186.655 251.939 186.773 251.506 186.773 251.051V249.517C186.702 249.602 186.546 249.68 186.305 249.751C186.068 249.818 185.793 249.877 185.481 249.929C185.173 249.976 184.872 250.019 184.579 250.057C184.29 250.09 184.055 250.118 183.876 250.142C183.44 250.199 183.033 250.291 182.654 250.419C182.28 250.542 181.977 250.729 181.745 250.98C181.518 251.226 181.404 251.562 181.404 251.989C181.404 252.571 181.619 253.011 182.05 253.31C182.486 253.603 183.037 253.75 183.705 253.75ZM199.236 246.534L197.73 246.96C197.636 246.709 197.496 246.465 197.311 246.229C197.131 245.987 196.885 245.788 196.573 245.632C196.26 245.476 195.86 245.398 195.372 245.398C194.705 245.398 194.148 245.552 193.703 245.859C193.263 246.162 193.043 246.548 193.043 247.017C193.043 247.434 193.194 247.763 193.497 248.004C193.8 248.246 194.274 248.447 194.918 248.608L196.537 249.006C197.512 249.242 198.239 249.605 198.718 250.092C199.196 250.575 199.435 251.198 199.435 251.96C199.435 252.585 199.255 253.144 198.895 253.636C198.54 254.129 198.043 254.517 197.404 254.801C196.764 255.085 196.021 255.227 195.173 255.227C194.061 255.227 193.14 254.986 192.411 254.503C191.682 254.02 191.22 253.314 191.026 252.386L192.617 251.989C192.768 252.576 193.055 253.016 193.476 253.31C193.902 253.603 194.459 253.75 195.145 253.75C195.926 253.75 196.547 253.584 197.006 253.253C197.47 252.917 197.702 252.514 197.702 252.045C197.702 251.667 197.569 251.349 197.304 251.094C197.039 250.833 196.632 250.639 196.083 250.511L194.264 250.085C193.265 249.848 192.531 249.482 192.063 248.984C191.599 248.482 191.367 247.855 191.367 247.102C191.367 246.487 191.539 245.942 191.885 245.469C192.235 244.995 192.711 244.624 193.313 244.354C193.919 244.084 194.605 243.949 195.372 243.949C196.452 243.949 197.299 244.186 197.915 244.659C198.535 245.133 198.976 245.758 199.236 246.534ZM201.958 259.091V244.091H203.577V245.824H203.776C203.899 245.634 204.07 245.393 204.287 245.099C204.51 244.801 204.827 244.536 205.239 244.304C205.656 244.067 206.219 243.949 206.93 243.949C207.848 243.949 208.658 244.179 209.358 244.638C210.059 245.097 210.606 245.748 210.999 246.591C211.392 247.434 211.589 248.428 211.589 249.574C211.589 250.729 211.392 251.731 210.999 252.578C210.606 253.421 210.062 254.074 209.366 254.538C208.67 254.998 207.867 255.227 206.958 255.227C206.257 255.227 205.696 255.111 205.275 254.879C204.853 254.643 204.529 254.375 204.302 254.077C204.074 253.774 203.899 253.523 203.776 253.324H203.634V259.091H201.958ZM203.606 249.545C203.606 250.369 203.726 251.096 203.968 251.726C204.209 252.351 204.562 252.841 205.026 253.196C205.49 253.546 206.058 253.722 206.731 253.722C207.431 253.722 208.016 253.537 208.485 253.168C208.958 252.794 209.314 252.292 209.55 251.662C209.792 251.027 209.912 250.322 209.912 249.545C209.912 248.778 209.794 248.087 209.557 247.472C209.325 246.851 208.973 246.361 208.499 246.001C208.03 245.637 207.441 245.455 206.731 245.455C206.049 245.455 205.476 245.627 205.012 245.973C204.548 246.314 204.198 246.792 203.961 247.408C203.724 248.018 203.606 248.731 203.606 249.545ZM214.373 255V240.455H216.049V245.824H216.191C216.314 245.634 216.484 245.393 216.702 245.099C216.925 244.801 217.242 244.536 217.654 244.304C218.071 244.067 218.634 243.949 219.344 243.949C220.263 243.949 221.073 244.179 221.773 244.638C222.474 245.097 223.021 245.748 223.414 246.591C223.807 247.434 224.003 248.428 224.003 249.574C224.003 250.729 223.807 251.731 223.414 252.578C223.021 253.421 222.476 254.074 221.78 254.538C221.084 254.998 220.282 255.227 219.373 255.227C218.672 255.227 218.111 255.111 217.689 254.879C217.268 254.643 216.944 254.375 216.716 254.077C216.489 253.774 216.314 253.523 216.191 253.324H215.992V255H214.373ZM216.02 249.545C216.02 250.369 216.141 251.096 216.383 251.726C216.624 252.351 216.977 252.841 217.441 253.196C217.905 253.546 218.473 253.722 219.145 253.722C219.846 253.722 220.431 253.537 220.9 253.168C221.373 252.794 221.728 252.292 221.965 251.662C222.206 251.027 222.327 250.322 222.327 249.545C222.327 248.778 222.209 248.087 221.972 247.472C221.74 246.851 221.387 246.361 220.914 246.001C220.445 245.637 219.856 245.455 219.145 245.455C218.464 245.455 217.891 245.627 217.427 245.973C216.963 246.314 216.612 246.792 216.376 247.408C216.139 248.018 216.02 248.731 216.02 249.545ZM231.141 255.227C230.09 255.227 229.183 254.995 228.421 254.531C227.663 254.062 227.079 253.409 226.667 252.571C226.26 251.728 226.056 250.748 226.056 249.631C226.056 248.513 226.26 247.528 226.667 246.676C227.079 245.819 227.652 245.152 228.385 244.673C229.124 244.19 229.986 243.949 230.971 243.949C231.539 243.949 232.1 244.044 232.654 244.233C233.208 244.422 233.712 244.73 234.167 245.156C234.621 245.578 234.983 246.136 235.253 246.832C235.523 247.528 235.658 248.385 235.658 249.403V250.114H227.249V248.665H233.954C233.954 248.049 233.831 247.5 233.584 247.017C233.343 246.534 232.997 246.153 232.547 245.874C232.102 245.594 231.577 245.455 230.971 245.455C230.303 245.455 229.725 245.62 229.238 245.952C228.755 246.278 228.383 246.705 228.123 247.23C227.862 247.756 227.732 248.319 227.732 248.92V249.886C227.732 250.71 227.874 251.409 228.158 251.982C228.447 252.55 228.847 252.983 229.358 253.281C229.87 253.575 230.464 253.722 231.141 253.722C231.581 253.722 231.979 253.66 232.334 253.537C232.694 253.409 233.004 253.22 233.265 252.969C233.525 252.713 233.726 252.396 233.868 252.017L235.488 252.472C235.317 253.021 235.031 253.504 234.628 253.92C234.226 254.332 233.729 254.654 233.137 254.886C232.545 255.114 231.88 255.227 231.141 255.227ZM238.208 255V244.091H239.827V245.739H239.941C240.14 245.199 240.5 244.761 241.02 244.425C241.541 244.089 242.128 243.92 242.782 243.92C242.905 243.92 243.059 243.923 243.243 243.928C243.428 243.932 243.568 243.939 243.662 243.949V245.653C243.606 245.639 243.475 245.618 243.272 245.589C243.073 245.556 242.862 245.54 242.64 245.54C242.109 245.54 241.636 245.651 241.219 245.874C240.807 246.091 240.481 246.394 240.239 246.783C240.002 247.166 239.884 247.604 239.884 248.097V255H238.208ZM245.649 255V244.091H247.269V245.739H247.382C247.581 245.199 247.941 244.761 248.462 244.425C248.983 244.089 249.57 243.92 250.223 243.92C250.346 243.92 250.5 243.923 250.685 243.928C250.869 243.932 251.009 243.939 251.104 243.949V245.653C251.047 245.639 250.917 245.618 250.713 245.589C250.514 245.556 250.304 245.54 250.081 245.54C249.551 245.54 249.077 245.651 248.661 245.874C248.249 246.091 247.922 246.394 247.681 246.783C247.444 247.166 247.325 247.604 247.325 248.097V255H245.649ZM254.502 259.091C254.218 259.091 253.965 259.067 253.742 259.02C253.52 258.977 253.366 258.935 253.281 258.892L253.707 257.415C254.114 257.519 254.474 257.557 254.786 257.528C255.099 257.5 255.376 257.36 255.617 257.109C255.864 256.863 256.088 256.463 256.292 255.909L256.605 255.057L252.57 244.091H254.389L257.4 252.784H257.514L260.525 244.091H262.343L257.713 256.591C257.504 257.154 257.246 257.621 256.938 257.99C256.631 258.364 256.273 258.641 255.866 258.821C255.463 259.001 255.009 259.091 254.502 259.091ZM270.408 255V240.455H275.323C276.464 240.455 277.396 240.661 278.121 241.072C278.85 241.48 279.39 242.031 279.74 242.727C280.091 243.423 280.266 244.2 280.266 245.057C280.266 245.914 280.091 246.693 279.74 247.393C279.395 248.094 278.86 248.653 278.135 249.07C277.411 249.482 276.483 249.688 275.351 249.688H271.828V248.125H275.294C276.075 248.125 276.703 247.99 277.176 247.72C277.65 247.45 277.993 247.086 278.206 246.626C278.424 246.162 278.533 245.639 278.533 245.057C278.533 244.474 278.424 243.954 278.206 243.494C277.993 243.035 277.647 242.675 277.169 242.415C276.691 242.15 276.057 242.017 275.266 242.017H272.169V255H270.408ZM282.876 255V244.091H284.552V255H282.876ZM283.728 242.273C283.401 242.273 283.12 242.161 282.883 241.939C282.651 241.716 282.535 241.449 282.535 241.136C282.535 240.824 282.651 240.556 282.883 240.334C283.12 240.111 283.401 240 283.728 240C284.055 240 284.334 240.111 284.566 240.334C284.803 240.556 284.921 240.824 284.921 241.136C284.921 241.449 284.803 241.716 284.566 241.939C284.334 242.161 284.055 242.273 283.728 242.273Z" fill="white"/>
<g clip-path="url(#clip0_10_709)">
<path d="M93 314.094L93 318.582L78.4546 318.582L78.4546 313.895C78.4546 312.484 78.7457 311.277 79.3281 310.273C79.9058 309.269 80.7367 308.5 81.821 307.964C82.9006 307.429 84.1932 307.162 85.6989 307.162C87.214 307.162 88.5185 307.432 89.6122 307.972C90.7012 308.511 91.5393 309.297 92.1264 310.33C92.7088 311.362 93 312.616 93 314.094ZM91.4375 316.821L91.4375 314.207C91.4375 313.005 91.2055 312.008 90.7415 311.217C90.2775 310.427 89.617 309.837 88.76 309.449C87.9029 309.061 86.8826 308.866 85.6989 308.866C84.5246 308.866 83.5137 309.058 82.6662 309.442C81.8139 309.825 81.1605 310.398 80.706 311.161C80.2467 311.923 80.0171 312.872 80.0171 314.009L80.0171 316.821L91.4375 316.821ZM93 304.435L82.0909 304.435L82.0909 302.759L93 302.759L93 304.435ZM80.2727 303.582C80.2727 303.909 80.1615 304.191 79.9389 304.428C79.7164 304.66 79.4489 304.776 79.1364 304.776C78.8239 304.776 78.5564 304.66 78.3338 304.428C78.1113 304.191 78 303.909 78 303.582C78 303.256 78.1113 302.976 78.3338 302.744C78.5564 302.508 78.8239 302.389 79.1364 302.389C79.4489 302.389 79.7164 302.508 79.9389 302.744C80.1615 302.976 80.2727 303.256 80.2727 303.582ZM84.5341 291.961L84.9602 293.467C84.7093 293.562 84.4654 293.701 84.2287 293.886C83.9872 294.066 83.7884 294.312 83.6321 294.625C83.4759 294.937 83.3977 295.337 83.3977 295.825C83.3977 296.493 83.5516 297.049 83.8594 297.494C84.1624 297.934 84.5483 298.154 85.0171 298.154C85.4337 298.154 85.7628 298.003 86.0043 297.7C86.2457 297.397 86.447 296.923 86.608 296.279L87.0057 294.66C87.2424 293.685 87.6046 292.958 88.0923 292.48C88.5753 292.002 89.1979 291.762 89.9602 291.762C90.5852 291.762 91.1439 291.942 91.6364 292.302C92.1288 292.657 92.5171 293.154 92.8011 293.794C93.0852 294.433 93.2273 295.176 93.2273 296.024C93.2273 297.136 92.9858 298.057 92.5028 298.787C92.0199 299.516 91.3144 299.977 90.3864 300.172L89.9886 298.581C90.5758 298.429 91.0161 298.143 91.3097 297.721C91.6032 297.295 91.75 296.739 91.75 296.052C91.75 295.271 91.5843 294.651 91.2528 294.191C90.9167 293.727 90.5142 293.495 90.0455 293.495C89.6667 293.495 89.3494 293.628 89.0938 293.893C88.8333 294.158 88.6392 294.565 88.5114 295.115L88.0852 296.933C87.8485 297.932 87.4815 298.666 86.9844 299.135C86.4825 299.599 85.8551 299.831 85.1023 299.831C84.4867 299.831 83.9422 299.658 83.4688 299.312C82.9953 298.962 82.6236 298.486 82.3537 297.885C82.0838 297.279 81.9489 296.592 81.9489 295.825C81.9489 294.745 82.1856 293.898 82.6591 293.282C83.1326 292.662 83.7576 292.222 84.5341 291.961ZM97.0909 289.239L82.0909 289.239L82.0909 287.62L83.8239 287.62L83.8239 287.421C83.6345 287.298 83.393 287.128 83.0994 286.91C82.8011 286.687 82.536 286.37 82.304 285.958C82.0672 285.541 81.9489 284.978 81.9489 284.268C81.9489 283.349 82.1785 282.54 82.6378 281.839C83.0971 281.138 83.7481 280.591 84.5909 280.198C85.4337 279.805 86.428 279.609 87.5739 279.609C88.7292 279.609 89.7306 279.805 90.5781 280.198C91.4209 280.591 92.0743 281.136 92.5384 281.832C92.9976 282.528 93.2273 283.33 93.2273 284.239C93.2273 284.94 93.1113 285.501 92.8793 285.923C92.6425 286.344 92.375 286.668 92.0767 286.896C91.7737 287.123 91.5227 287.298 91.3239 287.421L91.3239 287.563L97.0909 287.563L97.0909 289.239ZM87.5455 287.592C88.3693 287.592 89.0961 287.471 89.7259 287.229C90.3509 286.988 90.8409 286.635 91.196 286.171C91.5464 285.707 91.7216 285.139 91.7216 284.467C91.7216 283.766 91.5369 283.181 91.1676 282.712C90.7936 282.239 90.2917 281.884 89.6619 281.647C89.0275 281.406 88.322 281.285 87.5455 281.285C86.7784 281.285 86.0871 281.403 85.4716 281.64C84.8513 281.872 84.3613 282.225 84.0014 282.698C83.6368 283.167 83.4546 283.756 83.4546 284.467C83.4546 285.148 83.6274 285.721 83.973 286.185C84.3139 286.649 84.7921 287 85.4077 287.237C86.0185 287.473 86.7311 287.592 87.5455 287.592ZM78.4546 275.376L93 275.376L93 277.052L78.4546 277.052L78.4546 275.376ZM93.2557 269.096C93.2557 269.787 93.1255 270.414 92.8651 270.978C92.5999 271.541 92.2188 271.989 91.7216 272.32C91.2197 272.651 90.6136 272.817 89.9034 272.817C89.2784 272.817 88.7718 272.694 88.3835 272.448C87.9905 272.202 87.6828 271.873 87.4602 271.461C87.2377 271.049 87.072 270.594 86.9631 270.097C86.8494 269.595 86.7595 269.091 86.6932 268.584C86.608 267.921 86.544 267.384 86.5014 266.972C86.4541 266.555 86.376 266.252 86.2671 266.063C86.1581 265.869 85.9688 265.772 85.6989 265.772L85.6421 265.772C84.9413 265.772 84.3968 265.963 84.0085 266.347C83.6203 266.726 83.4261 267.301 83.4261 268.073C83.4261 268.873 83.6013 269.5 83.9517 269.955C84.3021 270.409 84.6761 270.729 85.0739 270.914L84.5057 272.505C83.8428 272.221 83.3267 271.842 82.9574 271.368C82.5833 270.89 82.3229 270.369 82.1761 269.806C82.0246 269.238 81.9489 268.679 81.9489 268.13C81.9489 267.779 81.9915 267.377 82.0767 266.922C82.1572 266.463 82.3253 266.02 82.581 265.594C82.8367 265.163 83.2225 264.806 83.7386 264.522C84.2547 264.238 84.946 264.096 85.8125 264.096L93 264.096L93 265.772L91.5227 265.772L91.5227 265.857C91.7595 265.971 92.0128 266.16 92.2827 266.425C92.5526 266.69 92.7822 267.043 92.9716 267.483C93.161 267.924 93.2557 268.461 93.2557 269.096ZM91.75 268.84C91.75 268.177 91.6198 267.618 91.3594 267.164C91.099 266.704 90.7628 266.359 90.3509 266.127C89.9389 265.89 89.5057 265.772 89.0511 265.772L87.5171 265.772C87.6023 265.843 87.6804 265.999 87.7514 266.24C87.8177 266.477 87.8769 266.752 87.929 267.064C87.9763 267.372 88.0189 267.673 88.0568 267.966C88.09 268.255 88.1184 268.489 88.1421 268.669C88.1989 269.105 88.2912 269.512 88.419 269.891C88.5421 270.265 88.7292 270.568 88.9801 270.8C89.2263 271.027 89.5625 271.141 89.9886 271.141C90.571 271.141 91.0114 270.926 91.3097 270.495C91.6032 270.059 91.75 269.507 91.75 268.84ZM97.0909 260.347C97.0909 260.631 97.0672 260.885 97.0199 261.107C96.9773 261.33 96.9347 261.484 96.8921 261.569L95.4148 261.143C95.5189 260.736 95.5568 260.376 95.5284 260.063C95.5 259.751 95.3603 259.474 95.1094 259.232C94.8632 258.986 94.4631 258.761 93.9091 258.558L93.0568 258.245L82.0909 262.279L82.0909 260.461L90.7841 257.45L90.7841 257.336L82.0909 254.325L82.0909 252.506L94.5909 257.137C95.1544 257.345 95.6207 257.603 95.9901 257.911C96.3641 258.219 96.6411 258.576 96.821 258.984C97.001 259.386 97.0909 259.841 97.0909 260.347ZM77.7727 239.527L95.1875 244.214L95.1875 245.749L77.7727 241.061L77.7727 239.527ZM80.017 232.483L78.4545 232.483L78.4545 221.574L80.017 221.574L80.017 226.148L93 226.148L93 227.909L80.017 227.909L80.017 232.483ZM93.2273 216.233C93.2273 217.218 92.9929 218.082 92.5242 218.826C92.0554 219.564 91.3996 220.142 90.5568 220.559C89.714 220.971 88.7292 221.176 87.6023 221.176C86.4659 221.176 85.474 220.971 84.6264 220.559C83.7789 220.142 83.1207 219.564 82.652 218.826C82.1832 218.082 81.9489 217.218 81.9489 216.233C81.9489 215.248 82.1832 214.387 82.652 213.648C83.1207 212.905 83.7789 212.327 84.6264 211.915C85.474 211.498 86.4659 211.29 87.6023 211.29C88.7292 211.29 89.714 211.498 90.5568 211.915C91.3996 212.327 92.0554 212.905 92.5242 213.648C92.9929 214.387 93.2273 215.248 93.2273 216.233ZM91.7216 216.233C91.7216 215.485 91.5298 214.87 91.1463 214.387C90.7628 213.904 90.2585 213.546 89.6335 213.314C89.0085 213.082 88.3314 212.966 87.6023 212.966C86.8731 212.966 86.1937 213.082 85.5639 213.314C84.9342 213.546 84.4252 213.904 84.0369 214.387C83.6487 214.87 83.4545 215.485 83.4545 216.233C83.4545 216.981 83.6487 217.597 84.0369 218.08C84.4252 218.563 84.9342 218.92 85.5639 219.152C86.1937 219.384 86.8731 219.5 87.6023 219.5C88.3314 219.5 89.0085 219.384 89.6335 219.152C90.2585 218.92 90.7628 218.563 91.1463 218.08C91.5298 217.597 91.7216 216.981 91.7216 216.233ZM88.5398 201.857L82.0909 201.857L82.0909 200.18L93 200.18L93 201.857L91.1534 201.857L91.1534 201.97C91.7074 202.226 92.1785 202.624 92.5668 203.163C92.9503 203.703 93.142 204.385 93.142 205.209C93.142 205.891 92.9929 206.497 92.6946 207.027C92.3916 207.557 91.937 207.974 91.331 208.277C90.7202 208.58 89.9508 208.732 89.0227 208.732L82.0909 208.732L82.0909 207.055L88.9091 207.055C89.7045 207.055 90.339 206.833 90.8125 206.388C91.286 205.938 91.5227 205.365 91.5227 204.669C91.5227 204.252 91.4162 203.829 91.2031 203.398C90.9901 202.962 90.6634 202.598 90.223 202.304C89.7827 202.006 89.2216 201.857 88.5398 201.857ZM93.2273 192.679C93.2273 193.701 92.9858 194.582 92.5028 195.321C92.0199 196.059 91.3546 196.627 90.5071 197.025C89.6596 197.423 88.6913 197.622 87.6023 197.622C86.4943 197.622 85.5166 197.418 84.669 197.011C83.8168 196.599 83.1515 196.026 82.6733 195.292C82.1903 194.554 81.9489 193.692 81.9489 192.707C81.9489 191.94 82.0909 191.249 82.375 190.633C82.6591 190.018 83.0568 189.513 83.5682 189.12C84.0795 188.727 84.6761 188.484 85.358 188.389L85.358 190.065C84.8608 190.193 84.4205 190.477 84.0369 190.917C83.6487 191.353 83.4545 191.94 83.4545 192.679C83.4545 193.332 83.625 193.905 83.9659 194.397C84.3021 194.885 84.7779 195.266 85.3935 195.541C86.0043 195.811 86.7216 195.946 87.5455 195.946C88.3883 195.946 89.1222 195.813 89.7472 195.548C90.3722 195.278 90.8575 194.899 91.2031 194.412C91.5488 193.919 91.7216 193.341 91.7216 192.679C91.7216 192.243 91.6458 191.848 91.4943 191.493C91.3428 191.137 91.125 190.837 90.8409 190.591C90.5568 190.344 90.2159 190.169 89.8182 190.065L89.8182 188.389C90.4621 188.484 91.0421 188.718 91.5582 189.092C92.0696 189.461 92.4768 189.951 92.7798 190.562C93.0781 191.168 93.2273 191.874 93.2273 192.679ZM86.4375 184.262L93 184.262L93 185.939L78.4545 185.939L78.4545 184.262L83.7955 184.262L83.7955 184.12C83.232 183.865 82.7846 183.481 82.4531 182.97C82.117 182.454 81.9489 181.767 81.9489 180.91C81.9489 180.167 82.098 179.516 82.3963 178.957C82.6899 178.398 83.142 177.965 83.7528 177.657C84.3589 177.345 85.1307 177.189 86.0682 177.189L93 177.189L93 178.865L86.1818 178.865C85.3153 178.865 84.6454 179.09 84.1719 179.539C83.6937 179.984 83.4545 180.602 83.4545 181.393C83.4545 181.942 83.5706 182.435 83.8026 182.87C84.0346 183.301 84.3731 183.642 84.8182 183.893C85.2633 184.139 85.803 184.262 86.4375 184.262Z" fill="white"/>
</g>
<rect x="57" y="332" width="168" height="58" rx="15" transform="rotate(-90 57 332)" stroke="white" stroke-width="2"/>
<rect x="496" y="362" width="128" height="36" rx="15" stroke="white" stroke-width="2"/>
<path d="M509.898 378.167C509.911 377.706 509.77 377.353 509.475 377.108C509.183 376.863 508.764 376.74 508.217 376.74C507.833 376.74 507.493 376.798 507.198 376.914C506.906 377.027 506.671 377.184 506.492 377.386C506.313 377.585 506.202 377.812 506.159 378.067C506.122 378.276 506.141 378.459 506.214 378.614C506.287 378.77 506.398 378.903 506.547 379.012C506.699 379.121 506.872 379.213 507.064 379.286C507.259 379.358 507.458 379.42 507.66 379.469L508.575 379.708C508.94 379.798 509.288 379.919 509.619 380.071C509.951 380.22 510.237 380.412 510.479 380.648C510.724 380.88 510.903 381.16 511.016 381.488C511.129 381.816 511.147 382.201 511.071 382.641C510.971 383.238 510.731 383.763 510.35 384.217C509.972 384.668 509.475 385.021 508.858 385.276C508.245 385.528 507.531 385.654 506.716 385.654C505.927 385.654 505.261 385.531 504.717 385.286C504.174 385.038 503.776 384.678 503.524 384.207C503.275 383.737 503.196 383.165 503.285 382.492H505.1C505.064 382.847 505.122 383.142 505.274 383.377C505.43 383.612 505.653 383.788 505.945 383.904C506.237 384.02 506.575 384.078 506.959 384.078C507.36 384.078 507.723 384.018 508.048 383.899C508.373 383.777 508.638 383.607 508.844 383.392C509.052 383.173 509.18 382.918 509.226 382.626C509.273 382.365 509.235 382.146 509.112 381.97C508.989 381.795 508.799 381.649 508.54 381.533C508.285 381.413 507.98 381.307 507.626 381.214L506.522 380.916C505.723 380.697 505.117 380.369 504.702 379.932C504.291 379.494 504.145 378.911 504.265 378.182C504.364 377.579 504.614 377.053 505.015 376.606C505.416 376.155 505.919 375.805 506.522 375.557C507.125 375.305 507.785 375.179 508.501 375.179C509.223 375.179 509.835 375.305 510.335 375.557C510.839 375.809 511.207 376.16 511.439 376.611C511.674 377.058 511.752 377.577 511.672 378.167H509.898ZM513.386 385.5H511.418L516.692 375.318H518.969L520.869 385.5H518.9L517.533 377.406H517.453L513.386 385.5ZM514.112 381.508H519.482L519.233 382.989H513.864L514.112 381.508ZM521.964 376.864L522.222 375.318H530.346L530.087 376.864H526.94L525.508 385.5H523.679L525.111 376.864H521.964ZM530.298 385.5H528.33L533.605 375.318H535.882L537.781 385.5H535.812L534.445 377.406H534.365L530.298 385.5ZM531.024 381.508H536.394L536.145 382.989H530.776L531.024 381.508ZM544.635 379.668L544.392 381.15H539.813L540.056 379.668H544.635ZM555.567 380.528C555.388 381.609 555.035 382.53 554.508 383.293C553.984 384.052 553.344 384.633 552.589 385.038C551.836 385.439 551.026 385.639 550.157 385.639C549.246 385.639 548.464 385.427 547.811 385.003C547.158 384.575 546.687 383.964 546.399 383.168C546.114 382.373 546.064 381.418 546.25 380.305C546.429 379.228 546.78 378.306 547.304 377.54C547.827 376.775 548.469 376.19 549.228 375.786C549.987 375.381 550.805 375.179 551.684 375.179C552.589 375.179 553.364 375.393 554.01 375.82C554.66 376.245 555.127 376.856 555.412 377.655C555.701 378.454 555.752 379.411 555.567 380.528ZM553.752 380.305C553.875 379.552 553.863 378.918 553.717 378.401C553.575 377.884 553.321 377.494 552.956 377.232C552.592 376.967 552.143 376.835 551.609 376.835C551.032 376.835 550.499 376.979 550.008 377.267C549.521 377.552 549.107 377.97 548.765 378.52C548.427 379.07 548.195 379.74 548.069 380.528C547.937 381.284 547.945 381.919 548.094 382.433C548.243 382.946 548.502 383.334 548.87 383.596C549.238 383.854 549.687 383.984 550.217 383.984C550.791 383.984 551.321 383.841 551.808 383.556C552.295 383.271 552.708 382.855 553.046 382.308C553.387 381.761 553.623 381.094 553.752 380.305ZM559.985 385.5H556.485L558.175 375.318H561.646C562.656 375.318 563.495 375.527 564.161 375.945C564.827 376.362 565.295 376.959 565.563 377.734C565.835 378.507 565.881 379.428 565.702 380.499C565.53 381.546 565.19 382.442 564.683 383.188C564.176 383.934 563.525 384.506 562.729 384.903C561.934 385.301 561.019 385.5 559.985 385.5ZM558.593 383.904H560.08C560.786 383.904 561.4 383.77 561.924 383.501C562.451 383.23 562.88 382.827 563.212 382.293C563.546 381.756 563.778 381.09 563.908 380.295C564.037 379.532 564.029 378.903 563.883 378.406C563.737 377.905 563.454 377.532 563.033 377.287C562.615 377.038 562.062 376.914 561.372 376.914H559.751L558.593 383.904ZM570.13 385.5H566.63L568.32 375.318H571.79C572.801 375.318 573.64 375.527 574.306 375.945C574.972 376.362 575.439 376.959 575.708 377.734C575.98 378.507 576.026 379.428 575.847 380.499C575.675 381.546 575.335 382.442 574.828 383.188C574.321 383.934 573.669 384.506 572.874 384.903C572.078 385.301 571.164 385.5 570.13 385.5ZM568.738 383.904H570.224C570.93 383.904 571.545 383.77 572.069 383.501C572.596 383.23 573.025 382.827 573.356 382.293C573.691 381.756 573.923 381.09 574.052 380.295C574.181 379.532 574.173 378.903 574.027 378.406C573.882 377.905 573.598 377.532 573.177 377.287C572.76 377.038 572.206 376.914 571.517 376.914H569.896L568.738 383.904ZM586.093 374.841L580.804 387.031H579.228L584.517 374.841H586.093ZM597.133 375.318H598.977L597.874 381.97C597.754 382.699 597.476 383.341 597.038 383.894C596.604 384.448 596.051 384.88 595.378 385.192C594.705 385.5 593.956 385.654 593.131 385.654C592.299 385.654 591.599 385.5 591.033 385.192C590.466 384.88 590.057 384.448 589.805 383.894C589.556 383.341 589.491 382.699 589.611 381.97L590.714 375.318H592.559L591.48 381.816C591.411 382.24 591.442 382.618 591.575 382.95C591.71 383.278 591.933 383.536 592.241 383.725C592.552 383.914 592.942 384.009 593.409 384.009C593.876 384.009 594.297 383.914 594.672 383.725C595.046 383.536 595.353 383.278 595.592 382.95C595.83 382.618 595.984 382.24 596.054 381.816L597.133 375.318ZM606.038 378.167C606.051 377.706 605.911 377.353 605.616 377.108C605.324 376.863 604.905 376.74 604.358 376.74C603.973 376.74 603.634 376.798 603.339 376.914C603.047 377.027 602.812 377.184 602.633 377.386C602.454 377.585 602.343 377.812 602.3 378.067C602.263 378.276 602.281 378.459 602.354 378.614C602.427 378.77 602.538 378.903 602.687 379.012C602.84 379.121 603.012 379.213 603.204 379.286C603.4 379.358 603.599 379.42 603.801 379.469L604.716 379.708C605.08 379.798 605.428 379.919 605.76 380.071C606.091 380.22 606.378 380.412 606.62 380.648C606.865 380.88 607.044 381.16 607.157 381.488C607.269 381.816 607.288 382.201 607.211 382.641C607.112 383.238 606.872 383.763 606.491 384.217C606.113 384.668 605.616 385.021 604.999 385.276C604.386 385.528 603.672 385.654 602.856 385.654C602.068 385.654 601.401 385.531 600.858 385.286C600.314 385.038 599.916 384.678 599.665 384.207C599.416 383.737 599.336 383.165 599.426 382.492H601.241C601.204 382.847 601.262 383.142 601.415 383.377C601.57 383.612 601.794 383.788 602.086 383.904C602.377 384.02 602.715 384.078 603.1 384.078C603.501 384.078 603.864 384.018 604.189 383.899C604.514 383.777 604.779 383.607 604.984 383.392C605.193 383.173 605.321 382.918 605.367 382.626C605.413 382.365 605.375 382.146 605.253 381.97C605.13 381.795 604.939 381.649 604.681 381.533C604.426 381.413 604.121 381.307 603.766 381.214L602.662 380.916C601.864 380.697 601.257 380.369 600.843 379.932C600.432 379.494 600.286 378.911 600.405 378.182C600.505 377.579 600.755 377.053 601.156 376.606C601.557 376.155 602.059 375.805 602.662 375.557C603.266 375.305 603.925 375.179 604.641 375.179C605.364 375.179 605.975 375.305 606.476 375.557C606.979 375.809 607.347 376.16 607.579 376.611C607.815 377.058 607.893 377.577 607.813 378.167H606.038ZM608.384 385.5L610.074 375.318H613.972C614.707 375.318 615.301 375.434 615.751 375.666C616.202 375.895 616.515 376.208 616.691 376.606C616.87 377.004 616.916 377.454 616.83 377.958C616.761 378.369 616.621 378.722 616.413 379.017C616.207 379.309 615.955 379.547 615.657 379.733C615.359 379.915 615.039 380.046 614.697 380.126L614.678 380.225C615.036 380.242 615.364 380.351 615.662 380.553C615.96 380.755 616.186 381.04 616.338 381.408C616.491 381.773 616.525 382.212 616.442 382.726C616.353 383.253 616.146 383.727 615.821 384.148C615.496 384.565 615.055 384.895 614.499 385.137C613.945 385.379 613.281 385.5 612.505 385.5H608.384ZM610.487 383.959H612.47C613.136 383.959 613.64 383.831 613.982 383.576C614.323 383.317 614.527 382.986 614.593 382.582C614.643 382.28 614.613 382.008 614.504 381.766C614.394 381.521 614.214 381.329 613.962 381.19C613.71 381.047 613.395 380.976 613.017 380.976H610.979L610.487 383.959ZM611.207 379.648H613.032C613.35 379.648 613.645 379.59 613.917 379.474C614.192 379.355 614.421 379.188 614.603 378.972C614.789 378.754 614.903 378.495 614.946 378.197C615.016 377.802 614.933 377.478 614.697 377.222C614.462 376.967 614.074 376.839 613.534 376.839H611.665L611.207 379.648Z" fill="white"/>
<path d="M127.07 256.292C126.801 256.328 126.561 256.394 126.349 256.491C126.133 256.587 125.951 256.716 125.802 256.878C125.649 257.041 125.533 257.238 125.454 257.47C125.374 257.702 125.335 257.972 125.335 258.28C125.335 258.827 125.472 259.346 125.747 259.836C126.022 260.327 126.427 260.746 126.96 261.094C127.491 261.442 128.137 261.679 128.899 261.805C129.668 261.931 130.319 261.924 130.853 261.785C131.387 261.646 131.793 261.391 132.071 261.02C132.346 260.645 132.484 260.174 132.484 259.608C132.484 259.087 132.384 258.615 132.185 258.191C131.987 257.767 131.705 257.415 131.34 257.137C130.972 256.855 130.541 256.676 130.048 256.6L130.112 256.192L130.112 258.961L128.67 258.713L128.67 254.581L129.893 254.79C130.768 254.933 131.524 255.243 132.161 255.72C132.794 256.194 133.282 256.785 133.627 257.495C133.969 258.201 134.139 258.975 134.139 259.816C134.139 260.751 133.929 261.538 133.508 262.178C133.084 262.814 132.482 263.265 131.703 263.53C130.921 263.795 129.993 263.839 128.919 263.66C128.097 263.527 127.363 263.292 126.717 262.954C126.07 262.612 125.522 262.195 125.071 261.701C124.617 261.204 124.272 260.652 124.037 260.045C123.798 259.439 123.679 258.802 123.679 258.136C123.679 257.576 123.762 257.066 123.928 256.605C124.09 256.144 124.322 255.75 124.624 255.422C124.925 255.09 125.283 254.837 125.697 254.661C126.112 254.485 126.569 254.402 127.07 254.412L127.07 256.292ZM134 253.688L123.818 251.997L123.818 248.179C123.818 247.397 123.964 246.764 124.256 246.28C124.544 245.796 124.943 245.46 125.454 245.271C125.961 245.082 126.539 245.042 127.189 245.152C127.842 245.258 128.422 245.491 128.929 245.853C129.436 246.21 129.835 246.683 130.127 247.269C130.415 247.856 130.56 248.542 130.56 249.328L130.56 251.858L129.043 251.605L129.043 249.323C129.043 248.865 128.964 248.478 128.805 248.159C128.646 247.838 128.427 247.584 128.148 247.399C127.87 247.213 127.55 247.09 127.189 247.031C126.828 246.974 126.509 246.993 126.234 247.085C125.959 247.178 125.746 247.359 125.593 247.627C125.437 247.893 125.359 248.255 125.359 248.716L125.359 250.407L134 251.843L134 253.688ZM123.818 241.157L134 242.847L134 244.692L123.818 243.001L123.818 241.157ZM129.028 230.927C130.109 231.106 131.03 231.459 131.793 231.986C132.552 232.509 133.133 233.149 133.538 233.905C133.939 234.657 134.139 235.467 134.139 236.336C134.139 237.247 133.927 238.029 133.503 238.682C133.075 239.335 132.464 239.806 131.668 240.094C130.873 240.379 129.918 240.429 128.805 240.243C127.728 240.064 126.806 239.713 126.04 239.189C125.275 238.666 124.69 238.024 124.286 237.265C123.881 236.506 123.679 235.688 123.679 234.809C123.679 233.905 123.893 233.129 124.32 232.483C124.745 231.833 125.356 231.366 126.155 231.081C126.954 230.792 127.911 230.741 129.028 230.927ZM128.805 232.741C128.052 232.619 127.418 232.63 126.901 232.776C126.384 232.919 125.994 233.172 125.732 233.537C125.467 233.901 125.335 234.35 125.335 234.884C125.335 235.461 125.479 235.994 125.767 236.485C126.052 236.972 126.47 237.386 127.02 237.728C127.57 238.066 128.24 238.298 129.028 238.424C129.784 238.556 130.419 238.548 130.933 238.399C131.446 238.25 131.834 237.991 132.096 237.623C132.354 237.255 132.484 236.806 132.484 236.276C132.484 235.703 132.341 235.172 132.056 234.685C131.771 234.198 131.355 233.785 130.808 233.447C130.261 233.106 129.594 232.87 128.805 232.741Z" fill="white"/>
<path d="M540.818 330.304L540.818 328.459L547.47 329.563C548.199 329.682 548.841 329.961 549.394 330.398C549.948 330.832 550.38 331.386 550.692 332.059C551 332.732 551.154 333.481 551.154 334.306C551.154 335.138 551 335.837 550.692 336.404C550.38 336.971 549.948 337.38 549.394 337.632C548.841 337.88 548.199 337.945 547.47 337.826L540.818 336.722L540.818 334.878L547.316 335.956C547.74 336.026 548.118 335.995 548.45 335.862C548.778 335.726 549.036 335.504 549.225 335.196C549.414 334.884 549.509 334.495 549.509 334.027C549.509 333.56 549.414 333.139 549.225 332.765C549.036 332.39 548.778 332.084 548.45 331.845C548.118 331.606 547.74 331.452 547.316 331.383L540.818 330.304ZM543.667 321.398C543.206 321.385 542.853 321.526 542.608 321.821C542.363 322.113 542.24 322.532 542.24 323.079C542.24 323.463 542.298 323.803 542.414 324.098C542.527 324.39 542.684 324.625 542.886 324.804C543.085 324.983 543.312 325.094 543.567 325.137C543.776 325.173 543.959 325.155 544.114 325.082C544.27 325.009 544.403 324.898 544.512 324.749C544.621 324.597 544.713 324.424 544.786 324.232C544.858 324.037 544.92 323.838 544.969 323.636L545.208 322.721C545.298 322.356 545.419 322.008 545.571 321.677C545.72 321.345 545.912 321.059 546.148 320.817C546.38 320.571 546.66 320.392 546.988 320.28C547.316 320.167 547.701 320.149 548.141 320.225C548.738 320.324 549.263 320.565 549.717 320.946C550.168 321.324 550.521 321.821 550.776 322.437C551.028 323.051 551.154 323.765 551.154 324.58C551.154 325.369 551.031 326.035 550.786 326.579C550.538 327.122 550.178 327.52 549.707 327.772C549.237 328.021 548.665 328.1 547.992 328.011L547.992 326.196C548.347 326.232 548.642 326.174 548.877 326.022C549.112 325.866 549.288 325.642 549.404 325.351C549.52 325.059 549.578 324.721 549.578 324.337C549.578 323.936 549.518 323.573 549.399 323.248C549.277 322.923 549.107 322.658 548.892 322.452C548.673 322.244 548.418 322.116 548.126 322.07C547.865 322.023 547.646 322.061 547.47 322.184C547.295 322.306 547.149 322.497 547.033 322.756C546.913 323.011 546.807 323.316 546.714 323.67L546.416 324.774C546.197 325.573 545.869 326.179 545.432 326.594C544.994 327.005 544.411 327.15 543.682 327.031C543.079 326.932 542.553 326.681 542.106 326.28C541.655 325.879 541.305 325.377 541.057 324.774C540.805 324.171 540.679 323.511 540.679 322.795C540.679 322.073 540.805 321.461 541.057 320.961C541.309 320.457 541.66 320.089 542.111 319.857C542.558 319.622 543.077 319.544 543.667 319.623L543.667 321.398ZM551 319.053L540.818 317.363L540.818 313.465C540.818 312.729 540.934 312.136 541.166 311.685C541.395 311.234 541.708 310.921 542.106 310.745C542.504 310.566 542.954 310.52 543.458 310.606C543.869 310.676 544.222 310.815 544.517 311.024C544.809 311.229 545.047 311.481 545.233 311.78C545.415 312.078 545.546 312.398 545.626 312.739L545.725 312.759C545.742 312.401 545.851 312.073 546.053 311.775C546.255 311.476 546.54 311.251 546.908 311.098C547.273 310.946 547.712 310.911 548.226 310.994C548.753 311.084 549.227 311.291 549.648 311.615C550.065 311.94 550.395 312.381 550.637 312.938C550.879 313.491 551 314.156 551 314.932L551 319.053ZM549.459 316.95L549.459 314.966C549.459 314.3 549.331 313.796 549.076 313.455C548.817 313.114 548.486 312.91 548.082 312.843C547.78 312.794 547.508 312.824 547.266 312.933C547.021 313.042 546.829 313.223 546.69 313.475C546.547 313.727 546.476 314.042 546.476 314.419L546.476 316.458L549.459 316.95ZM545.148 316.229L545.148 314.405C545.148 314.086 545.09 313.791 544.974 313.52C544.855 313.245 544.688 313.016 544.472 312.834C544.254 312.648 543.995 312.534 543.697 312.491C543.302 312.421 542.978 312.504 542.722 312.739C542.467 312.974 542.339 313.362 542.339 313.902L542.339 315.772L545.148 316.229Z" fill="white"/>
<path d="M346.064 258.818H348.321L350.126 266.196H350.245L354.486 258.818H356.743L355.053 269H353.283L354.446 262.005H354.357L350.379 268.97H349.062L347.411 261.99H347.317L346.144 269H344.374L346.064 258.818ZM356.982 269L358.254 261.364H360.054L358.781 269H356.982ZM359.418 260.27C359.129 260.27 358.891 260.174 358.702 259.982C358.513 259.789 358.43 259.559 358.453 259.29C358.477 259.022 358.597 258.792 358.816 258.599C359.038 258.407 359.292 258.311 359.577 258.311C359.865 258.311 360.102 258.407 360.288 258.599C360.477 258.792 360.56 259.022 360.536 259.29C360.517 259.559 360.396 259.789 360.173 259.982C359.955 260.174 359.703 260.27 359.418 260.27ZM363.943 269.149C363.181 269.149 362.554 268.982 362.064 268.647C361.573 268.312 361.23 267.85 361.035 267.26C360.843 266.667 360.811 265.984 360.94 265.212C361.066 264.436 361.326 263.752 361.721 263.158C362.119 262.562 362.619 262.098 363.222 261.766C363.826 261.432 364.5 261.264 365.246 261.264C365.866 261.264 366.394 261.379 366.832 261.607C367.272 261.833 367.601 262.152 367.816 262.567C368.035 262.978 368.119 263.458 368.07 264.009H366.344C366.338 263.641 366.223 263.334 366.001 263.089C365.779 262.84 365.455 262.716 365.027 262.716C364.656 262.716 364.314 262.815 364.003 263.014C363.691 263.21 363.428 263.491 363.212 263.859C362.997 264.227 362.848 264.668 362.765 265.182C362.679 265.702 362.68 266.15 362.77 266.524C362.863 266.895 363.03 267.182 363.272 267.384C363.517 267.583 363.827 267.683 364.202 267.683C364.467 267.683 364.714 267.633 364.942 267.533C365.171 267.431 365.372 267.283 365.544 267.091C365.72 266.899 365.857 266.665 365.957 266.39H367.677C367.541 266.93 367.299 267.409 366.951 267.827C366.606 268.241 366.179 268.566 365.668 268.801C365.158 269.033 364.583 269.149 363.943 269.149ZM368.712 269L369.985 261.364H371.73L371.516 262.636H371.596C371.805 262.196 372.099 261.856 372.481 261.617C372.865 261.375 373.276 261.254 373.714 261.254C373.816 261.254 373.927 261.259 374.047 261.269C374.166 261.276 374.269 261.287 374.355 261.304L374.077 262.96C374 262.933 373.881 262.91 373.719 262.89C373.559 262.867 373.402 262.855 373.246 262.855C372.918 262.855 372.613 262.926 372.331 263.069C372.053 263.208 371.818 263.402 371.626 263.651C371.433 263.899 371.309 264.186 371.253 264.511L370.512 269H368.712ZM377.313 269.149C376.561 269.149 375.934 268.983 375.434 268.652C374.937 268.321 374.587 267.855 374.385 267.255C374.183 266.655 374.146 265.959 374.275 265.167C374.405 264.385 374.663 263.7 375.051 263.114C375.442 262.527 375.934 262.073 376.528 261.751C377.124 261.427 377.792 261.264 378.531 261.264C379.283 261.264 379.908 261.432 380.405 261.766C380.903 262.098 381.252 262.563 381.454 263.163C381.66 263.763 381.698 264.463 381.569 265.261C381.443 266.04 381.183 266.721 380.788 267.305C380.397 267.888 379.905 268.342 379.312 268.667C378.718 268.988 378.052 269.149 377.313 269.149ZM377.462 267.707C377.88 267.707 378.246 267.595 378.561 267.369C378.879 267.141 379.139 266.834 379.341 266.45C379.547 266.062 379.689 265.631 379.769 265.157C379.842 264.7 379.844 264.285 379.774 263.914C379.704 263.54 379.555 263.243 379.327 263.024C379.101 262.802 378.788 262.691 378.387 262.691C377.969 262.691 377.6 262.807 377.278 263.039C376.96 263.268 376.7 263.576 376.498 263.964C376.296 264.348 376.156 264.777 376.08 265.251C376.004 265.709 376.001 266.123 376.07 266.494C376.14 266.866 376.289 267.161 376.518 267.379C376.746 267.598 377.061 267.707 377.462 267.707ZM390.668 258.818H392.512L391.409 265.47C391.289 266.199 391.011 266.841 390.574 267.394C390.139 267.948 389.586 268.38 388.913 268.692C388.24 269 387.491 269.154 386.666 269.154C385.834 269.154 385.135 269 384.568 268.692C384.001 268.38 383.592 267.948 383.34 267.394C383.091 266.841 383.027 266.199 383.146 265.47L384.25 258.818H386.094L385.015 265.316C384.946 265.74 384.977 266.118 385.11 266.45C385.246 266.778 385.468 267.036 385.776 267.225C386.087 267.414 386.477 267.509 386.944 267.509C387.412 267.509 387.833 267.414 388.207 267.225C388.582 267.036 388.888 266.778 389.127 266.45C389.365 266.118 389.52 265.74 389.589 265.316L390.668 258.818ZM399.573 261.667C399.587 261.206 399.446 260.853 399.151 260.608C398.859 260.363 398.44 260.24 397.893 260.24C397.508 260.24 397.169 260.298 396.874 260.414C396.582 260.527 396.347 260.684 396.168 260.886C395.989 261.085 395.878 261.312 395.835 261.567C395.798 261.776 395.816 261.959 395.889 262.114C395.962 262.27 396.073 262.403 396.222 262.512C396.375 262.621 396.547 262.713 396.74 262.786C396.935 262.858 397.134 262.92 397.336 262.969L398.251 263.208C398.615 263.298 398.963 263.419 399.295 263.571C399.626 263.72 399.913 263.912 400.155 264.148C400.4 264.38 400.579 264.66 400.692 264.988C400.805 265.316 400.823 265.701 400.747 266.141C400.647 266.738 400.407 267.263 400.026 267.717C399.648 268.168 399.151 268.521 398.534 268.776C397.921 269.028 397.207 269.154 396.392 269.154C395.603 269.154 394.936 269.031 394.393 268.786C393.849 268.538 393.452 268.178 393.2 267.707C392.951 267.237 392.872 266.665 392.961 265.992H394.776C394.739 266.347 394.797 266.642 394.95 266.877C395.106 267.112 395.329 267.288 395.621 267.404C395.913 267.52 396.251 267.578 396.635 267.578C397.036 267.578 397.399 267.518 397.724 267.399C398.049 267.277 398.314 267.107 398.519 266.892C398.728 266.673 398.856 266.418 398.902 266.126C398.949 265.865 398.91 265.646 398.788 265.47C398.665 265.295 398.475 265.149 398.216 265.033C397.961 264.913 397.656 264.807 397.301 264.714L396.198 264.416C395.399 264.197 394.792 263.869 394.378 263.432C393.967 262.994 393.821 262.411 393.941 261.682C394.04 261.079 394.29 260.553 394.691 260.106C395.092 259.655 395.594 259.305 396.198 259.057C396.801 258.805 397.46 258.679 398.176 258.679C398.899 258.679 399.51 258.805 400.011 259.057C400.515 259.309 400.883 259.66 401.115 260.111C401.35 260.558 401.428 261.077 401.348 261.667H399.573ZM401.919 269L403.609 258.818H407.507C408.243 258.818 408.836 258.934 409.287 259.166C409.737 259.395 410.051 259.708 410.226 260.106C410.405 260.504 410.452 260.954 410.365 261.458C410.296 261.869 410.157 262.222 409.948 262.517C409.742 262.809 409.49 263.047 409.192 263.233C408.894 263.415 408.574 263.546 408.233 263.626L408.213 263.725C408.571 263.742 408.899 263.851 409.197 264.053C409.495 264.255 409.721 264.54 409.873 264.908C410.026 265.273 410.06 265.712 409.978 266.226C409.888 266.753 409.681 267.227 409.356 267.648C409.031 268.065 408.591 268.395 408.034 268.637C407.48 268.879 406.816 269 406.04 269H401.919ZM404.022 267.459H406.005C406.672 267.459 407.175 267.331 407.517 267.076C407.858 266.817 408.062 266.486 408.128 266.082C408.178 265.78 408.148 265.508 408.039 265.266C407.929 265.021 407.749 264.829 407.497 264.69C407.245 264.547 406.93 264.476 406.552 264.476H404.514L404.022 267.459ZM404.743 263.148H406.567C406.885 263.148 407.18 263.09 407.452 262.974C407.727 262.855 407.956 262.688 408.138 262.472C408.324 262.254 408.438 261.995 408.481 261.697C408.551 261.302 408.468 260.978 408.233 260.722C407.997 260.467 407.609 260.339 407.069 260.339H405.2L404.743 263.148ZM415.816 263.909C416.021 262.666 416.374 261.524 416.874 260.484C417.375 259.44 418.028 258.475 418.833 257.59H420.524C420.219 257.918 419.919 258.321 419.624 258.798C419.329 259.272 419.052 259.793 418.794 260.359C418.538 260.923 418.315 261.508 418.122 262.114C417.933 262.721 417.789 263.319 417.69 263.909C417.557 264.695 417.503 265.49 417.526 266.295C417.552 267.101 417.643 267.848 417.799 268.538C417.958 269.224 418.17 269.786 418.436 270.223H416.74C416.233 269.338 415.9 268.375 415.741 267.335C415.585 266.29 415.61 265.149 415.816 263.909ZM430.026 264.028C429.847 265.109 429.494 266.03 428.967 266.793C428.443 267.552 427.803 268.133 427.048 268.538C426.295 268.939 425.485 269.139 424.616 269.139C423.705 269.139 422.923 268.927 422.27 268.503C421.617 268.075 421.146 267.464 420.858 266.668C420.573 265.873 420.523 264.918 420.709 263.805C420.888 262.728 421.239 261.806 421.763 261.04C422.286 260.275 422.928 259.69 423.687 259.286C424.446 258.881 425.264 258.679 426.143 258.679C427.048 258.679 427.823 258.893 428.469 259.32C429.119 259.745 429.586 260.356 429.871 261.155C430.16 261.954 430.211 262.911 430.026 264.028ZM428.211 263.805C428.334 263.052 428.322 262.418 428.176 261.901C428.034 261.384 427.78 260.994 427.415 260.732C427.051 260.467 426.602 260.335 426.068 260.335C425.491 260.335 424.958 260.479 424.467 260.767C423.98 261.052 423.566 261.47 423.224 262.02C422.886 262.57 422.654 263.24 422.528 264.028C422.396 264.784 422.404 265.419 422.553 265.933C422.702 266.446 422.961 266.834 423.329 267.096C423.697 267.354 424.146 267.484 424.676 267.484C425.25 267.484 425.78 267.341 426.267 267.056C426.754 266.771 427.167 266.355 427.505 265.808C427.846 265.261 428.082 264.594 428.211 263.805ZM431.477 260.364L431.736 258.818H439.859L439.601 260.364H436.454L435.022 269H433.192L434.624 260.364H431.477ZM447.248 262.07C447.212 261.801 447.146 261.561 447.05 261.349C446.953 261.133 446.824 260.951 446.662 260.802C446.499 260.649 446.302 260.533 446.07 260.454C445.838 260.374 445.568 260.335 445.26 260.335C444.713 260.335 444.194 260.472 443.704 260.747C443.213 261.022 442.794 261.427 442.446 261.96C442.098 262.491 441.861 263.137 441.735 263.899C441.609 264.668 441.616 265.319 441.755 265.853C441.894 266.387 442.149 266.793 442.52 267.071C442.895 267.346 443.366 267.484 443.932 267.484C444.453 267.484 444.925 267.384 445.349 267.185C445.773 266.987 446.125 266.705 446.403 266.34C446.685 265.972 446.864 265.541 446.94 265.048L447.348 265.112H444.579L444.827 263.67H448.959L448.75 264.893C448.607 265.768 448.297 266.524 447.82 267.161C447.346 267.794 446.755 268.282 446.045 268.627C445.339 268.969 444.565 269.139 443.724 269.139C442.789 269.139 442.002 268.929 441.362 268.508C440.726 268.084 440.275 267.482 440.01 266.703C439.745 265.921 439.702 264.993 439.881 263.919C440.013 263.097 440.248 262.363 440.586 261.717C440.928 261.07 441.345 260.522 441.839 260.071C442.336 259.617 442.888 259.272 443.495 259.037C444.101 258.798 444.738 258.679 445.404 258.679C445.964 258.679 446.474 258.762 446.935 258.928C447.396 259.09 447.79 259.322 448.118 259.624C448.45 259.925 448.703 260.283 448.879 260.697C449.055 261.112 449.138 261.569 449.128 262.07H447.248ZM453.839 263.909C453.634 265.149 453.281 266.29 452.781 267.335C452.28 268.375 451.629 269.338 450.827 270.223H449.131C449.44 269.895 449.741 269.494 450.036 269.02C450.331 268.546 450.606 268.026 450.862 267.459C451.117 266.892 451.339 266.305 451.528 265.699C451.72 265.092 451.866 264.496 451.965 263.909C452.098 263.124 452.151 262.328 452.124 261.523C452.101 260.717 452.01 259.97 451.851 259.281C451.695 258.591 451.486 258.028 451.224 257.59H452.92C453.424 258.475 453.753 259.44 453.909 260.484C454.068 261.524 454.045 262.666 453.839 263.909Z" fill="white"/>
<path d="M425.511 132L424.327 121.818H426.311L426.908 129.3H427.002L430.199 121.818H432.004L432.729 129.305H432.819L435.891 121.818H437.875L433.311 132H431.491L430.646 124.856H430.567L427.33 132H425.511ZM437.384 132L438.657 124.364H440.456L439.184 132H437.384ZM439.82 123.27C439.532 123.27 439.293 123.174 439.104 122.982C438.915 122.789 438.832 122.559 438.856 122.29C438.879 122.022 439 121.792 439.219 121.599C439.441 121.407 439.694 121.311 439.979 121.311C440.268 121.311 440.505 121.407 440.69 121.599C440.879 121.792 440.962 122.022 440.939 122.29C440.919 122.559 440.798 122.789 440.576 122.982C440.357 123.174 440.105 123.27 439.82 123.27ZM446.488 127.018L446.245 128.5H441.666L441.909 127.018H446.488ZM447.635 132L449.326 121.818H455.849L455.59 123.364H450.912L450.454 126.129H454.685L454.427 127.675H450.196L449.48 132H447.635ZM455.759 132L457.032 124.364H458.831L457.559 132H455.759ZM458.195 123.27C457.907 123.27 457.668 123.174 457.479 122.982C457.29 122.789 457.207 122.559 457.231 122.29C457.254 122.022 457.375 121.792 457.594 121.599C457.816 121.407 458.069 121.311 458.354 121.311C458.643 121.311 458.88 121.407 459.065 121.599C459.254 121.792 459.337 122.022 459.314 122.29C459.294 122.559 459.173 122.789 458.951 122.982C458.732 123.174 458.48 123.27 458.195 123.27ZM464.185 126.909C464.39 125.666 464.743 124.524 465.244 123.484C465.744 122.44 466.397 121.475 467.202 120.59H468.893C468.588 120.918 468.288 121.321 467.993 121.798C467.698 122.272 467.421 122.793 467.163 123.359C466.907 123.923 466.684 124.508 466.491 125.114C466.303 125.721 466.158 126.319 466.059 126.909C465.926 127.695 465.872 128.49 465.895 129.295C465.921 130.101 466.013 130.848 466.168 131.538C466.327 132.224 466.54 132.786 466.805 133.223H465.109C464.602 132.338 464.269 131.375 464.11 130.335C463.954 129.29 463.979 128.149 464.185 126.909ZM478.295 125.254H476.466C476.466 124.949 476.416 124.679 476.317 124.443C476.217 124.205 476.078 124.002 475.899 123.837C475.72 123.671 475.508 123.547 475.263 123.464C475.017 123.378 474.746 123.335 474.447 123.335C473.877 123.335 473.347 123.479 472.856 123.767C472.366 124.055 471.95 124.475 471.608 125.025C471.267 125.572 471.03 126.236 470.898 127.018C470.775 127.781 470.787 128.419 470.932 128.933C471.081 129.446 471.34 129.834 471.708 130.096C472.076 130.354 472.523 130.484 473.05 130.484C473.372 130.484 473.68 130.444 473.975 130.364C474.27 130.281 474.542 130.161 474.79 130.001C475.042 129.839 475.263 129.642 475.452 129.41C475.644 129.178 475.793 128.914 475.899 128.619H477.753C477.601 129.103 477.377 129.559 477.082 129.987C476.787 130.411 476.433 130.785 476.018 131.11C475.604 131.432 475.14 131.683 474.626 131.866C474.113 132.048 473.559 132.139 472.966 132.139C472.054 132.139 471.274 131.927 470.624 131.503C469.978 131.075 469.514 130.464 469.232 129.668C468.95 128.87 468.901 127.913 469.083 126.8C469.265 125.716 469.617 124.793 470.137 124.031C470.661 123.268 471.299 122.687 472.051 122.286C472.807 121.881 473.62 121.679 474.492 121.679C475.069 121.679 475.592 121.759 476.063 121.918C476.537 122.077 476.943 122.31 477.281 122.619C477.619 122.924 477.876 123.298 478.052 123.742C478.231 124.183 478.312 124.687 478.295 125.254ZM482.286 121.818L480.596 132H478.796L480.487 121.818H482.286ZM482.447 132L483.719 124.364H485.519L484.246 132H482.447ZM484.883 123.27C484.594 123.27 484.356 123.174 484.167 122.982C483.978 122.789 483.895 122.559 483.918 122.29C483.941 122.022 484.062 121.792 484.281 121.599C484.503 121.407 484.757 121.311 485.042 121.311C485.33 121.311 485.567 121.407 485.753 121.599C485.942 121.792 486.024 122.022 486.001 122.29C485.981 122.559 485.86 122.789 485.638 122.982C485.42 123.174 485.168 123.27 484.883 123.27ZM489.458 132.149C488.692 132.149 488.059 131.99 487.559 131.672C487.058 131.35 486.707 130.896 486.505 130.31C486.306 129.72 486.273 129.025 486.405 128.227C486.534 127.441 486.798 126.752 487.196 126.158C487.593 125.562 488.091 125.098 488.687 124.766C489.287 124.432 489.95 124.264 490.676 124.264C491.146 124.264 491.579 124.34 491.973 124.493C492.368 124.642 492.701 124.874 492.973 125.189C493.244 125.504 493.432 125.905 493.534 126.392C493.637 126.876 493.632 127.453 493.52 128.122L493.435 128.674H487.171L487.365 127.461H491.899C491.958 127.116 491.939 126.81 491.839 126.541C491.74 126.269 491.574 126.056 491.342 125.9C491.11 125.744 490.82 125.666 490.472 125.666C490.117 125.666 489.786 125.757 489.478 125.94C489.173 126.119 488.916 126.351 488.707 126.636C488.498 126.921 488.366 127.221 488.309 127.536L488.105 128.699C488.033 129.176 488.049 129.566 488.155 129.867C488.261 130.169 488.447 130.391 488.712 130.533C488.977 130.676 489.312 130.747 489.716 130.747C489.981 130.747 490.227 130.711 490.452 130.638C490.677 130.565 490.878 130.455 491.054 130.31C491.233 130.161 491.382 129.978 491.501 129.763L493.147 129.952C492.964 130.396 492.698 130.784 492.346 131.115C491.995 131.443 491.574 131.698 491.083 131.881C490.596 132.06 490.054 132.149 489.458 132.149ZM496.955 127.526L496.219 132H494.414L495.687 124.364H497.412L497.194 125.661H497.288C497.527 125.234 497.861 124.894 498.292 124.642C498.723 124.39 499.225 124.264 499.799 124.264C500.319 124.264 500.757 124.377 501.111 124.602C501.466 124.824 501.718 125.151 501.867 125.582C502.016 126.009 502.039 126.528 501.936 127.138L501.121 132H499.321L500.082 127.416C500.168 126.909 500.104 126.511 499.888 126.223C499.676 125.931 499.335 125.786 498.864 125.786C498.549 125.786 498.259 125.855 497.994 125.994C497.729 126.13 497.505 126.327 497.323 126.586C497.144 126.844 497.021 127.158 496.955 127.526ZM508.027 124.364L507.793 125.756H503.408L503.637 124.364H508.027ZM505.019 122.534H506.819L505.625 129.703C505.589 129.945 505.596 130.131 505.645 130.26C505.698 130.386 505.783 130.472 505.899 130.518C506.018 130.565 506.152 130.588 506.301 130.588C506.411 130.588 506.514 130.58 506.61 130.563C506.706 130.543 506.782 130.528 506.838 130.518L506.918 131.925C506.809 131.959 506.661 131.995 506.475 132.035C506.293 132.075 506.074 132.098 505.819 132.104C505.362 132.114 504.964 132.045 504.626 131.896C504.291 131.743 504.046 131.509 503.89 131.195C503.738 130.876 503.703 130.479 503.786 130.001L505.019 122.534ZM512.162 127.849C511.956 129.088 511.603 130.23 511.103 131.274C510.602 132.315 509.951 133.278 509.149 134.163H507.454C507.762 133.835 508.064 133.433 508.358 132.96C508.653 132.486 508.929 131.965 509.184 131.398C509.439 130.832 509.661 130.245 509.85 129.638C510.042 129.032 510.188 128.435 510.287 127.849C510.42 127.063 510.473 126.268 510.447 125.462C510.423 124.657 510.332 123.91 510.173 123.22C510.017 122.531 509.809 121.967 509.547 121.53H511.242C511.746 122.415 512.076 123.379 512.231 124.423C512.39 125.464 512.367 126.606 512.162 127.849Z" fill="white"/>
<path d="M425.511 153L424.327 142.818H426.311L426.908 150.3H427.002L430.199 142.818H432.004L432.729 150.305H432.819L435.891 142.818H437.875L433.311 153H431.491L430.646 145.856H430.567L427.33 153H425.511ZM437.384 153L438.657 145.364H440.456L439.184 153H437.384ZM439.82 144.27C439.532 144.27 439.293 144.174 439.104 143.982C438.915 143.789 438.832 143.559 438.856 143.29C438.879 143.022 439 142.792 439.219 142.599C439.441 142.407 439.694 142.311 439.979 142.311C440.268 142.311 440.505 142.407 440.69 142.599C440.879 142.792 440.962 143.022 440.939 143.29C440.919 143.559 440.798 143.789 440.576 143.982C440.357 144.174 440.105 144.27 439.82 144.27ZM446.488 148.018L446.245 149.5H441.666L441.909 148.018H446.488ZM447.635 153L449.326 142.818H455.849L455.59 144.364H450.912L450.454 147.129H454.685L454.427 148.675H450.196L449.48 153H447.635ZM455.759 153L457.032 145.364H458.831L457.559 153H455.759ZM458.195 144.27C457.907 144.27 457.668 144.174 457.479 143.982C457.29 143.789 457.207 143.559 457.231 143.29C457.254 143.022 457.375 142.792 457.594 142.599C457.816 142.407 458.069 142.311 458.354 142.311C458.643 142.311 458.88 142.407 459.065 142.599C459.254 142.792 459.337 143.022 459.314 143.29C459.294 143.559 459.173 143.789 458.951 143.982C458.732 144.174 458.48 144.27 458.195 144.27ZM464.185 147.909C464.39 146.666 464.743 145.524 465.244 144.484C465.744 143.44 466.397 142.475 467.202 141.59H468.893C468.588 141.918 468.288 142.321 467.993 142.798C467.698 143.272 467.421 143.793 467.163 144.359C466.907 144.923 466.684 145.508 466.491 146.114C466.303 146.721 466.158 147.319 466.059 147.909C465.926 148.695 465.872 149.49 465.895 150.295C465.921 151.101 466.013 151.848 466.168 152.538C466.327 153.224 466.54 153.786 466.805 154.223H465.109C464.602 153.338 464.269 152.375 464.11 151.335C463.954 150.29 463.979 149.149 464.185 147.909ZM468.471 153L470.162 142.818H472.006L471.29 147.129H476.008L476.724 142.818H478.574L476.883 153H475.034L475.75 148.675H471.032L470.316 153H468.471ZM482.161 153.149C481.408 153.149 480.782 152.983 480.281 152.652C479.784 152.321 479.435 151.855 479.232 151.255C479.03 150.655 478.994 149.959 479.123 149.167C479.252 148.385 479.511 147.7 479.899 147.114C480.29 146.527 480.782 146.073 481.375 145.751C481.972 145.427 482.64 145.264 483.379 145.264C484.131 145.264 484.756 145.432 485.253 145.766C485.75 146.098 486.1 146.563 486.302 147.163C486.508 147.763 486.546 148.463 486.416 149.261C486.29 150.04 486.03 150.721 485.636 151.305C485.245 151.888 484.753 152.342 484.159 152.667C483.566 152.988 482.9 153.149 482.161 153.149ZM482.31 151.707C482.727 151.707 483.094 151.595 483.409 151.369C483.727 151.141 483.987 150.834 484.189 150.45C484.395 150.062 484.537 149.631 484.617 149.157C484.69 148.7 484.691 148.285 484.622 147.914C484.552 147.54 484.403 147.243 484.174 147.024C483.949 146.802 483.636 146.691 483.235 146.691C482.817 146.691 482.447 146.807 482.126 147.039C481.808 147.268 481.548 147.576 481.345 147.964C481.143 148.348 481.004 148.777 480.928 149.251C480.852 149.709 480.848 150.123 480.918 150.494C480.987 150.866 481.137 151.161 481.365 151.379C481.594 151.598 481.909 151.707 482.31 151.707ZM492.413 145.364L492.18 146.756H487.795L488.023 145.364H492.413ZM489.406 143.534H491.205L490.012 150.703C489.976 150.945 489.982 151.131 490.032 151.26C490.085 151.386 490.17 151.472 490.286 151.518C490.405 151.565 490.539 151.588 490.688 151.588C490.798 151.588 490.9 151.58 490.996 151.563C491.093 151.543 491.169 151.528 491.225 151.518L491.305 152.925C491.195 152.959 491.048 152.995 490.862 153.035C490.68 153.075 490.461 153.098 490.206 153.104C489.749 153.114 489.351 153.045 489.013 152.896C488.678 152.743 488.433 152.509 488.277 152.195C488.125 151.876 488.09 151.479 488.173 151.001L489.406 143.534ZM499.502 147.382L497.846 147.561C497.829 147.392 497.778 147.235 497.692 147.089C497.606 146.943 497.477 146.827 497.304 146.741C497.135 146.651 496.916 146.607 496.648 146.607C496.257 146.607 495.914 146.694 495.619 146.87C495.324 147.046 495.156 147.271 495.117 147.546C495.08 147.752 495.13 147.919 495.266 148.048C495.402 148.178 495.654 148.287 496.021 148.376L497.284 148.655C497.98 148.811 498.481 149.062 498.786 149.411C499.094 149.759 499.202 150.214 499.109 150.778C499.029 151.248 498.824 151.663 498.492 152.021C498.161 152.375 497.737 152.652 497.22 152.851C496.706 153.05 496.136 153.149 495.509 153.149C494.558 153.149 493.826 152.952 493.312 152.558C492.802 152.16 492.548 151.613 492.551 150.917L494.321 150.748C494.341 151.093 494.462 151.353 494.684 151.528C494.906 151.701 495.214 151.789 495.609 151.792C496.053 151.795 496.427 151.702 496.732 151.513C497.041 151.321 497.215 151.088 497.254 150.812C497.288 150.607 497.236 150.44 497.1 150.31C496.968 150.181 496.731 150.078 496.389 150.002L495.137 149.729C494.427 149.573 493.922 149.309 493.62 148.938C493.322 148.564 493.221 148.091 493.317 147.521C493.396 147.057 493.59 146.658 493.899 146.323C494.21 145.985 494.61 145.725 495.097 145.543C495.584 145.357 496.129 145.264 496.732 145.264C497.641 145.264 498.325 145.455 498.786 145.836C499.246 146.217 499.485 146.732 499.502 147.382ZM499.748 155.864L501.508 145.364H503.278L503.074 146.626H503.178C503.297 146.441 503.458 146.244 503.66 146.035C503.866 145.823 504.126 145.642 504.441 145.493C504.756 145.34 505.139 145.264 505.589 145.264C506.176 145.264 506.681 145.415 507.106 145.717C507.53 146.015 507.833 146.457 508.015 147.044C508.201 147.627 508.224 148.343 508.085 149.192C507.946 150.03 507.689 150.743 507.314 151.33C506.94 151.916 506.491 152.364 505.967 152.672C505.443 152.98 504.882 153.134 504.282 153.134C503.844 153.134 503.491 153.061 503.223 152.915C502.958 152.77 502.757 152.594 502.621 152.388C502.485 152.18 502.384 151.982 502.318 151.797H502.238L501.562 155.864H499.748ZM502.636 149.182C502.557 149.676 502.555 150.108 502.631 150.479C502.711 150.851 502.868 151.141 503.104 151.349C503.339 151.555 503.647 151.658 504.028 151.658C504.426 151.658 504.774 151.552 505.072 151.339C505.374 151.124 505.624 150.831 505.823 150.46C506.025 150.085 506.168 149.659 506.251 149.182C506.327 148.708 506.327 148.287 506.251 147.919C506.174 147.551 506.02 147.263 505.788 147.054C505.556 146.845 505.241 146.741 504.844 146.741C504.456 146.741 504.109 146.842 503.805 147.044C503.503 147.246 503.253 147.53 503.054 147.894C502.855 148.259 502.716 148.688 502.636 149.182ZM512.335 153.149C511.582 153.149 510.956 152.983 510.455 152.652C509.958 152.321 509.608 151.855 509.406 151.255C509.204 150.655 509.168 149.959 509.297 149.167C509.426 148.385 509.685 147.7 510.072 147.114C510.464 146.527 510.956 146.073 511.549 145.751C512.146 145.427 512.813 145.264 513.553 145.264C514.305 145.264 514.93 145.432 515.427 145.766C515.924 146.098 516.274 146.563 516.476 147.163C516.681 147.763 516.719 148.463 516.59 149.261C516.464 150.04 516.204 150.721 515.81 151.305C515.419 151.888 514.926 152.342 514.333 152.667C513.74 152.988 513.074 153.149 512.335 153.149ZM512.484 151.707C512.901 151.707 513.268 151.595 513.582 151.369C513.901 151.141 514.161 150.834 514.363 150.45C514.568 150.062 514.711 149.631 514.79 149.157C514.863 148.7 514.865 148.285 514.795 147.914C514.726 147.54 514.577 147.243 514.348 147.024C514.123 146.802 513.809 146.691 513.408 146.691C512.991 146.691 512.621 146.807 512.3 147.039C511.982 147.268 511.721 147.576 511.519 147.964C511.317 148.348 511.178 148.777 511.102 149.251C511.025 149.709 511.022 150.123 511.092 150.494C511.161 150.866 511.31 151.161 511.539 151.379C511.768 151.598 512.083 151.707 512.484 151.707ZM522.587 145.364L522.354 146.756H517.969L518.197 145.364H522.587ZM519.579 143.534H521.379L520.186 150.703C520.149 150.945 520.156 151.131 520.206 151.26C520.259 151.386 520.343 151.472 520.459 151.518C520.579 151.565 520.713 151.588 520.862 151.588C520.971 151.588 521.074 151.58 521.17 151.563C521.266 151.543 521.343 151.528 521.399 151.518L521.479 152.925C521.369 152.959 521.222 152.995 521.036 153.035C520.854 153.075 520.635 153.098 520.38 153.104C519.922 153.114 519.525 153.045 519.187 152.896C518.852 152.743 518.607 152.509 518.451 152.195C518.298 151.876 518.264 151.479 518.346 151.001L519.579 143.534ZM526.722 148.849C526.517 150.088 526.164 151.23 525.663 152.274C525.163 153.315 524.512 154.278 523.71 155.163H522.014C522.322 154.835 522.624 154.433 522.919 153.96C523.214 153.486 523.489 152.965 523.744 152.398C524 151.832 524.222 151.245 524.411 150.638C524.603 150.032 524.749 149.435 524.848 148.849C524.981 148.063 525.034 147.268 525.007 146.462C524.984 145.657 524.893 144.91 524.734 144.22C524.578 143.531 524.369 142.967 524.107 142.53H525.803C526.306 143.415 526.636 144.379 526.792 145.423C526.951 146.464 526.928 147.606 526.722 148.849Z" fill="white"/>
<path d="M662.077 269H658.577L660.267 258.818H663.737C664.748 258.818 665.587 259.027 666.253 259.445C666.919 259.862 667.387 260.459 667.655 261.234C667.927 262.007 667.973 262.928 667.794 263.999C667.622 265.046 667.282 265.942 666.775 266.688C666.268 267.434 665.617 268.006 664.821 268.403C664.026 268.801 663.111 269 662.077 269ZM660.685 267.404H662.171C662.877 267.404 663.492 267.27 664.016 267.001C664.543 266.73 664.972 266.327 665.303 265.793C665.638 265.256 665.87 264.59 665.999 263.795C666.129 263.032 666.12 262.403 665.975 261.906C665.829 261.405 665.545 261.032 665.124 260.787C664.707 260.538 664.153 260.414 663.464 260.414H661.843L660.685 267.404ZM678.545 262.254H676.716C676.716 261.949 676.666 261.679 676.567 261.443C676.467 261.205 676.328 261.002 676.149 260.837C675.97 260.671 675.758 260.547 675.513 260.464C675.267 260.378 674.996 260.335 674.697 260.335C674.127 260.335 673.597 260.479 673.106 260.767C672.616 261.055 672.2 261.475 671.858 262.025C671.517 262.572 671.28 263.236 671.148 264.018C671.025 264.781 671.037 265.419 671.182 265.933C671.331 266.446 671.59 266.834 671.958 267.096C672.326 267.354 672.773 267.484 673.3 267.484C673.622 267.484 673.93 267.444 674.225 267.364C674.52 267.281 674.792 267.161 675.04 267.001C675.292 266.839 675.513 266.642 675.702 266.41C675.894 266.178 676.043 265.914 676.149 265.619H678.003C677.851 266.103 677.627 266.559 677.332 266.987C677.037 267.411 676.683 267.785 676.268 268.11C675.854 268.432 675.39 268.683 674.876 268.866C674.363 269.048 673.809 269.139 673.216 269.139C672.304 269.139 671.524 268.927 670.874 268.503C670.228 268.075 669.764 267.464 669.482 266.668C669.2 265.87 669.151 264.913 669.333 263.8C669.515 262.716 669.867 261.793 670.387 261.031C670.911 260.268 671.549 259.687 672.301 259.286C673.057 258.881 673.87 258.679 674.742 258.679C675.319 258.679 675.842 258.759 676.313 258.918C676.787 259.077 677.193 259.31 677.531 259.619C677.869 259.924 678.126 260.298 678.302 260.742C678.481 261.183 678.562 261.687 678.545 262.254ZM682.598 269L684.289 258.818H688.107C688.889 258.818 689.522 258.964 690.006 259.256C690.49 259.544 690.826 259.943 691.015 260.454C691.204 260.961 691.244 261.539 691.135 262.189C691.029 262.842 690.795 263.422 690.434 263.929C690.076 264.436 689.603 264.835 689.017 265.127C688.43 265.415 687.744 265.56 686.958 265.56H684.428L684.681 264.043H686.963C687.421 264.043 687.809 263.964 688.127 263.805C688.448 263.646 688.702 263.427 688.887 263.148C689.073 262.87 689.196 262.55 689.255 262.189C689.312 261.828 689.293 261.509 689.201 261.234C689.108 260.959 688.927 260.746 688.659 260.593C688.394 260.437 688.031 260.359 687.57 260.359H685.88L684.443 269H682.598ZM694.756 269.149C694.004 269.149 693.378 268.983 692.877 268.652C692.38 268.321 692.03 267.855 691.828 267.255C691.626 266.655 691.589 265.959 691.719 265.167C691.848 264.385 692.107 263.7 692.494 263.114C692.885 262.527 693.378 262.073 693.971 261.751C694.567 261.427 695.235 261.264 695.974 261.264C696.727 261.264 697.352 261.432 697.849 261.766C698.346 262.098 698.696 262.563 698.898 263.163C699.103 263.763 699.141 264.463 699.012 265.261C698.886 266.04 698.626 266.721 698.232 267.305C697.84 267.888 697.348 268.342 696.755 268.667C696.162 268.988 695.496 269.149 694.756 269.149ZM694.906 267.707C695.323 267.707 695.689 267.595 696.004 267.369C696.322 267.141 696.583 266.834 696.785 266.45C696.99 266.062 697.133 265.631 697.212 265.157C697.285 264.7 697.287 264.285 697.217 263.914C697.148 263.54 696.999 263.243 696.77 263.024C696.545 262.802 696.231 262.691 695.83 262.691C695.413 262.691 695.043 262.807 694.722 263.039C694.403 263.268 694.143 263.576 693.941 263.964C693.739 264.348 693.6 264.777 693.523 265.251C693.447 265.709 693.444 266.123 693.513 266.494C693.583 266.866 693.732 267.161 693.961 267.379C694.19 267.598 694.504 267.707 694.906 267.707ZM701.28 269L700.395 261.364H702.23L702.677 266.733H702.747L705.014 261.364H706.829L707.306 266.703H707.381L709.598 261.364H711.437L708.002 269H706.128L705.551 263.839H705.447L703.16 269H701.28ZM714.563 269.149C713.798 269.149 713.165 268.99 712.664 268.672C712.164 268.35 711.812 267.896 711.61 267.31C711.411 266.72 711.378 266.025 711.511 265.227C711.64 264.441 711.903 263.752 712.301 263.158C712.699 262.562 713.196 262.098 713.793 261.766C714.393 261.432 715.055 261.264 715.781 261.264C716.252 261.264 716.684 261.34 717.079 261.493C717.473 261.642 717.806 261.874 718.078 262.189C718.35 262.504 718.537 262.905 718.64 263.392C718.743 263.876 718.738 264.453 718.625 265.122L718.54 265.674H712.276L712.47 264.461H717.004C717.064 264.116 717.044 263.81 716.945 263.541C716.845 263.269 716.679 263.056 716.447 262.9C716.215 262.744 715.925 262.666 715.577 262.666C715.223 262.666 714.891 262.757 714.583 262.94C714.278 263.119 714.021 263.351 713.812 263.636C713.604 263.921 713.471 264.221 713.415 264.536L713.211 265.699C713.138 266.176 713.155 266.566 713.261 266.867C713.367 267.169 713.552 267.391 713.817 267.533C714.083 267.676 714.417 267.747 714.822 267.747C715.087 267.747 715.332 267.711 715.558 267.638C715.783 267.565 715.983 267.455 716.159 267.31C716.338 267.161 716.487 266.978 716.607 266.763L718.252 266.952C718.07 267.396 717.803 267.784 717.452 268.115C717.1 268.443 716.679 268.698 716.189 268.881C715.702 269.06 715.16 269.149 714.563 269.149ZM719.515 269L720.788 261.364H722.533L722.319 262.636H722.398C722.607 262.196 722.902 261.856 723.283 261.617C723.668 261.375 724.079 261.254 724.516 261.254C724.619 261.254 724.73 261.259 724.849 261.269C724.969 261.276 725.071 261.287 725.158 261.304L724.879 262.96C724.803 262.933 724.684 262.91 724.521 262.89C724.362 262.867 724.205 262.855 724.049 262.855C723.721 262.855 723.416 262.926 723.134 263.069C722.856 263.208 722.621 263.402 722.428 263.651C722.236 263.899 722.112 264.186 722.055 264.511L721.315 269H719.515Z" fill="white"/>
<path d="M318.5 248H481" stroke="white" stroke-width="2"/>
<path d="M560 292L560 357" stroke="white" stroke-width="2"/>
<path d="M319 183H382" stroke="white" stroke-width="2"/>
<path d="M639 248H739" stroke="white" stroke-width="2"/>
<circle cx="763" cy="248" r="23" stroke="white" stroke-width="2"/>
<rect x="761" y="260" width="8" height="4" transform="rotate(-90 761 260)" fill="white"/>
<rect x="750" y="243.071" width="10" height="4" transform="rotate(-45 750 243.071)" fill="white"/>
<rect x="773.071" y="245.9" width="10" height="4" transform="rotate(-135 773.071 245.9)" fill="white"/>
<defs>
<clipPath id="clip0_10_709">
<rect x="56" y="333" width="170" height="60" rx="16" transform="rotate(-90 56 333)" fill="white"/>
</clipPath>
</defs>
</svg>
