<svg width="16" height="16" viewBox="0 0 16 16" fill="none" xmlns="http://www.w3.org/2000/svg">
<g clip-path="url(#clip0_6_195)">
<rect x="1" y="3" width="14" height="10" rx="2" fill="#250074"/>
<path d="M5.65275 11.3643C4.98548 11.1855 4.47791 10.7948 4.13006 10.1923C3.7822 9.58982 3.69767 8.95493 3.87647 8.28765C4.05526 7.62038 4.44591 7.11282 5.04842 6.76496C5.65092 6.4171 6.28581 6.33257 6.95308 6.51137C7.18562 6.57368 7.39308 6.65917 7.57548 6.76786C7.75788 6.87655 7.92502 7.01063 8.07691 7.17009L9.79172 0.77033L13.4314 1.74558L12.7812 4.17203L10.3548 3.52186L8.72937 9.58798C8.55057 10.2553 8.15992 10.7628 7.55742 11.1107C6.95491 11.4585 6.32003 11.5431 5.65275 11.3643Z" fill="#FF55FF"/>
</g>
<defs>
<clipPath id="clip0_6_195">
<rect width="16" height="16" fill="white"/>
</clipPath>
</defs>
</svg>
