<svg width="16" height="16" viewBox="0 0 16 16" fill="none" xmlns="http://www.w3.org/2000/svg">
<path d="M10 1C11.8856 1 12.8284 1 13.4142 1.58579C14 2.17157 14 3.11438 14 5L14 11C14 12.8856 14 13.8284 13.4142 14.4142C12.8284 15 11.8856 15 10 15L8 15C6.11438 15 5.17157 15 4.58579 14.4142C4 13.8284 4 12.8856 4 11L4 5C4 3.11438 4 2.17157 4.58579 1.58579C5.17157 1 6.11438 1 8 1L10 1Z" fill="#003D86"/>
<path d="M11 1C12.8856 1 13.8284 1 14.4142 1.58579C15 2.17157 15 3.11438 15 5L15 11C15 12.8856 15 13.8284 14.4142 14.4142C13.8284 15 12.8856 15 11 15L9 15C7.11438 15 6.17157 15 5.58579 14.4142C5 13.8284 5 12.8856 5 11L5 5C5 3.11438 5 2.17157 5.58579 1.58579C6.17157 1 7.11438 1 9 1L11 1Z" fill="#0078D7"/>
<path d="M7.85198 7.16512C7.62167 7.48646 7.16111 7.77431 6.23999 8.35001C5.21791 8.98881 4.70686 9.30821 4.29498 9.36963C3.40021 9.50306 2.52729 9.01925 2.16621 8.18976C2 7.80794 2 7.20529 2 6C2 4.79471 2 4.19206 2.16621 3.81024C2.52729 2.98075 3.40021 2.49694 4.29498 2.63037C4.70686 2.69179 5.21791 3.01119 6.23999 3.64999C7.16111 4.22569 7.62167 4.51354 7.85198 4.83488C8.35122 5.53141 8.35122 6.46859 7.85198 7.16512Z" stroke="#9CC6F6" stroke-width="2"/>
<path d="M8.85198 11.1651C8.62167 11.4865 8.16111 11.7743 7.23999 12.35C6.21791 12.9888 5.70686 13.3082 5.29498 13.3696C4.40021 13.5031 3.52729 13.0192 3.16621 12.1898C3 11.8079 3 11.2053 3 10C3 8.79471 3 8.19206 3.16621 7.81024C3.52729 6.98075 4.40021 6.49694 5.29498 6.63037C5.70686 6.69179 6.21791 7.01119 7.23999 7.64999C8.16111 8.22569 8.62167 8.51354 8.85198 8.83488C9.35122 9.53141 9.35122 10.4686 8.85198 11.1651Z" stroke="#9CC6F6" stroke-width="2"/>
</svg>
