<svg width="16" height="16" viewBox="0 0 16 16" fill="none" xmlns="http://www.w3.org/2000/svg">
<path d="M4.70711 16C4.07714 16 3.76165 15.2383 4.20711 14.7929L14.7929 4.20711C15.2383 3.76166 16 4.07714 16 4.70711V4.70711C16 4.89464 15.9255 5.0745 15.7929 5.20711L5.20711 15.7929C5.0745 15.9255 4.89464 16 4.70711 16V16Z" fill="#FFF1E8"/>
<path d="M6.85355 16C6.53857 16 6.38083 15.6192 6.60355 15.3964L15.3964 6.60355C15.6192 6.38083 16 6.53857 16 6.85355V6.85355C16 6.94732 15.9628 7.03725 15.8964 7.10355L7.10355 15.8964C7.03725 15.9628 6.94732 16 6.85355 16V16Z" fill="#FFF1E8"/>
<path d="M12.7547 5.2453C13.1598 4.84018 13.1424 4.17817 12.7166 3.7949L9.2052 0.634683C8.80987 0.278887 8.20521 0.294788 7.82913 0.670869L0.670869 7.82913C0.294787 8.20521 0.278887 8.80987 0.634682 9.2052L3.7949 12.7166C4.17817 13.1424 4.84018 13.1598 5.2453 12.7547L12.7547 5.2453Z" fill="#1D2B53"/>
<path d="M8.8526 0.317341C8.65494 0.139443 8.35261 0.147394 8.16457 0.335435L0.335435 8.16457C0.147394 8.35261 0.139443 8.65494 0.317341 8.8526L1.18421 9.81579L9.81579 1.18421L8.8526 0.317341Z" fill="#FFF1E8"/>
<path d="M2 9L5.5 12.5L6 12L2.5 8.5L2 9Z" fill="#FF004D"/>
<path d="M6 5L9.5 8.5L10 8L6.5 4.5L6 5Z" fill="#FF004D"/>
<path d="M4.5 6.5L8 10L8.5 9.5L5 6L4.5 6.5Z" fill="#FF004D"/>
<path d="M8.5 2.5L12 6L12.5 5.5L9 2L8.5 2.5Z" fill="#FF004D"/>
</svg>
