<svg width="16" height="16" viewBox="0 0 16 16" fill="none" xmlns="http://www.w3.org/2000/svg">
<path d="M10 4C11.8856 4 12.8283 4.00015 13.4141 4.58594C13.7407 4.91253 13.8853 5.34995 13.9492 6H11.25V9.83594L9 7.58594V12H4C2.11438 12 1.17172 11.9998 0.585938 11.4141C0.000151098 10.8283 0 9.88562 0 8C0 6.11438 0.000151038 5.17172 0.585938 4.58594C1.17172 4.00015 2.11438 4 4 4H10ZM11.9531 11.9531C11.4449 11.9994 10.8093 12 10 12V10L11.9531 11.9531ZM13.75 7V10.9043C13.6679 11.102 13.5591 11.269 13.4141 11.4141C13.1313 11.6969 12.7651 11.8413 12.25 11.917V7H13.75Z" fill="#D9D9D9"/>
<path d="M0 8C0 6.11438 0 5.17157 0.585786 4.58579C1.17157 4 2.11438 4 4 4V12C2.11438 12 1.17157 12 0.585786 11.4142C0 10.8284 0 9.88562 0 8Z" fill="#545454"/>
<path d="M3 3.5C3 3.22386 3.22386 3 3.5 3H4.5C4.77614 3 5 3.22386 5 3.5V4H3V3.5Z" fill="#D9D9D9"/>
<path d="M8 3C10.0502 3 11.8114 4.23428 12.583 6H11.25V9.83594L9 7.58594V12.4141L9.38867 12.8027C8.94763 12.93 8.48203 13 8 13C5.23858 13 3 10.7614 3 8C3 5.23858 5.23858 3 8 3ZM11.5352 11.5352C11.198 11.8723 10.8125 12.1604 10.3906 12.3906L10 12V10L11.5352 11.5352ZM12.8994 7C12.965 7.32314 13 7.6575 13 8C13 8.96667 12.725 9.86887 12.25 10.6338V7H12.8994Z" fill="black"/>
<path d="M8 3C10.0502 3 11.8114 4.23428 12.583 6H11.4639C10.7722 4.80464 9.48038 4 8 4C5.79086 4 4 5.79086 4 8C4 10.2091 5.79086 12 8 12C8.3453 12 8.68038 11.9563 9 11.874V12.4141L9.38867 12.8027C8.94763 12.93 8.48203 13 8 13C5.23858 13 3 10.7614 3 8C3 5.23858 5.23858 3 8 3ZM11.5352 11.5352C11.198 11.8723 10.8125 12.1604 10.3906 12.3906L10 12V11.4629C10.3033 11.2873 10.582 11.0743 10.8281 10.8281L11.5352 11.5352ZM12.8994 7C12.965 7.32314 13 7.6575 13 8C13 8.96667 12.725 9.86887 12.25 10.6338V7H12.8994Z" fill="#656565"/>
<path d="M13.75 12.25L16 10V12L13 15L10 12V10L12.25 12.25V7H13.75V12.25Z" fill="#38E700"/>
</svg>
