<svg width="16" height="16" viewBox="0 0 16 16" fill="none" xmlns="http://www.w3.org/2000/svg">
<path d="M1 7C1 5.11438 1 4.17157 1.58579 3.58579C2.17157 3 3.11438 3 5 3H11C12.8856 3 13.8284 3 14.4142 3.58579C15 4.17157 15 5.11438 15 7V9C15 10.8856 15 11.8284 14.4142 12.4142C13.8284 13 12.8856 13 11 13H5C3.11438 13 2.17157 13 1.58579 12.4142C1 11.8284 1 10.8856 1 9V7Z" fill="black"/>
<rect x="2" y="6" width="2" height="6" rx="1" fill="white"/>
<circle cx="7.5" cy="6.5" r="1.5" fill="white"/>
<circle cx="9.5" cy="7.5" r="1.25" stroke="white" stroke-opacity="0.75" stroke-width="0.5"/>
<circle cx="11.5" cy="8.5" r="1.25" stroke="white" stroke-opacity="0.5" stroke-width="0.5"/>
</svg>
