<svg width="16" height="16" viewBox="0 0 16 16" fill="none" xmlns="http://www.w3.org/2000/svg">
<rect x="1" y="1" width="14" height="14" rx="2" fill="#607D8B"/>
<path d="M1 12H15V12C15 12.9319 15 13.3978 14.8478 13.7654C14.6448 14.2554 14.2554 14.6448 13.7654 14.8478C13.3978 15 12.9319 15 12 15H4C3.06812 15 2.60218 15 2.23463 14.8478C1.74458 14.6448 1.35523 14.2554 1.15224 13.7654C1 13.3978 1 12.9319 1 12V12Z" fill="#FAFAFA"/>
<path d="M3.00004 13.16C3.00404 13.16 3.01004 13.16 3.01804 13.16C3.02604 13.16 3.03524 13.16 3.04564 13.16C3.05604 13.16 3.06644 13.16 3.07684 13.16C3.08724 13.16 3.09644 13.16 3.10444 13.16C3.11244 13.16 3.11804 13.16 3.12124 13.16V13.1792C3.09964 13.2144 3.07764 13.2496 3.05524 13.2848C3.03284 13.32 3.01004 13.356 2.98684 13.3928C2.96444 13.4288 2.94124 13.4656 2.91724 13.5032C2.89324 13.54 2.86884 13.5776 2.84404 13.616C2.82004 13.6544 2.79524 13.694 2.76964 13.7348L2.79244 13.6628V13.748L2.76124 13.7288C2.78764 13.72 2.81364 13.7136 2.83924 13.7096C2.86484 13.7056 2.89204 13.7028 2.92084 13.7012C2.94964 13.6988 2.98124 13.6976 3.01564 13.6976H3.26524C3.26844 13.6976 3.27084 13.6984 3.27244 13.7C3.27404 13.7008 3.27524 13.702 3.27604 13.7036C3.27764 13.7052 3.27844 13.7076 3.27844 13.7108C3.27844 13.714 3.27844 13.7192 3.27844 13.7264C3.27844 13.7328 3.27844 13.7404 3.27844 13.7492C3.27844 13.758 3.27844 13.7668 3.27844 13.7756C3.27844 13.7844 3.27844 13.7924 3.27844 13.7996C3.27844 13.806 3.27844 13.8104 3.27844 13.8128H2.67604C2.67364 13.8128 2.67124 13.8124 2.66884 13.8116C2.66724 13.81 2.66564 13.8084 2.66404 13.8068C2.66324 13.8044 2.66284 13.802 2.66284 13.7996V13.6976C2.66284 13.6976 2.66684 13.6904 2.67484 13.676C2.68364 13.6616 2.69524 13.6424 2.70964 13.6184C2.72404 13.5936 2.74044 13.5656 2.75884 13.5344C2.77804 13.5032 2.79764 13.4708 2.81764 13.4372C2.83764 13.4028 2.85764 13.3692 2.87764 13.3364C2.89764 13.3036 2.91604 13.2728 2.93284 13.244C2.95044 13.2152 2.96524 13.1908 2.97724 13.1708C2.97964 13.1676 2.98204 13.1656 2.98444 13.1648C2.98684 13.1632 2.98924 13.162 2.99164 13.1612C2.99484 13.1604 2.99764 13.16 3.00004 13.16ZM3.08524 13.5188C3.08844 13.5188 3.09444 13.5188 3.10324 13.5188C3.11204 13.5188 3.12124 13.5188 3.13084 13.5188C3.14124 13.5188 3.15044 13.5188 3.15844 13.5188C3.16724 13.5188 3.17364 13.5188 3.17764 13.5188C3.18084 13.5188 3.18324 13.5196 3.18484 13.5212C3.18644 13.522 3.18764 13.5232 3.18844 13.5248C3.19004 13.5264 3.19084 13.5288 3.19084 13.532V13.8812C3.19084 13.8876 3.19084 13.8968 3.19084 13.9088C3.19084 13.92 3.19084 13.932 3.19084 13.9448C3.19084 13.9576 3.19084 13.9692 3.19084 13.9796C3.19084 13.99 3.19084 13.9968 3.19084 14C3.18764 14 3.18204 14 3.17404 14C3.16684 14 3.15844 14 3.14884 14C3.13924 14 3.12924 14 3.11884 14C3.10844 14 3.09924 14 3.09124 14C3.08404 14 3.07924 14 3.07684 14C3.07284 14 3.06964 13.9988 3.06724 13.9964C3.06484 13.994 3.06364 13.9908 3.06364 13.9868C3.06364 13.9788 3.06364 13.966 3.06364 13.9484C3.06364 13.93 3.06364 13.9092 3.06364 13.886C3.06364 13.8628 3.06364 13.84 3.06364 13.8176C3.06364 13.7944 3.06364 13.774 3.06364 13.7564C3.06364 13.738 3.06364 13.7248 3.06364 13.7168C3.06524 13.7016 3.06724 13.6848 3.06964 13.6664C3.07204 13.6472 3.07404 13.6284 3.07564 13.61C3.07804 13.5908 3.08004 13.5732 3.08164 13.5572C3.08324 13.5412 3.08444 13.5284 3.08524 13.5188ZM3.73038 13.5656C3.72798 13.5656 3.71878 13.5656 3.70278 13.5656C3.68758 13.5656 3.66838 13.5656 3.64518 13.5656C3.62198 13.5656 3.59718 13.5656 3.57078 13.5656C3.54518 13.5656 3.52078 13.5656 3.49758 13.5656C3.47438 13.5656 3.45478 13.5656 3.43878 13.5656C3.42358 13.5656 3.41478 13.5656 3.41238 13.5656C3.40998 13.5656 3.40758 13.5652 3.40518 13.5644C3.40358 13.5628 3.40198 13.5612 3.40038 13.5596C3.39958 13.5572 3.39918 13.5548 3.39918 13.5524V13.4804C3.39918 13.4516 3.40278 13.4252 3.40998 13.4012C3.41718 13.3772 3.42998 13.356 3.44838 13.3376C3.46758 13.3184 3.49438 13.3024 3.52878 13.2896C3.55758 13.2792 3.57958 13.27 3.59478 13.262C3.60998 13.2532 3.62038 13.244 3.62598 13.2344C3.63158 13.2248 3.63438 13.2136 3.63438 13.2008C3.63438 13.1904 3.63278 13.182 3.62958 13.1756C3.62638 13.1684 3.62198 13.1624 3.61638 13.1576C3.61158 13.1536 3.60358 13.1504 3.59238 13.148C3.58198 13.1448 3.56758 13.1432 3.54918 13.1432C3.52118 13.1432 3.49678 13.146 3.47598 13.1516C3.45518 13.1572 3.43678 13.1648 3.42078 13.1744H3.40638C3.40638 13.1712 3.40638 13.1656 3.40638 13.1576C3.40638 13.1488 3.40638 13.1396 3.40638 13.13C3.40638 13.1204 3.40638 13.112 3.40638 13.1048C3.40638 13.0968 3.40638 13.0912 3.40638 13.088C3.40638 13.0848 3.40678 13.082 3.40758 13.0796C3.40838 13.0764 3.41118 13.0736 3.41598 13.0712C3.42638 13.0648 3.44398 13.0588 3.46878 13.0532C3.49438 13.0476 3.52398 13.0448 3.55758 13.0448C3.59758 13.0448 3.62998 13.0508 3.65478 13.0628C3.68038 13.074 3.69918 13.09 3.71118 13.1108C3.72398 13.1316 3.73038 13.1568 3.73038 13.1864V13.1948C3.73038 13.2196 3.72598 13.242 3.71718 13.262C3.70838 13.282 3.69358 13.3 3.67278 13.316C3.65198 13.332 3.62318 13.3464 3.58638 13.3592C3.55838 13.3688 3.53718 13.3796 3.52278 13.3916C3.50918 13.4028 3.49958 13.4168 3.49398 13.4336C3.48918 13.4504 3.48518 13.472 3.48198 13.4984L3.48798 13.4228V13.5104L3.46278 13.4816C3.48358 13.476 3.50438 13.4724 3.52518 13.4708C3.54678 13.4684 3.57398 13.4672 3.60678 13.4672H3.71718C3.72118 13.4672 3.72438 13.4684 3.72678 13.4708C3.72918 13.4732 3.73038 13.4764 3.73038 13.4804C3.73038 13.4836 3.73038 13.4892 3.73038 13.4972C3.73038 13.5044 3.73038 13.5128 3.73038 13.5224C3.73038 13.532 3.73038 13.5408 3.73038 13.5488C3.73038 13.5568 3.73038 13.5624 3.73038 13.5656ZM4.24661 13.4264H4.79261C4.79581 13.4264 4.79821 13.4272 4.79981 13.4288C4.80141 13.4296 4.80261 13.4308 4.80341 13.4324C4.80501 13.434 4.80581 13.4364 4.80581 13.4396C4.80581 13.458 4.80581 13.476 4.80581 13.4936C4.80581 13.5112 4.80581 13.5296 4.80581 13.5488H4.25981C4.25741 13.5488 4.25501 13.5484 4.25261 13.5476C4.25101 13.546 4.24941 13.5444 4.24781 13.5428C4.24701 13.5404 4.24661 13.538 4.24661 13.5356C4.24661 13.5164 4.24661 13.498 4.24661 13.4804C4.24661 13.4628 4.24661 13.4448 4.24661 13.4264ZM4.24661 13.7336H4.79261C4.79581 13.7336 4.79821 13.7344 4.79981 13.736C4.80141 13.7368 4.80261 13.738 4.80341 13.7396C4.80501 13.7412 4.80581 13.7436 4.80581 13.7468C4.80581 13.7652 4.80581 13.7832 4.80581 13.8008C4.80581 13.8176 4.80581 13.8356 4.80581 13.8548H4.25981C4.25741 13.8548 4.25501 13.8544 4.25261 13.8536C4.25101 13.852 4.24941 13.8504 4.24781 13.8488C4.24701 13.8464 4.24661 13.844 4.24661 13.8416C4.24661 13.8224 4.24661 13.8044 4.24661 13.7876C4.24661 13.77 4.24661 13.752 4.24661 13.7336ZM5.54431 13.1048C5.54751 13.1 5.55111 13.0972 5.55511 13.0964C5.55911 13.0956 5.56351 13.0952 5.56831 13.0952C5.58351 13.0952 5.59751 13.0952 5.61031 13.0952C5.62391 13.0952 5.63791 13.0952 5.65231 13.0952C5.66671 13.0952 5.68191 13.0952 5.69791 13.0952V13.1144C5.64751 13.1616 5.60551 13.212 5.57191 13.2656C5.53911 13.3192 5.51471 13.376 5.49871 13.436C5.48351 13.496 5.47591 13.5584 5.47591 13.6232V13.6328C5.47591 13.6968 5.48391 13.7592 5.49991 13.82C5.51591 13.88 5.54031 13.9372 5.57311 13.9916C5.60591 14.0452 5.64751 14.0952 5.69791 14.1416V14.1608C5.68191 14.1608 5.66671 14.1608 5.65231 14.1608C5.63791 14.1608 5.62391 14.1608 5.61031 14.1608C5.59751 14.1608 5.58351 14.1608 5.56831 14.1608C5.56351 14.1608 5.55911 14.16 5.55511 14.1584C5.55111 14.1576 5.54751 14.1552 5.54431 14.1512C5.49791 14.1056 5.45991 14.0556 5.43031 14.0012C5.40151 13.9468 5.37991 13.8888 5.36551 13.8272C5.35191 13.7648 5.34511 13.7 5.34511 13.6328V13.6232C5.34511 13.5552 5.35231 13.4908 5.36671 13.43C5.38111 13.3684 5.40271 13.3104 5.43151 13.256C5.46111 13.2008 5.49871 13.1504 5.54431 13.1048ZM5.76285 13.3592C5.78525 13.3592 5.80765 13.3592 5.83005 13.3592C5.85325 13.3592 5.87605 13.3592 5.89845 13.3592C5.90405 13.3592 5.90845 13.3604 5.91165 13.3628C5.91485 13.3652 5.91805 13.3684 5.92125 13.3724C5.94525 13.4148 5.96925 13.4572 5.99325 13.4996C6.01805 13.542 6.04205 13.584 6.06525 13.6256L6.11085 13.6472C6.14925 13.7064 6.18765 13.7652 6.22605 13.8236C6.26525 13.882 6.30405 13.9408 6.34245 14C6.33125 14 6.32005 14 6.30885 14C6.29765 14 6.28685 14 6.27645 14C6.26605 14 6.25605 14 6.24645 14C6.23685 14 6.22805 14 6.22005 14C6.20885 14 6.20085 13.9988 6.19605 13.9964C6.19125 13.9932 6.18605 13.9872 6.18045 13.9784C6.17005 13.9624 6.15645 13.94 6.13965 13.9112C6.12285 13.8824 6.10485 13.8516 6.08565 13.8188C6.06725 13.7852 6.04965 13.754 6.03285 13.7252L5.98605 13.7012C5.94845 13.6444 5.91125 13.5876 5.87445 13.5308C5.83765 13.474 5.80045 13.4168 5.76285 13.3592ZM5.98845 13.6412L6.08565 13.7588H6.03165C6.01805 13.786 6.00405 13.8128 5.98965 13.8392C5.97525 13.8656 5.96085 13.8924 5.94645 13.9196C5.93205 13.946 5.91725 13.9728 5.90205 14L5.77845 14.0012C5.77365 14.0012 5.77005 14 5.76765 13.9976C5.76525 13.9952 5.76405 13.992 5.76405 13.988C5.76405 13.9848 5.76485 13.982 5.76645 13.9796C5.76805 13.9764 5.77045 13.9724 5.77365 13.9676C5.80965 13.9132 5.84525 13.8588 5.88045 13.8044C5.91645 13.75 5.95245 13.6956 5.98845 13.6412ZM6.31605 13.3592C6.32005 13.3592 6.32325 13.3604 6.32565 13.3628C6.32885 13.3644 6.33045 13.3676 6.33045 13.3724C6.33045 13.3732 6.33005 13.3748 6.32925 13.3772C6.32845 13.3788 6.32725 13.3812 6.32565 13.3844C6.29045 13.438 6.25445 13.492 6.21765 13.5464C6.18165 13.6008 6.14605 13.6552 6.11085 13.7096L6.01965 13.5992H6.06885C6.08165 13.572 6.09445 13.5452 6.10725 13.5188C6.12005 13.4924 6.13325 13.466 6.14685 13.4396C6.16125 13.4124 6.17565 13.3856 6.19005 13.3592H6.31605ZM6.44633 13.5788H6.80273C6.80593 13.5788 6.80833 13.5796 6.80993 13.5812C6.81153 13.582 6.81273 13.5832 6.81353 13.5848C6.81513 13.5864 6.81593 13.5888 6.81593 13.592C6.81593 13.6112 6.81593 13.6296 6.81593 13.6472C6.81593 13.664 6.81593 13.682 6.81593 13.7012H6.45953C6.45713 13.7012 6.45513 13.7012 6.45353 13.7012C6.45193 13.7004 6.45033 13.6996 6.44873 13.6988C6.44793 13.6972 6.44713 13.6956 6.44633 13.694C6.44633 13.6924 6.44633 13.6904 6.44633 13.688C6.44633 13.6688 6.44633 13.6508 6.44633 13.634C6.44633 13.6164 6.44633 13.598 6.44633 13.5788ZM7.25777 13.136C7.30417 13.136 7.34457 13.1408 7.37897 13.1504C7.41337 13.16 7.44177 13.174 7.46417 13.1924C7.48737 13.2108 7.50457 13.2328 7.51577 13.2584C7.52697 13.284 7.53257 13.312 7.53257 13.3424V13.3712C7.53257 13.3992 7.52897 13.4248 7.52177 13.448C7.51537 13.4712 7.50377 13.4932 7.48697 13.514C7.47097 13.5348 7.44857 13.5564 7.41977 13.5788C7.39097 13.6012 7.35377 13.6264 7.30817 13.6544C7.26417 13.6816 7.22857 13.706 7.20137 13.7276C7.17497 13.7484 7.15457 13.7684 7.14017 13.7876C7.12657 13.806 7.11737 13.826 7.11257 13.8476C7.10777 13.8684 7.10537 13.8924 7.10537 13.9196L7.07297 13.9004H7.15697L7.09097 13.9124C7.11017 13.9044 7.12817 13.898 7.14497 13.8932C7.16257 13.8884 7.18257 13.8852 7.20497 13.8836C7.22737 13.8812 7.25497 13.88 7.28777 13.88H7.53737C7.54137 13.88 7.54457 13.8812 7.54697 13.8836C7.54937 13.886 7.55057 13.8892 7.55057 13.8932C7.55057 13.8956 7.55057 13.9004 7.55057 13.9076C7.55057 13.9148 7.55057 13.9232 7.55057 13.9328C7.55057 13.9416 7.55057 13.9508 7.55057 13.9604C7.55057 13.97 7.55057 13.9784 7.55057 13.9856C7.55057 13.9928 7.55057 13.9976 7.55057 14C7.54897 14 7.53777 14 7.51697 14C7.49617 14 7.46937 14 7.43657 14C7.40377 14 7.36777 14 7.32857 14C7.29017 14 7.25137 14 7.21217 14C7.17377 14 7.13817 14 7.10537 14C7.07337 14 7.04697 14 7.02617 14C7.00537 14 6.99377 14 6.99137 14C6.98897 14 6.98657 13.9996 6.98417 13.9988C6.98257 13.9972 6.98097 13.9956 6.97937 13.994C6.97857 13.9924 6.97817 13.99 6.97817 13.9868V13.9064C6.97817 13.8576 6.98657 13.8144 7.00337 13.7768C7.02017 13.7384 7.04697 13.702 7.08377 13.6676C7.12137 13.6332 7.17137 13.5964 7.23377 13.5572C7.27217 13.534 7.30257 13.514 7.32497 13.4972C7.34737 13.4796 7.36417 13.464 7.37537 13.4504C7.38737 13.436 7.39537 13.4224 7.39937 13.4096C7.40337 13.3968 7.40537 13.3832 7.40537 13.3688V13.3592C7.40537 13.344 7.40337 13.3312 7.39937 13.3208C7.39537 13.3096 7.38897 13.2996 7.38017 13.2908C7.37057 13.2804 7.35537 13.2724 7.33457 13.2668C7.31457 13.2612 7.28657 13.2584 7.25057 13.2584C7.20497 13.2584 7.16377 13.2652 7.12697 13.2788C7.09017 13.2916 7.05497 13.3124 7.02137 13.3412H7.00217C7.00217 13.338 7.00217 13.3328 7.00217 13.3256C7.00217 13.3184 7.00217 13.31 7.00217 13.3004C7.00217 13.29 7.00217 13.28 7.00217 13.2704C7.00217 13.2608 7.00217 13.2524 7.00217 13.2452C7.00217 13.238 7.00217 13.2332 7.00217 13.2308C7.00217 13.2268 7.00257 13.2236 7.00337 13.2212C7.00497 13.2188 7.00697 13.216 7.00937 13.2128C7.03017 13.1936 7.06217 13.176 7.10537 13.16C7.14937 13.144 7.20017 13.136 7.25777 13.136ZM7.8021 14.1512C7.7989 14.1552 7.7953 14.1576 7.7913 14.1584C7.7873 14.16 7.7829 14.1608 7.7781 14.1608C7.7637 14.1608 7.7493 14.1608 7.7349 14.1608C7.7213 14.1608 7.7073 14.1608 7.6929 14.1608C7.6793 14.1608 7.6645 14.1608 7.6485 14.1608V14.1416C7.6997 14.0944 7.7417 14.044 7.7745 13.9904C7.8073 13.936 7.8313 13.8788 7.8465 13.8188C7.8625 13.7588 7.8705 13.6968 7.8705 13.6328V13.6232C7.8705 13.5584 7.8625 13.496 7.8465 13.436C7.8305 13.376 7.8061 13.3188 7.7733 13.2644C7.7413 13.21 7.6997 13.16 7.6485 13.1144V13.0952C7.6645 13.0952 7.6793 13.0952 7.6929 13.0952C7.7073 13.0952 7.7213 13.0952 7.7349 13.0952C7.7493 13.0952 7.7637 13.0952 7.7781 13.0952C7.7829 13.0952 7.7873 13.0956 7.7913 13.0964C7.7953 13.0972 7.7989 13.1 7.8021 13.1048C7.8485 13.1496 7.8861 13.1996 7.9149 13.2548C7.9445 13.3092 7.9661 13.3672 7.9797 13.4288C7.9941 13.4904 8.0013 13.5552 8.0013 13.6232V13.6328C8.0013 13.7 7.9941 13.7644 7.9797 13.826C7.9661 13.8876 7.9445 13.9456 7.9149 14C7.8861 14.0544 7.8485 14.1048 7.8021 14.1512ZM8.50577 13.5656C8.50337 13.5656 8.49417 13.5656 8.47817 13.5656C8.46297 13.5656 8.44377 13.5656 8.42057 13.5656C8.39737 13.5656 8.37257 13.5656 8.34617 13.5656C8.32057 13.5656 8.29617 13.5656 8.27297 13.5656C8.24977 13.5656 8.23017 13.5656 8.21417 13.5656C8.19897 13.5656 8.19017 13.5656 8.18777 13.5656C8.18537 13.5656 8.18297 13.5652 8.18057 13.5644C8.17897 13.5628 8.17737 13.5612 8.17577 13.5596C8.17497 13.5572 8.17457 13.5548 8.17457 13.5524V13.4804C8.17457 13.4516 8.17817 13.4252 8.18537 13.4012C8.19257 13.3772 8.20537 13.356 8.22377 13.3376C8.24297 13.3184 8.26977 13.3024 8.30417 13.2896C8.33297 13.2792 8.35497 13.27 8.37017 13.262C8.38537 13.2532 8.39577 13.244 8.40137 13.2344C8.40697 13.2248 8.40977 13.2136 8.40977 13.2008C8.40977 13.1904 8.40817 13.182 8.40497 13.1756C8.40177 13.1684 8.39737 13.1624 8.39177 13.1576C8.38697 13.1536 8.37897 13.1504 8.36777 13.148C8.35737 13.1448 8.34297 13.1432 8.32457 13.1432C8.29657 13.1432 8.27217 13.146 8.25137 13.1516C8.23057 13.1572 8.21217 13.1648 8.19617 13.1744H8.18177C8.18177 13.1712 8.18177 13.1656 8.18177 13.1576C8.18177 13.1488 8.18177 13.1396 8.18177 13.13C8.18177 13.1204 8.18177 13.112 8.18177 13.1048C8.18177 13.0968 8.18177 13.0912 8.18177 13.088C8.18177 13.0848 8.18217 13.082 8.18297 13.0796C8.18377 13.0764 8.18657 13.0736 8.19137 13.0712C8.20177 13.0648 8.21937 13.0588 8.24417 13.0532C8.26977 13.0476 8.29937 13.0448 8.33297 13.0448C8.37297 13.0448 8.40537 13.0508 8.43017 13.0628C8.45577 13.074 8.47457 13.09 8.48657 13.1108C8.49937 13.1316 8.50577 13.1568 8.50577 13.1864V13.1948C8.50577 13.2196 8.50137 13.242 8.49257 13.262C8.48377 13.282 8.46897 13.3 8.44817 13.316C8.42737 13.332 8.39857 13.3464 8.36177 13.3592C8.33377 13.3688 8.31257 13.3796 8.29817 13.3916C8.28457 13.4028 8.27497 13.4168 8.26937 13.4336C8.26457 13.4504 8.26057 13.472 8.25737 13.4984L8.26337 13.4228V13.5104L8.23817 13.4816C8.25897 13.476 8.27977 13.4724 8.30057 13.4708C8.32217 13.4684 8.34937 13.4672 8.38217 13.4672H8.49257C8.49657 13.4672 8.49977 13.4684 8.50217 13.4708C8.50457 13.4732 8.50577 13.4764 8.50577 13.4804C8.50577 13.4836 8.50577 13.4892 8.50577 13.4972C8.50577 13.5044 8.50577 13.5128 8.50577 13.5224C8.50577 13.532 8.50577 13.5408 8.50577 13.5488C8.50577 13.5568 8.50577 13.5624 8.50577 13.5656ZM9.238 13.3604C9.2596 13.3604 9.2792 13.3604 9.2968 13.3604C9.3152 13.3604 9.3336 13.3604 9.352 13.3604C9.356 13.3604 9.3592 13.3616 9.3616 13.364C9.364 13.3664 9.3652 13.3696 9.3652 13.3736C9.3652 13.4344 9.3652 13.4952 9.3652 13.556C9.3652 13.616 9.3652 13.6764 9.3652 13.7372C9.3652 13.7972 9.3652 13.8576 9.3652 13.9184C9.3452 13.9184 9.3264 13.9184 9.3088 13.9184C9.2912 13.9184 9.272 13.9184 9.2512 13.9184C9.2472 13.9184 9.244 13.9172 9.2416 13.9148C9.2392 13.9124 9.238 13.9092 9.238 13.9052C9.238 13.858 9.238 13.8108 9.238 13.7636C9.238 13.7156 9.238 13.668 9.238 13.6208C9.238 13.5736 9.238 13.5264 9.238 13.4792C9.238 13.4544 9.238 13.432 9.238 13.412C9.238 13.3912 9.238 13.374 9.238 13.3604ZM9.022 13.5764H9.568C9.5712 13.5764 9.5736 13.5772 9.5752 13.5788C9.5768 13.5796 9.578 13.5808 9.5788 13.5824C9.5804 13.584 9.5812 13.5864 9.5812 13.5896C9.5812 13.6088 9.5812 13.6276 9.5812 13.646C9.5812 13.6644 9.5812 13.6836 9.5812 13.7036H9.0352C9.0328 13.7036 9.0304 13.7032 9.028 13.7024C9.0264 13.7008 9.0248 13.6992 9.0232 13.6976C9.0224 13.6952 9.022 13.6928 9.022 13.6904C9.022 13.6704 9.022 13.6512 9.022 13.6328C9.022 13.6144 9.022 13.5956 9.022 13.5764ZM10.3197 13.1048C10.3229 13.1 10.3265 13.0972 10.3305 13.0964C10.3345 13.0956 10.3389 13.0952 10.3437 13.0952C10.3589 13.0952 10.3729 13.0952 10.3857 13.0952C10.3993 13.0952 10.4133 13.0952 10.4277 13.0952C10.4421 13.0952 10.4573 13.0952 10.4733 13.0952V13.1144C10.4229 13.1616 10.3809 13.212 10.3473 13.2656C10.3145 13.3192 10.2901 13.376 10.2741 13.436C10.2589 13.496 10.2513 13.5584 10.2513 13.6232V13.6328C10.2513 13.6968 10.2593 13.7592 10.2753 13.82C10.2913 13.88 10.3157 13.9372 10.3485 13.9916C10.3813 14.0452 10.4229 14.0952 10.4733 14.1416V14.1608C10.4573 14.1608 10.4421 14.1608 10.4277 14.1608C10.4133 14.1608 10.3993 14.1608 10.3857 14.1608C10.3729 14.1608 10.3589 14.1608 10.3437 14.1608C10.3389 14.1608 10.3345 14.16 10.3305 14.1584C10.3265 14.1576 10.3229 14.1552 10.3197 14.1512C10.2733 14.1056 10.2353 14.0556 10.2057 14.0012C10.1769 13.9468 10.1553 13.8888 10.1409 13.8272C10.1273 13.7648 10.1205 13.7 10.1205 13.6328V13.6232C10.1205 13.5552 10.1277 13.4908 10.1421 13.43C10.1565 13.3684 10.1781 13.3104 10.2069 13.256C10.2365 13.2008 10.2741 13.1504 10.3197 13.1048ZM11.1037 13.3592C11.1077 13.3592 11.1117 13.3608 11.1157 13.364C11.1197 13.3672 11.1205 13.372 11.1181 13.3784C11.1005 13.4392 11.0829 13.4984 11.0653 13.556C11.0477 13.6128 11.0305 13.6696 11.0137 13.7264C10.9969 13.7824 10.9801 13.8388 10.9633 13.8956C10.9473 13.9524 10.9309 14.0104 10.9141 14.0696C10.9037 14.1096 10.8893 14.142 10.8709 14.1668C10.8533 14.1924 10.8309 14.2108 10.8037 14.222C10.7773 14.234 10.7449 14.24 10.7065 14.24C10.6977 14.24 10.6869 14.24 10.6741 14.24C10.6613 14.24 10.6489 14.24 10.6369 14.24C10.6257 14.24 10.6157 14.24 10.6069 14.24C10.5989 14.24 10.5937 14.24 10.5913 14.24C10.5873 14.24 10.5841 14.2388 10.5817 14.2364C10.5793 14.2348 10.5781 14.2316 10.5781 14.2268V14.1272H10.5973C10.6141 14.1272 10.6305 14.1272 10.6465 14.1272C10.6625 14.1272 10.6789 14.1272 10.6957 14.1272C10.7229 14.1272 10.7449 14.1208 10.7617 14.108C10.7785 14.0952 10.7909 14.0748 10.7989 14.0468C10.8045 14.0268 10.8121 13.9988 10.8217 13.9628C10.8321 13.926 10.8441 13.8836 10.8577 13.8356C10.8713 13.7868 10.8857 13.7352 10.9009 13.6808C10.9161 13.6264 10.9313 13.5716 10.9465 13.5164C10.9617 13.4612 10.9761 13.4088 10.9897 13.3592C10.9985 13.3592 11.0073 13.3592 11.0161 13.3592C11.0257 13.3592 11.0353 13.3592 11.0449 13.3592C11.0545 13.3592 11.0641 13.3592 11.0737 13.3592C11.0841 13.3592 11.0941 13.3592 11.1037 13.3592ZM10.6273 13.3592C10.6345 13.3592 10.6397 13.3604 10.6429 13.3628C10.6461 13.3644 10.6485 13.3684 10.6501 13.3748C10.6661 13.4244 10.6809 13.4708 10.6945 13.514C10.7089 13.5564 10.7225 13.596 10.7353 13.6328C10.7481 13.6688 10.7597 13.7024 10.7701 13.7336C10.7805 13.764 10.7901 13.7924 10.7989 13.8188C10.8077 13.8452 10.8149 13.8696 10.8205 13.892H10.8781L10.8553 13.9736H10.7581C10.7509 13.9736 10.7449 13.9728 10.7401 13.9712C10.7353 13.9688 10.7309 13.9644 10.7269 13.958C10.7229 13.9516 10.7181 13.9416 10.7125 13.928C10.7077 13.9144 10.6997 13.8928 10.6885 13.8632C10.6773 13.8336 10.6641 13.7988 10.6489 13.7588C10.6345 13.7188 10.6189 13.676 10.6021 13.6304C10.5853 13.584 10.5685 13.5376 10.5517 13.4912C10.5357 13.4448 10.5205 13.4008 10.5061 13.3592C10.5157 13.3592 10.5253 13.3592 10.5349 13.3592C10.5453 13.3592 10.5553 13.3592 10.5649 13.3592C10.5753 13.3592 10.5857 13.3592 10.5961 13.3592C10.6065 13.3592 10.6169 13.3592 10.6273 13.3592ZM11.2581 13.5788H11.6145C11.6177 13.5788 11.6201 13.5796 11.6217 13.5812C11.6233 13.582 11.6245 13.5832 11.6253 13.5848C11.6269 13.5864 11.6277 13.5888 11.6277 13.592C11.6277 13.6112 11.6277 13.6296 11.6277 13.6472C11.6277 13.664 11.6277 13.682 11.6277 13.7012H11.2713C11.2689 13.7012 11.2669 13.7012 11.2653 13.7012C11.2637 13.7004 11.2621 13.6996 11.2605 13.6988C11.2597 13.6972 11.2589 13.6956 11.2581 13.694C11.2581 13.6924 11.2581 13.6904 11.2581 13.688C11.2581 13.6688 11.2581 13.6508 11.2581 13.634C11.2581 13.6164 11.2581 13.598 11.2581 13.5788ZM12.0695 13.136C12.1159 13.136 12.1563 13.1408 12.1907 13.1504C12.2251 13.16 12.2535 13.174 12.2759 13.1924C12.2991 13.2108 12.3163 13.2328 12.3275 13.2584C12.3387 13.284 12.3443 13.312 12.3443 13.3424V13.3712C12.3443 13.3992 12.3407 13.4248 12.3335 13.448C12.3271 13.4712 12.3155 13.4932 12.2987 13.514C12.2827 13.5348 12.2603 13.5564 12.2315 13.5788C12.2027 13.6012 12.1655 13.6264 12.1199 13.6544C12.0759 13.6816 12.0403 13.706 12.0131 13.7276C11.9867 13.7484 11.9663 13.7684 11.9519 13.7876C11.9383 13.806 11.9291 13.826 11.9243 13.8476C11.9195 13.8684 11.9171 13.8924 11.9171 13.9196L11.8847 13.9004H11.9687L11.9027 13.9124C11.9219 13.9044 11.9399 13.898 11.9567 13.8932C11.9743 13.8884 11.9943 13.8852 12.0167 13.8836C12.0391 13.8812 12.0667 13.88 12.0995 13.88H12.3491C12.3531 13.88 12.3563 13.8812 12.3587 13.8836C12.3611 13.886 12.3623 13.8892 12.3623 13.8932C12.3623 13.8956 12.3623 13.9004 12.3623 13.9076C12.3623 13.9148 12.3623 13.9232 12.3623 13.9328C12.3623 13.9416 12.3623 13.9508 12.3623 13.9604C12.3623 13.97 12.3623 13.9784 12.3623 13.9856C12.3623 13.9928 12.3623 13.9976 12.3623 14C12.3607 14 12.3495 14 12.3287 14C12.3079 14 12.2811 14 12.2483 14C12.2155 14 12.1795 14 12.1403 14C12.1019 14 12.0631 14 12.0239 14C11.9855 14 11.9499 14 11.9171 14C11.8851 14 11.8587 14 11.8379 14C11.8171 14 11.8055 14 11.8031 14C11.8007 14 11.7983 13.9996 11.7959 13.9988C11.7943 13.9972 11.7927 13.9956 11.7911 13.994C11.7903 13.9924 11.7899 13.99 11.7899 13.9868V13.9064C11.7899 13.8576 11.7983 13.8144 11.8151 13.7768C11.8319 13.7384 11.8587 13.702 11.8955 13.6676C11.9331 13.6332 11.9831 13.5964 12.0455 13.5572C12.0839 13.534 12.1143 13.514 12.1367 13.4972C12.1591 13.4796 12.1759 13.464 12.1871 13.4504C12.1991 13.436 12.2071 13.4224 12.2111 13.4096C12.2151 13.3968 12.2171 13.3832 12.2171 13.3688V13.3592C12.2171 13.344 12.2151 13.3312 12.2111 13.3208C12.2071 13.3096 12.2007 13.2996 12.1919 13.2908C12.1823 13.2804 12.1671 13.2724 12.1463 13.2668C12.1263 13.2612 12.0983 13.2584 12.0623 13.2584C12.0167 13.2584 11.9755 13.2652 11.9387 13.2788C11.9019 13.2916 11.8667 13.3124 11.8331 13.3412H11.8139C11.8139 13.338 11.8139 13.3328 11.8139 13.3256C11.8139 13.3184 11.8139 13.31 11.8139 13.3004C11.8139 13.29 11.8139 13.28 11.8139 13.2704C11.8139 13.2608 11.8139 13.2524 11.8139 13.2452C11.8139 13.238 11.8139 13.2332 11.8139 13.2308C11.8139 13.2268 11.8143 13.2236 11.8151 13.2212C11.8167 13.2188 11.8187 13.216 11.8211 13.2128C11.8419 13.1936 11.8739 13.176 11.9171 13.16C11.9611 13.144 12.0119 13.136 12.0695 13.136ZM12.6138 14.1512C12.6106 14.1552 12.607 14.1576 12.603 14.1584C12.599 14.16 12.5946 14.1608 12.5898 14.1608C12.5754 14.1608 12.561 14.1608 12.5466 14.1608C12.533 14.1608 12.519 14.1608 12.5046 14.1608C12.491 14.1608 12.4762 14.1608 12.4602 14.1608V14.1416C12.5114 14.0944 12.5534 14.044 12.5862 13.9904C12.619 13.936 12.643 13.8788 12.6582 13.8188C12.6742 13.7588 12.6822 13.6968 12.6822 13.6328V13.6232C12.6822 13.5584 12.6742 13.496 12.6582 13.436C12.6422 13.376 12.6178 13.3188 12.585 13.2644C12.553 13.21 12.5114 13.16 12.4602 13.1144V13.0952C12.4762 13.0952 12.491 13.0952 12.5046 13.0952C12.519 13.0952 12.533 13.0952 12.5466 13.0952C12.561 13.0952 12.5754 13.0952 12.5898 13.0952C12.5946 13.0952 12.599 13.0956 12.603 13.0964C12.607 13.0972 12.6106 13.1 12.6138 13.1048C12.6602 13.1496 12.6978 13.1996 12.7266 13.2548C12.7562 13.3092 12.7778 13.3672 12.7914 13.4288C12.8058 13.4904 12.813 13.5552 12.813 13.6232V13.6328C12.813 13.7 12.8058 13.7644 12.7914 13.826C12.7778 13.8876 12.7562 13.9456 12.7266 14C12.6978 14.0544 12.6602 14.1048 12.6138 14.1512ZM13.3175 13.5656C13.3151 13.5656 13.3059 13.5656 13.2899 13.5656C13.2747 13.5656 13.2555 13.5656 13.2323 13.5656C13.2091 13.5656 13.1843 13.5656 13.1579 13.5656C13.1323 13.5656 13.1079 13.5656 13.0847 13.5656C13.0615 13.5656 13.0419 13.5656 13.0259 13.5656C13.0107 13.5656 13.0019 13.5656 12.9995 13.5656C12.9971 13.5656 12.9947 13.5652 12.9923 13.5644C12.9907 13.5628 12.9891 13.5612 12.9875 13.5596C12.9867 13.5572 12.9863 13.5548 12.9863 13.5524V13.4804C12.9863 13.4516 12.9899 13.4252 12.9971 13.4012C13.0043 13.3772 13.0171 13.356 13.0355 13.3376C13.0547 13.3184 13.0815 13.3024 13.1159 13.2896C13.1447 13.2792 13.1667 13.27 13.1819 13.262C13.1971 13.2532 13.2075 13.244 13.2131 13.2344C13.2187 13.2248 13.2215 13.2136 13.2215 13.2008C13.2215 13.1904 13.2199 13.182 13.2167 13.1756C13.2135 13.1684 13.2091 13.1624 13.2035 13.1576C13.1987 13.1536 13.1907 13.1504 13.1795 13.148C13.1691 13.1448 13.1547 13.1432 13.1363 13.1432C13.1083 13.1432 13.0839 13.146 13.0631 13.1516C13.0423 13.1572 13.0239 13.1648 13.0079 13.1744H12.9935C12.9935 13.1712 12.9935 13.1656 12.9935 13.1576C12.9935 13.1488 12.9935 13.1396 12.9935 13.13C12.9935 13.1204 12.9935 13.112 12.9935 13.1048C12.9935 13.0968 12.9935 13.0912 12.9935 13.088C12.9935 13.0848 12.9939 13.082 12.9947 13.0796C12.9955 13.0764 12.9983 13.0736 13.0031 13.0712C13.0135 13.0648 13.0311 13.0588 13.0559 13.0532C13.0815 13.0476 13.1111 13.0448 13.1447 13.0448C13.1847 13.0448 13.2171 13.0508 13.2419 13.0628C13.2675 13.074 13.2863 13.09 13.2983 13.1108C13.3111 13.1316 13.3175 13.1568 13.3175 13.1864V13.1948C13.3175 13.2196 13.3131 13.242 13.3043 13.262C13.2955 13.282 13.2807 13.3 13.2599 13.316C13.2391 13.332 13.2103 13.3464 13.1735 13.3592C13.1455 13.3688 13.1243 13.3796 13.1099 13.3916C13.0963 13.4028 13.0867 13.4168 13.0811 13.4336C13.0763 13.4504 13.0723 13.472 13.0691 13.4984L13.0751 13.4228V13.5104L13.0499 13.4816C13.0707 13.476 13.0915 13.4724 13.1123 13.4708C13.1339 13.4684 13.1611 13.4672 13.1939 13.4672H13.3043C13.3083 13.4672 13.3115 13.4684 13.3139 13.4708C13.3163 13.4732 13.3175 13.4764 13.3175 13.4804C13.3175 13.4836 13.3175 13.4892 13.3175 13.4972C13.3175 13.5044 13.3175 13.5128 13.3175 13.5224C13.3175 13.532 13.3175 13.5408 13.3175 13.5488C13.3175 13.5568 13.3175 13.5624 13.3175 13.5656Z" fill="black"/>
<path d="M8 12V1M1 7H15" stroke="#2196F3" stroke-width="0.5"/>
<circle cx="10" cy="5" r="3.75" stroke="#F44336" stroke-width="0.5"/>
</svg>
