<svg width="16" height="16" viewBox="0 0 16 16" fill="none" xmlns="http://www.w3.org/2000/svg">
<g clip-path="url(#clip0_508_38)">
<path d="M4 7.35V7H0.95V6.15H4V4.1H0.95V3.25H5V7.35H4ZM5.85 7.3V3.3H10.15V7.3H9.175V6.95H6.825V7.3H5.85ZM6.825 6.1H9.175V4.15H6.825V6.1ZM11.075 6.375C11.385 6.32833 11.645 6.26667 11.855 6.19C12.065 6.11333 12.2317 6.015 12.355 5.895C12.4783 5.775 12.5667 5.62667 12.62 5.45C12.6733 5.27 12.7 5.05333 12.7 4.8V2.9H13.7V4.8C13.7 5.28667 13.6133 5.7 13.44 6.04C13.2667 6.38 13.005 6.65 12.655 6.85C12.305 7.05 11.8617 7.18333 11.325 7.25L11.075 6.375ZM10.75 4.6V3.7H15.25V4.6H10.75Z" fill="#808080"/>
<path d="M2.525 13.35C2.46833 13.35 2.395 13.3467 2.305 13.34C2.21833 13.3367 2.12333 13.3317 2.02 13.325C1.91667 13.3183 1.81 13.31 1.7 13.3L1.75 12.46C1.83667 12.4667 1.915 12.4733 1.985 12.48C2.05833 12.4867 2.12167 12.4917 2.175 12.495C2.22833 12.4983 2.27 12.5 2.3 12.5C2.38333 12.5 2.44167 12.4967 2.475 12.49C2.50833 12.48 2.52833 12.4567 2.535 12.42C2.545 12.38 2.55 12.315 2.55 12.225V8.95H3.525V12.35C3.525 12.5533 3.51 12.7217 3.48 12.855C3.45333 12.985 3.40333 13.085 3.33 13.155C3.26 13.2283 3.16 13.2783 3.03 13.305C2.9 13.335 2.73167 13.35 2.525 13.35ZM0.5 12.5C0.643333 12.2333 0.775 11.9483 0.895 11.645C1.01833 11.3417 1.12 11.0433 1.2 10.75L2.075 11C1.995 11.2933 1.88833 11.605 1.755 11.935C1.625 12.265 1.48167 12.5783 1.325 12.875L0.5 12.5ZM4.55 12.875C4.49 12.665 4.42 12.45 4.34 12.23C4.26333 12.01 4.18 11.795 4.09 11.585C4.00333 11.3717 3.915 11.1767 3.825 11L4.675 10.7C4.82833 10.9933 4.97 11.3033 5.1 11.63C5.23 11.9567 5.33833 12.2717 5.425 12.575L4.55 12.875ZM0.7 10.45V9.6H5.2V10.45H0.7ZM4.085 9.975C4.05167 9.77833 4.01167 9.59833 3.965 9.435C3.92167 9.26833 3.865 9.09667 3.795 8.92L4.4 8.78C4.46333 8.95 4.51667 9.12167 4.56 9.295C4.60667 9.465 4.64667 9.65 4.68 9.85L4.085 9.975ZM4.89 9.905C4.86333 9.70833 4.82833 9.52833 4.785 9.365C4.745 9.19833 4.695 9.025 4.635 8.845L5.215 8.725C5.28167 8.89833 5.335 9.07167 5.375 9.245C5.415 9.415 5.44833 9.6 5.475 9.8L4.89 9.905ZM6.65 12.4C7.09667 12.36 7.465 12.2933 7.755 12.2C8.045 12.1067 8.27333 11.9717 8.44 11.795C8.61 11.6183 8.72833 11.3867 8.795 11.1C8.865 10.81 8.9 10.45 8.9 10.02L9.76 10.06C9.76 10.5933 9.70667 11.05 9.6 11.43C9.49667 11.81 9.32833 12.1233 9.095 12.37C8.865 12.6133 8.56 12.8017 8.18 12.935C7.80333 13.0683 7.34333 13.1567 6.8 13.2L6.65 12.4ZM6.56 11.7C6.51667 11.46 6.46333 11.2183 6.4 10.975C6.33667 10.7283 6.27 10.4967 6.2 10.28L7.015 10.09C7.08167 10.2933 7.145 10.5183 7.205 10.765C7.26833 11.0117 7.32667 11.2633 7.38 11.52L6.56 11.7ZM7.64 11.6C7.59 11.3433 7.53333 11.0933 7.47 10.85C7.41 10.6033 7.34667 10.3733 7.28 10.16L8.095 9.97C8.16167 10.1933 8.22667 10.43 8.29 10.68C8.35667 10.93 8.41333 11.1767 8.46 11.42L7.64 11.6ZM14.95 12.15C14.43 11.9767 13.92 11.82 13.42 11.68C12.92 11.5367 12.45 11.415 12.01 11.315L12.26 10.415C12.7433 10.5217 13.2433 10.6483 13.76 10.795C14.28 10.9383 14.7767 11.09 15.25 11.25L14.95 12.15ZM11.4 13.4V9H12.4V13.4H11.4Z" fill="#808080"/>
<g filter="url(#filter0_d_508_38)">
<g clip-path="url(#clip1_508_38)">
<path d="M12.3056 8C12.6891 8 13 7.56472 13 7.02778C13 6.49083 12.6891 6.05556 12.3056 6.05556C11.922 6.05556 11.6111 6.49083 11.6111 7.02778C11.6111 7.56472 11.922 8 12.3056 8Z" fill="#F4900C"/>
<path d="M3.69444 8C4.07798 8 4.38889 7.56472 4.38889 7.02778C4.38889 6.49083 4.07798 6.05556 3.69444 6.05556C3.31091 6.05556 3 6.49083 3 7.02778C3 7.56472 3.31091 8 3.69444 8Z" fill="#F4900C"/>
<path d="M12.4444 8.27778C12.4444 8.35145 12.4152 8.4221 12.3631 8.4742C12.311 8.52629 12.2403 8.55556 12.1667 8.55556H11.3333C11.2596 8.55556 11.189 8.52629 11.1369 8.4742C11.0848 8.4221 11.0555 8.35145 11.0555 8.27778V5.77778C11.0555 5.70411 11.0848 5.63345 11.1369 5.58136C11.189 5.52927 11.2596 5.5 11.3333 5.5H12.1667C12.2403 5.5 12.311 5.52927 12.3631 5.58136C12.4152 5.63345 12.4444 5.70411 12.4444 5.77778V8.27778ZM4.94443 8.27778C4.94443 8.35145 4.91517 8.4221 4.86307 8.4742C4.81098 8.52629 4.74032 8.55556 4.66665 8.55556H3.83332C3.75965 8.55556 3.68899 8.52629 3.6369 8.4742C3.58481 8.4221 3.55554 8.35145 3.55554 8.27778V5.77778C3.55554 5.70411 3.58481 5.63345 3.6369 5.58136C3.68899 5.52927 3.75965 5.5 3.83332 5.5H4.66665C4.74032 5.5 4.81098 5.52927 4.86307 5.58136C4.91517 5.63345 4.94443 5.70411 4.94443 5.77778V8.27778Z" fill="#FFAC33"/>
<path d="M10.7778 4.38889C10.7778 5.15583 9.5339 5.5 8.00001 5.5C6.46612 5.5 5.22223 5.15583 5.22223 4.38889C5.22223 3.62194 6.46584 3 8.00001 3C9.53417 3 10.7778 3.62194 10.7778 4.38889Z" fill="#FFCC4D"/>
<path d="M9.94443 4.13417C9.94443 4.58167 9.0736 4.94444 7.99999 4.94444C6.92638 4.94444 6.05554 4.58167 6.05554 4.13417C6.05554 3.68667 6.9261 3.32389 7.99999 3.32389C9.07388 3.32389 9.94443 3.68667 9.94443 4.13417Z" fill="#F4900C"/>
<path d="M11.3333 4.52778C11.3333 4.91139 11.0225 4.94444 10.6389 4.94444H5.3611C4.97749 4.94444 4.66666 4.91139 4.66666 4.52778C4.66666 4.14417 4.97749 3.83333 5.3611 3.83333H10.6389C10.8231 3.83333 10.9997 3.9065 11.1299 4.03673C11.2602 4.16697 11.3333 4.3436 11.3333 4.52778Z" fill="#226699"/>
<path d="M11.3333 4.66667H4.66667C4.51933 4.66667 4.37802 4.7252 4.27383 4.82938C4.16965 4.93357 4.11111 5.07488 4.11111 5.22222V12.4444H11.8889V5.22222C11.8889 5.07488 11.8304 4.93357 11.7262 4.82938C11.622 4.7252 11.4807 4.66667 11.3333 4.66667Z" fill="#55ACEE"/>
<path d="M12.7222 12.1667V11.8889C12.7222 11.7415 12.6637 11.6002 12.5595 11.4961C12.4553 11.3919 12.314 11.3333 12.1667 11.3333H9.13082L8.19638 12.2678C8.14428 12.3199 8.07364 12.3491 7.99999 12.3491C7.92633 12.3491 7.85569 12.3199 7.8036 12.2678L6.86915 11.3333H3.83332C3.68598 11.3333 3.54467 11.3919 3.44048 11.4961C3.3363 11.6002 3.27776 11.7415 3.27776 11.8889V12.1667C3.27776 12.4733 3.24888 12.7222 3.55554 12.7222H12.4444C12.7511 12.7222 12.7222 12.4733 12.7222 12.1667Z" fill="#3B88C3"/>
<path d="M9.80554 8.27778C10.4959 8.27778 11.0555 7.71813 11.0555 7.02778C11.0555 6.33742 10.4959 5.77778 9.80554 5.77778C9.11519 5.77778 8.55554 6.33742 8.55554 7.02778C8.55554 7.71813 9.11519 8.27778 9.80554 8.27778Z" fill="white"/>
<path d="M9.80555 7.78361C10.223 7.78361 10.5614 7.44521 10.5614 7.02778C10.5614 6.61034 10.223 6.27194 9.80555 6.27194C9.38811 6.27194 9.04971 6.61034 9.04971 7.02778C9.04971 7.44521 9.38811 7.78361 9.80555 7.78361Z" fill="#DD2E44"/>
<path d="M6.19446 8.27778C6.88481 8.27778 7.44446 7.71813 7.44446 7.02778C7.44446 6.33742 6.88481 5.77778 6.19446 5.77778C5.5041 5.77778 4.94446 6.33742 4.94446 7.02778C4.94446 7.71813 5.5041 8.27778 6.19446 8.27778Z" fill="white"/>
<path d="M11.0556 10.0833C11.0556 10.2675 10.9824 10.4441 10.8522 10.5744C10.7219 10.7046 10.5453 10.7778 10.3611 10.7778H5.6389C5.45472 10.7778 5.27809 10.7046 5.14786 10.5744C5.01762 10.4441 4.94446 10.2675 4.94446 10.0833C4.94446 9.89916 5.01762 9.72252 5.14786 9.59229C5.27809 9.46205 5.45472 9.38889 5.6389 9.38889H10.3611C10.5453 9.38889 10.7219 9.46205 10.8522 9.59229C10.9824 9.72252 11.0556 9.89916 11.0556 10.0833Z" fill="#F5F8FA"/>
<path d="M7.72224 9.38889H8.27779V10.7778H7.72224V9.38889ZM6.33335 9.38889H6.8889V10.7778H6.33335V9.38889ZM9.11112 9.38889H9.66668V10.7778H9.11112V9.38889ZM4.94446 10.0833C4.94443 10.2434 4.99971 10.3986 5.10094 10.5226C5.20218 10.6466 5.34316 10.7319 5.50001 10.7639V9.40278C5.34316 9.4348 5.20218 9.52003 5.10094 9.64404C4.99971 9.76806 4.94443 9.92324 4.94446 10.0833ZM10.5 9.40278V10.7636C10.6568 10.7316 10.7978 10.6464 10.899 10.5224C11.0003 10.3984 11.0556 10.2433 11.0556 10.0832C11.0556 9.92313 11.0003 9.76797 10.899 9.64398C10.7978 9.52 10.6568 9.43479 10.5 9.40278Z" fill="#CCD6DD"/>
<path d="M6.19443 7.78361C6.61187 7.78361 6.95027 7.44521 6.95027 7.02778C6.95027 6.61034 6.61187 6.27194 6.19443 6.27194C5.777 6.27194 5.4386 6.61034 5.4386 7.02778C5.4386 7.44521 5.777 7.78361 6.19443 7.78361Z" fill="#DD2E44"/>
</g>
</g>
</g>
<defs>
<filter id="filter0_d_508_38" x="-1" y="-1" width="18" height="18" filterUnits="userSpaceOnUse" color-interpolation-filters="sRGB">
<feFlood flood-opacity="0" result="BackgroundImageFix"/>
<feColorMatrix in="SourceAlpha" type="matrix" values="0 0 0 0 0 0 0 0 0 0 0 0 0 0 0 0 0 0 127 0" result="hardAlpha"/>
<feOffset/>
<feGaussianBlur stdDeviation="2"/>
<feColorMatrix type="matrix" values="0 0 0 0 0 0 0 0 0 0 0 0 0 0 0 0 0 0 0.25 0"/>
<feBlend mode="normal" in2="BackgroundImageFix" result="effect1_dropShadow_508_38"/>
<feBlend mode="normal" in="SourceGraphic" in2="effect1_dropShadow_508_38" result="shape"/>
</filter>
<clipPath id="clip0_508_38">
<rect width="16" height="16" fill="white"/>
</clipPath>
<clipPath id="clip1_508_38">
<rect width="10" height="10" fill="white" transform="translate(3 3)"/>
</clipPath>
</defs>
</svg>
