<svg width="16" height="16" viewBox="0 0 16 16" fill="none" xmlns="http://www.w3.org/2000/svg">
<path d="M1 8C1 5.64298 1 4.46447 1.73223 3.73223C2.46447 3 3.64298 3 6 3H10C12.357 3 13.5355 3 14.2678 3.73223C15 4.46447 15 5.64298 15 8C15 10.357 15 11.5355 14.2678 12.2678C13.5355 13 12.357 13 10 13H6C3.64298 13 2.46447 13 1.73223 12.2678C1 11.5355 1 10.357 1 8Z" fill="#00687B"/>
<path d="M13 13L12 14L11 13L10 14L9 13L8 14L7 13L6 14L5 13L4 14L3 13V1H13V13Z" fill="#A4FFF7"/>
<path d="M12 2V3H9V2H12Z" fill="black"/>
<path d="M12 4V6H9V4H12Z" fill="black"/>
<path d="M12 7V8H9V7H12Z" fill="black"/>
<path d="M12 9V10H9V9H12Z" fill="black"/>
<path d="M12 11V12H9V11H12Z" fill="black"/>
<path d="M4 5.55263V3.05263C4 2.82018 4.05733 2.63483 4.172 2.49658C4.28667 2.35834 4.43767 2.25307 4.625 2.18079C4.81233 2.10851 5.02592 2.06027 5.26575 2.03605C5.50558 2.01184 5.75033 1.99983 6 2C6.275 2 6.53442 2.01211 6.77825 2.03632C7.02208 2.06053 7.23458 2.10877 7.41575 2.18105C7.59692 2.25334 7.73958 2.3586 7.84375 2.49684C7.94792 2.63509 8 2.82035 8 3.05263V5.55263C8 5.8114 7.91567 6.02965 7.747 6.20737C7.57833 6.38509 7.371 6.47386 7.125 6.47368L7.5 6.86842V7H7L6.5 6.47368H5.5L5 7H4.5V6.86842L4.875 6.47368C4.62917 6.47368 4.42183 6.38491 4.253 6.20737C4.08417 6.02983 3.99983 5.81158 4 5.55263ZM4.5 4.10526H5.75V3.31579H4.5V4.10526ZM6.25 4.10526H7.5V3.31579H6.25V4.10526ZM5.39375 5.57237C5.46458 5.49781 5.5 5.40351 5.5 5.28947C5.5 5.17544 5.46458 5.08114 5.39375 5.00658C5.32292 4.93202 5.23333 4.89474 5.125 4.89474C5.01667 4.89474 4.92708 4.93202 4.85625 5.00658C4.78542 5.08114 4.75 5.17544 4.75 5.28947C4.75 5.40351 4.78542 5.49781 4.85625 5.57237C4.92708 5.64693 5.01667 5.68421 5.125 5.68421C5.23333 5.68421 5.32292 5.64693 5.39375 5.57237ZM7.14375 5.57237C7.21458 5.49781 7.25 5.40351 7.25 5.28947C7.25 5.17544 7.21458 5.08114 7.14375 5.00658C7.07292 4.93202 6.98333 4.89474 6.875 4.89474C6.76667 4.89474 6.67708 4.93202 6.60625 5.00658C6.53542 5.08114 6.5 5.17544 6.5 5.28947C6.5 5.40351 6.53542 5.49781 6.60625 5.57237C6.67708 5.64693 6.76667 5.68421 6.875 5.68421C6.98333 5.68421 7.07292 5.64693 7.14375 5.57237Z" fill="black"/>
</svg>
