<svg width="16" height="16" viewBox="0 0 16 16" fill="none" xmlns="http://www.w3.org/2000/svg">
<path d="M5 3.25H11C11.9498 3.25 12.637 3.25083 13.1611 3.32129C13.678 3.39079 13.9986 3.52399 14.2373 3.7627C14.476 4.0014 14.6092 4.32196 14.6787 4.83887C14.7492 5.36296 14.75 6.05016 14.75 7V9C14.75 9.94984 14.7492 10.637 14.6787 11.1611C14.6092 11.678 14.476 11.9986 14.2373 12.2373C13.9986 12.476 13.678 12.6092 13.1611 12.6787C12.637 12.7492 11.9498 12.75 11 12.75H5C4.05016 12.75 3.36296 12.7492 2.83887 12.6787C2.32196 12.6092 2.0014 12.476 1.7627 12.2373C1.52399 11.9986 1.39079 11.678 1.32129 11.1611C1.25083 10.637 1.25 9.94984 1.25 9V7C1.25 6.05016 1.25083 5.36296 1.32129 4.83887C1.39079 4.32196 1.52399 4.0014 1.7627 3.7627C2.0014 3.52399 2.32196 3.39079 2.83887 3.32129C3.36296 3.25083 4.05016 3.25 5 3.25Z" fill="#A8A8A8" stroke="#858585" stroke-width="0.5"/>
<rect x="5" y="4" width="9" height="4" rx="1" fill="white"/>
</svg>
