<svg width="130" height="130" viewBox="0 0 130 130" fill="none" xmlns="http://www.w3.org/2000/svg">
<rect x="1" y="1" width="128" height="128" rx="8" fill="#101117"/>
<rect x="0.5" y="0.5" width="129" height="129" rx="8.5" stroke="white" stroke-opacity="0.2"/>
<path d="M27.96 46V20.24H52.2C54.4133 20.24 56.3733 20.52 58.08 21.08C59.7867 21.6133 61.12 22.4933 62.08 23.72C63.0667 24.9467 63.56 26.56 63.56 28.56C63.56 29.92 63.32 31.0533 62.84 31.96C62.36 32.8667 61.6933 33.5867 60.84 34.12C60.0133 34.6533 59.0533 35.0533 57.96 35.32C56.8667 35.56 55.7067 35.72 54.48 35.8L52.76 35.36C55.2667 35.3867 57.2533 35.5333 58.72 35.8C60.1867 36.04 61.24 36.5067 61.88 37.2C62.52 37.8667 62.84 38.8533 62.84 40.16V46H55.16V40.96C55.16 40.0533 55 39.36 54.68 38.88C54.36 38.4 53.72 38.0667 52.76 37.88C51.8 37.6933 50.36 37.6 48.44 37.6H35.6V46H27.96ZM35.6 32.2H52.2C53.3467 32.2 54.2533 31.96 54.92 31.48C55.5867 30.9733 55.92 30.2267 55.92 29.24C55.92 28.3067 55.5867 27.6267 54.92 27.2C54.2533 26.7467 53.3467 26.52 52.2 26.52H35.6V32.2ZM74.4119 41.24V36H96.6519V41.24H74.4119ZM66.7319 46L81.3719 20.24H89.8119L104.612 46H96.2119L83.4919 22.88H87.7319L75.0919 46H66.7319ZM27.68 52.24H62.76V58.28L36.68 73.52L36.28 71.96H62.76V78H27.68V71.96L53.84 56.72L54.24 58.28H27.68V52.24ZM68.1097 52.24H103.19V58.28L77.1097 73.52L76.7097 71.96H103.19V78H68.1097V71.96L94.2697 56.72L94.6697 58.28H68.1097V52.24ZM33.24 105.24V100H55.48V105.24H33.24ZM25.56 110L40.2 84.24H48.64L63.44 110H55.04L42.32 86.88H46.56L33.92 110H25.56Z" fill="#FFB900"/>
</svg>
