<svg width="256" height="256" viewBox="0 0 256 256" fill="none" xmlns="http://www.w3.org/2000/svg">
<g clip-path="url(#clip0_32_672)">
<rect width="256" height="256" rx="16" fill="#101117"/>
<g clip-path="url(#clip1_32_672)">
<path fill-rule="evenodd" clip-rule="evenodd" d="M36.598 32H168C179.771 32 194.236 37.01 205.61 49.2942C217.317 61.938 224 80.2832 224 104C224 127.717 217.317 146.062 205.61 158.706C194.236 170.99 179.771 176 168 176H154.632L256 416L211.056 432.854L103.368 176H54.8305L7.99997 416L-38.9345 405.943L36.598 32ZM65.1163 128H167.631C167.684 127.961 168.917 127.684 170.39 126.094C172.016 124.338 176 118.683 176 104C176 89.3168 172.016 83.662 170.39 81.9058C168.917 80.3156 167.684 80.0392 167.631 80H75.402L65.1163 128Z" fill="#FFB900"/>
</g>
</g>
<rect x="1" y="1" width="254" height="254" rx="15" stroke="white" stroke-opacity="0.2" stroke-width="2"/>
<defs>
<clipPath id="clip0_32_672">
<rect width="256" height="256" rx="16" fill="white"/>
</clipPath>
<clipPath id="clip1_32_672">
<rect width="256" height="256" fill="white"/>
</clipPath>
</defs>
</svg>
