<svg width="128" height="128" viewBox="0 0 128 128" fill="none" xmlns="http://www.w3.org/2000/svg">
<path d="M0 48C0 25.3726 0 14.0589 7.02944 7.02944C14.0589 0 25.3726 0 48 0H80C102.627 0 113.941 0 120.971 7.02944C128 14.0589 128 25.3726 128 48V80C128 102.627 128 113.941 120.971 120.971C113.941 128 102.627 128 80 128H48C25.3726 128 14.0589 128 7.02944 120.971C0 113.941 0 102.627 0 80V48Z" fill="#190F2E"/>
<path d="M80 126V128H48V126H80ZM126 80V48C126 36.6298 125.995 28.3029 125.139 21.9316C124.29 15.6181 122.638 11.5245 119.557 8.44336C116.476 5.36224 112.382 3.71021 106.068 2.86133C99.6971 2.00473 91.3702 2 80 2H48C36.6298 2 28.3029 2.00473 21.9316 2.86133C15.6181 3.71021 11.5245 5.36224 8.44336 8.44336C5.36224 11.5245 3.71021 15.6181 2.86133 21.9316C2.00473 28.3029 2 36.6298 2 48V80C2 91.3702 2.00473 99.6971 2.86133 106.068C3.71021 112.382 5.36224 116.476 8.44336 119.557C11.5245 122.638 15.6181 124.29 21.9316 125.139C28.3029 125.995 36.6298 126 48 126V128C25.7262 128 14.4154 128 7.3623 121.295L7.0293 120.971C-0.00014019 113.941 0 102.627 0 80V48C0 25.3726 -0.00014019 14.0587 7.0293 7.0293C14.0587 -0.00014019 25.3726 0 48 0H80C102.627 0 113.941 -0.00014019 120.971 7.0293C128 14.0587 128 25.3726 128 48V80C128 102.627 128 113.941 120.971 120.971L120.638 121.295C113.585 128 102.274 128 80 128V126C91.3702 126 99.6971 125.995 106.068 125.139C112.382 124.29 116.476 122.638 119.557 119.557C122.638 116.476 124.29 112.382 125.139 106.068C125.995 99.6971 126 91.3702 126 80Z" fill="#BA9CEF"/>
<path fill-rule="evenodd" clip-rule="evenodd" d="M87 16C96.3333 16 115 23.2 115 52C115 88 91 88 83 88L98.8984 127.748C93.6553 127.998 87.4391 128 80 128H75L59 88H35.5713L27.0771 127.637C17.5457 127.026 11.4429 125.384 7.0293 120.971C6.2822 120.224 5.61529 119.428 5.01855 118.575L27 16H87ZM40.7139 64H79C83 64 91 61.6 91 52C91 40 83 40 83 40H45.8574L40.7139 64Z" fill="#BA9CEF"/>
</svg>
