<svg width="16" height="16" viewBox="0 0 16 16" fill="none" xmlns="http://www.w3.org/2000/svg">
<path d="M1.5 10.5L9.5 12.5L14.5 9.5L6.5 7.5L1.5 10.5Z" fill="url(#paint0_linear_451_2)"/>
<path d="M1.5 10.5V11.5V12.5L9.5 14.5V13.5V12.5L1.5 10.5Z" fill="url(#paint1_linear_451_2)"/>
<path d="M9.5 12.5V13.5V14.5L14.5 11.5V9.5L9.5 12.5Z" fill="url(#paint2_linear_451_2)"/>
<path d="M1.5 10.5L9.5 12.5M1.5 10.5L6.5 7.5L14.5 9.5M1.5 10.5V11.5M9.5 12.5L14.5 9.5M9.5 12.5V13.5M9.5 14.5L1.5 12.5V11.5M9.5 14.5L14.5 11.5V9.5M9.5 14.5V13.5M1.5 11.5L9.5 13.5" stroke="#5E5E5E" stroke-width="0.5" stroke-linejoin="round"/>
<path d="M3.5 9L11.5 11L12.5 4.5L4.5 2.5L3.5 9Z" fill="url(#paint3_linear_451_2)"/>
<path d="M4.5 2.5L12.5 4.5L14.5 3.5L6.5 1.5L4.5 2.5Z" fill="url(#paint4_linear_451_2)"/>
<path d="M12.5 4.5L11.5 11L14.5 9.5V3.5L12.5 4.5Z" fill="url(#paint5_linear_451_2)"/>
<path d="M11.5 11L3.5 9L4.5 2.5M11.5 11L12.5 4.5M11.5 11L14.5 9.5V3.5M12.5 4.5L4.5 2.5M12.5 4.5L14.5 3.5M4.5 2.5L6.5 1.5L14.5 3.5" stroke="#5E5E5E" stroke-width="0.5" stroke-linejoin="round"/>
<defs>
<linearGradient id="paint0_linear_451_2" x1="8" y1="7.5" x2="8" y2="14.5" gradientUnits="userSpaceOnUse">
<stop stop-color="#E7E5E5"/>
<stop offset="1" stop-color="#817F7F"/>
</linearGradient>
<linearGradient id="paint1_linear_451_2" x1="8" y1="7.5" x2="8" y2="14.5" gradientUnits="userSpaceOnUse">
<stop stop-color="#E7E5E5"/>
<stop offset="1" stop-color="#817F7F"/>
</linearGradient>
<linearGradient id="paint2_linear_451_2" x1="8" y1="7.5" x2="8" y2="14.5" gradientUnits="userSpaceOnUse">
<stop stop-color="#E7E5E5"/>
<stop offset="1" stop-color="#817F7F"/>
</linearGradient>
<linearGradient id="paint3_linear_451_2" x1="9" y1="1.5" x2="9" y2="11" gradientUnits="userSpaceOnUse">
<stop stop-color="#E7E5E5"/>
<stop offset="1" stop-color="#817F7F"/>
</linearGradient>
<linearGradient id="paint4_linear_451_2" x1="9" y1="1.5" x2="9" y2="11" gradientUnits="userSpaceOnUse">
<stop stop-color="#E7E5E5"/>
<stop offset="1" stop-color="#817F7F"/>
</linearGradient>
<linearGradient id="paint5_linear_451_2" x1="9" y1="1.5" x2="9" y2="11" gradientUnits="userSpaceOnUse">
<stop stop-color="#E7E5E5"/>
<stop offset="1" stop-color="#817F7F"/>
</linearGradient>
</defs>
</svg>
