<svg width="510" height="510" viewBox="0 0 510 510" fill="none" xmlns="http://www.w3.org/2000/svg">
<mask id="path-1-outside-1_2006_2" maskUnits="userSpaceOnUse" x="0" y="151" width="510" height="208" fill="black">
<rect fill="white" y="151" width="510" height="208"/>
<path d="M406 155C461.228 155 506 199.772 506 255C506 310.228 461.228 355 406 355C379.57 355 355.536 344.746 337.656 328H172.344C154.464 344.746 130.43 355 104 355C48.7715 355 4 310.228 4 255C4 199.772 48.7715 155 104 155H406Z"/>
</mask>
<path d="M406 155C461.228 155 506 199.772 506 255C506 310.228 461.228 355 406 355C379.57 355 355.536 344.746 337.656 328H172.344C154.464 344.746 130.43 355 104 355C48.7715 355 4 310.228 4 255C4 199.772 48.7715 155 104 155H406Z" fill="#D9D9D9"/>
<path d="M337.656 328L340.391 325.081L339.237 324H337.656V328ZM172.344 328V324H170.763L169.609 325.081L172.344 328ZM406 155V159C459.019 159 502 201.981 502 255H506H510C510 197.562 463.438 151 406 151V155ZM506 255H502C502 308.019 459.019 351 406 351V355V359C463.438 359 510 312.438 510 255H506ZM406 355V351C380.625 351 357.558 341.16 340.391 325.081L337.656 328L334.922 330.919C353.513 348.332 378.515 359 406 359V355ZM337.656 328V324H172.344V328V332H337.656V328ZM172.344 328L169.609 325.081C152.442 341.16 129.375 351 104 351V355V359C131.485 359 156.487 348.332 175.078 330.919L172.344 328ZM104 355V351C50.9807 351 8 308.019 8 255H4H0C0 312.438 46.5624 359 104 359V355ZM4 255H8C8 201.981 50.9807 159 104 159V155V151C46.5624 151 0 197.562 0 255H4ZM104 155V159H406V155V151H104V155Z" fill="black" mask="url(#path-1-outside-1_2006_2)"/>
<circle cx="406" cy="255" r="95" fill="#5D5D5D"/>
<path d="M119 238C119 239.105 119.895 240 121 240H152C153.105 240 154 240.895 154 242V268C154 269.105 153.105 270 152 270H121C119.895 270 119 270.895 119 272V303C119 304.105 118.105 305 117 305H91C89.8954 305 89 304.105 89 303V272C89 270.895 88.1046 270 87 270H56C54.8954 270 54 269.105 54 268V242C54 240.895 54.8954 240 56 240H87C88.1046 240 89 239.105 89 238V207C89 205.895 89.8954 205 91 205H117C118.105 205 119 205.895 119 207V238Z" fill="black"/>
<path d="M197 175.786C197 171.157 194 170 192.5 170H186.714L185.888 173.857H191.857C191.857 173.857 193.143 173.857 193.143 175.786C193.143 177.329 191.857 177.714 191.214 177.714H185.061L184.235 181.571H188L190.571 188H194.429L191.857 181.571C193.143 181.571 197 181.571 197 175.786Z" fill="black"/>
<path d="M182.857 170L179 188H182.857L184.235 181.571L185.061 177.714L185.888 173.857L186.714 170H182.857Z" fill="black"/>
<path d="M202.504 177V165.72H207.864C209.208 165.72 210.232 166.019 210.936 166.616C211.651 167.203 212.008 168.045 212.008 169.144C212.008 169.709 211.896 170.195 211.672 170.6C211.448 170.995 211.155 171.325 210.792 171.592C210.44 171.848 210.056 172.035 209.64 172.152V172.264L209.736 172.312C209.917 172.387 210.088 172.509 210.248 172.68C210.419 172.84 210.595 173.096 210.776 173.448L212.664 177H209.768L208.024 173.688C207.917 173.485 207.795 173.325 207.656 173.208C207.517 173.091 207.357 173.011 207.176 172.968C207.005 172.915 206.797 172.888 206.552 172.888H205.16V177H202.504ZM205.16 170.84H207.608C208.216 170.84 208.664 170.717 208.952 170.472C209.24 170.216 209.384 169.832 209.384 169.32C209.384 168.819 209.235 168.445 208.936 168.2C208.648 167.955 208.189 167.832 207.56 167.832H205.16V170.84ZM217.349 177.176C216.72 177.176 216.16 177.048 215.669 176.792C215.189 176.525 214.81 176.173 214.533 175.736C214.266 175.299 214.133 174.813 214.133 174.28C214.133 173.704 214.309 173.208 214.661 172.792C215.013 172.376 215.562 172.061 216.309 171.848C217.056 171.624 218.037 171.512 219.253 171.512H220.277V172.984H219.477C218.986 172.984 218.57 173.005 218.229 173.048C217.888 173.091 217.605 173.16 217.381 173.256C217.168 173.341 217.002 173.464 216.885 173.624C216.778 173.784 216.725 173.976 216.725 174.2C216.725 174.563 216.853 174.835 217.109 175.016C217.376 175.187 217.712 175.272 218.117 175.272C218.426 175.272 218.72 175.192 218.997 175.032C219.274 174.872 219.498 174.648 219.669 174.36C219.85 174.072 219.941 173.747 219.941 173.384V171.224C219.941 170.68 219.77 170.312 219.429 170.12C219.088 169.928 218.602 169.832 217.973 169.832C217.557 169.832 217.109 169.901 216.629 170.04C216.149 170.168 215.637 170.387 215.093 170.696L214.437 168.936C214.864 168.701 215.296 168.515 215.733 168.376C216.181 168.237 216.64 168.131 217.109 168.056C217.589 167.981 218.096 167.944 218.629 167.944C219.386 167.944 220.058 168.061 220.645 168.296C221.232 168.531 221.685 168.909 222.005 169.432C222.336 169.944 222.501 170.632 222.501 171.496V177H220.405V175.288H220.293C220.112 175.64 219.888 175.965 219.621 176.264C219.365 176.552 219.05 176.776 218.677 176.936C218.314 177.096 217.872 177.176 217.349 177.176ZM224.663 177V175.224L229.287 169.432L229.303 170.152H224.711V168.104H231.831V169.784L227.143 175.624L227.159 174.952H231.991V177H224.663ZM233.647 177V175.224L238.271 169.432L238.287 170.152H233.695V168.104H240.815V169.784L236.127 175.624L236.143 174.952H240.975V177H233.647ZM245.833 177.176C245.204 177.176 244.644 177.048 244.153 176.792C243.673 176.525 243.295 176.173 243.017 175.736C242.751 175.299 242.617 174.813 242.617 174.28C242.617 173.704 242.793 173.208 243.145 172.792C243.497 172.376 244.047 172.061 244.793 171.848C245.54 171.624 246.521 171.512 247.737 171.512H248.761V172.984H247.961C247.471 172.984 247.055 173.005 246.713 173.048C246.372 173.091 246.089 173.16 245.865 173.256C245.652 173.341 245.487 173.464 245.369 173.624C245.263 173.784 245.209 173.976 245.209 174.2C245.209 174.563 245.337 174.835 245.593 175.016C245.86 175.187 246.196 175.272 246.601 175.272C246.911 175.272 247.204 175.192 247.481 175.032C247.759 174.872 247.983 174.648 248.153 174.36C248.335 174.072 248.425 173.747 248.425 173.384V171.224C248.425 170.68 248.255 170.312 247.913 170.12C247.572 169.928 247.087 169.832 246.457 169.832C246.041 169.832 245.593 169.901 245.113 170.04C244.633 170.168 244.121 170.387 243.577 170.696L242.921 168.936C243.348 168.701 243.78 168.515 244.217 168.376C244.665 168.237 245.124 168.131 245.593 168.056C246.073 167.981 246.58 167.944 247.113 167.944C247.871 167.944 248.543 168.061 249.129 168.296C249.716 168.531 250.169 168.909 250.489 169.432C250.82 169.944 250.985 170.632 250.985 171.496V177H248.889V175.288H248.777C248.596 175.64 248.372 175.965 248.105 176.264C247.849 176.552 247.535 176.776 247.161 176.936C246.799 177.096 246.356 177.176 245.833 177.176Z" fill="black"/>
<path d="M206.76 192.144C205.8 192.144 204.979 191.931 204.296 191.504C203.613 191.077 203.085 190.437 202.712 189.584C202.349 188.731 202.168 187.659 202.168 186.368C202.168 185.088 202.344 184.021 202.696 183.168C203.048 182.304 203.56 181.659 204.232 181.232C204.915 180.795 205.736 180.576 206.696 180.576C207.165 180.576 207.613 180.624 208.04 180.72C208.467 180.805 208.856 180.939 209.208 181.12C209.571 181.291 209.88 181.509 210.136 181.776L209.64 182.928C209.245 182.576 208.803 182.32 208.312 182.16C207.832 182 207.32 181.92 206.776 181.92C205.773 181.92 205.011 182.267 204.488 182.96C203.976 183.653 203.72 184.784 203.72 186.352C203.72 187.952 203.981 189.099 204.504 189.792C205.037 190.485 205.827 190.832 206.872 190.832C207.373 190.832 207.837 190.795 208.264 190.72C208.701 190.645 209.096 190.528 209.448 190.368L208.888 191.04V187.248H206.776V185.92H210.296V191.424C210.029 191.573 209.704 191.701 209.32 191.808C208.936 191.915 208.52 191.995 208.072 192.048C207.635 192.112 207.197 192.144 206.76 192.144ZM215.383 192.16C214.882 192.16 214.434 192.037 214.039 191.792C213.655 191.536 213.351 191.205 213.127 190.8C212.903 190.395 212.791 189.947 212.791 189.456C212.791 188.869 212.951 188.379 213.271 187.984C213.591 187.589 214.055 187.296 214.663 187.104C215.271 186.901 216.012 186.8 216.887 186.8H217.991V187.92H217.095C216.604 187.92 216.183 187.947 215.831 188C215.479 188.053 215.191 188.133 214.967 188.24C214.743 188.347 214.572 188.507 214.455 188.72C214.348 188.923 214.295 189.173 214.295 189.472C214.295 189.963 214.45 190.325 214.759 190.56C215.068 190.784 215.42 190.896 215.815 190.896C216.103 190.896 216.402 190.805 216.711 190.624C217.02 190.432 217.271 190.165 217.463 189.824C217.666 189.472 217.767 189.083 217.767 188.656V185.856C217.767 185.269 217.596 184.869 217.255 184.656C216.924 184.432 216.476 184.32 215.911 184.32C215.538 184.32 215.148 184.379 214.743 184.496C214.348 184.613 213.943 184.821 213.527 185.12L213.031 183.968C213.372 183.744 213.714 183.573 214.055 183.456C214.407 183.328 214.764 183.232 215.127 183.168C215.49 183.104 215.868 183.072 216.263 183.072C216.807 183.072 217.303 183.168 217.751 183.36C218.21 183.541 218.572 183.845 218.839 184.272C219.116 184.688 219.255 185.243 219.255 185.936V192H218.007V190.272H217.863C217.714 190.592 217.522 190.896 217.287 191.184C217.063 191.472 216.791 191.707 216.471 191.888C216.162 192.069 215.799 192.16 215.383 192.16ZM221.891 192V183.216H223.235V184.784H223.363C223.491 184.496 223.662 184.224 223.875 183.968C224.099 183.701 224.366 183.488 224.675 183.328C224.995 183.157 225.347 183.072 225.731 183.072C226.286 183.072 226.755 183.221 227.139 183.52C227.534 183.819 227.779 184.219 227.875 184.72H228.035C228.184 184.315 228.446 183.941 228.819 183.6C229.192 183.248 229.694 183.072 230.323 183.072C230.782 183.072 231.187 183.168 231.539 183.36C231.902 183.552 232.179 183.872 232.371 184.32C232.574 184.757 232.675 185.333 232.675 186.048V192H231.155V186.192C231.155 185.52 231.054 185.056 230.851 184.8C230.648 184.533 230.339 184.4 229.923 184.4C229.56 184.4 229.235 184.485 228.947 184.656C228.659 184.827 228.43 185.067 228.259 185.376C228.099 185.675 228.019 186.011 228.019 186.384V192H226.531V186.192C226.531 185.531 226.403 185.067 226.147 184.8C225.891 184.533 225.608 184.4 225.299 184.4C224.947 184.4 224.627 184.501 224.339 184.704C224.051 184.896 223.822 185.141 223.651 185.44C223.48 185.739 223.395 186.037 223.395 186.336V192H221.891ZM238.8 192.144C238 192.144 237.312 191.989 236.736 191.68C236.16 191.371 235.717 190.88 235.408 190.208C235.099 189.536 234.944 188.667 234.944 187.6C234.944 186.672 235.067 185.872 235.312 185.2C235.568 184.528 235.952 184.005 236.464 183.632C236.987 183.259 237.627 183.072 238.384 183.072C239.088 183.072 239.675 183.237 240.144 183.568C240.624 183.899 240.976 184.395 241.2 185.056C241.435 185.717 241.552 186.528 241.552 187.488V188.096H236.112V186.944H240.496L240.224 187.344C240.224 186.171 240.059 185.371 239.728 184.944C239.408 184.507 238.955 184.288 238.368 184.288C238.037 184.288 237.723 184.384 237.424 184.576C237.136 184.768 236.896 185.088 236.704 185.536C236.512 185.973 236.416 186.592 236.416 187.392V187.824C236.416 188.592 236.517 189.195 236.72 189.632C236.933 190.069 237.221 190.389 237.584 190.592C237.947 190.784 238.379 190.88 238.88 190.88C239.179 190.88 239.515 190.832 239.888 190.736C240.261 190.629 240.581 190.427 240.848 190.128L241.44 191.136C241.013 191.552 240.571 191.824 240.112 191.952C239.664 192.08 239.227 192.144 238.8 192.144ZM251.345 192.144C250.865 192.144 250.385 192.107 249.905 192.032C249.436 191.957 248.999 191.84 248.593 191.68C248.199 191.509 247.857 191.301 247.569 191.056L248.081 189.792C248.38 190.048 248.711 190.251 249.073 190.4C249.436 190.539 249.815 190.64 250.209 190.704C250.604 190.757 250.983 190.784 251.345 190.784C251.953 190.784 252.455 190.635 252.849 190.336C253.244 190.037 253.441 189.568 253.441 188.928C253.441 188.587 253.377 188.309 253.249 188.096C253.121 187.883 252.929 187.712 252.673 187.584C252.428 187.445 252.119 187.323 251.745 187.216L250.161 186.816C249.297 186.581 248.679 186.208 248.305 185.696C247.943 185.173 247.761 184.533 247.761 183.776C247.761 183.115 247.921 182.549 248.241 182.08C248.572 181.6 249.025 181.232 249.601 180.976C250.177 180.709 250.839 180.576 251.585 180.576C252.023 180.576 252.433 180.624 252.817 180.72C253.212 180.805 253.569 180.933 253.889 181.104C254.22 181.264 254.508 181.472 254.753 181.728L254.241 182.992C253.9 182.608 253.505 182.336 253.057 182.176C252.609 182.016 252.145 181.936 251.665 181.936C251.217 181.936 250.812 182.005 250.449 182.144C250.097 182.272 249.815 182.469 249.601 182.736C249.399 182.992 249.297 183.333 249.297 183.76C249.297 184.197 249.409 184.56 249.633 184.848C249.868 185.125 250.241 185.333 250.753 185.472L252.337 185.856C253.233 186.069 253.895 186.432 254.321 186.944C254.748 187.456 254.961 188.091 254.961 188.848C254.961 189.509 254.807 190.091 254.497 190.592C254.199 191.083 253.777 191.467 253.233 191.744C252.7 192.011 252.071 192.144 251.345 192.144ZM258.022 194.88L259.222 191.44V192.992L256.118 183.216H257.75L259.542 190.208H259.718L261.494 183.216H263.03L259.59 194.88H258.022ZM267.329 192.144C266.902 192.144 266.492 192.101 266.097 192.016C265.702 191.941 265.345 191.835 265.025 191.696C264.705 191.547 264.433 191.371 264.209 191.168L264.737 190.112C265.004 190.315 265.27 190.475 265.537 190.592C265.804 190.699 266.076 190.779 266.353 190.832C266.63 190.875 266.897 190.896 267.153 190.896C267.676 190.896 268.097 190.795 268.417 190.592C268.748 190.389 268.913 190.075 268.913 189.648C268.913 189.275 268.817 188.987 268.625 188.784C268.433 188.571 268.124 188.427 267.697 188.352L266.561 188.16C265.846 188.032 265.302 187.744 264.929 187.296C264.566 186.837 264.385 186.304 264.385 185.696C264.385 185.205 264.492 184.768 264.705 184.384C264.918 183.989 265.244 183.675 265.681 183.44C266.129 183.195 266.705 183.072 267.409 183.072C267.75 183.072 268.097 183.109 268.449 183.184C268.801 183.259 269.126 183.371 269.425 183.52C269.724 183.669 269.969 183.845 270.161 184.048L269.601 185.088C269.388 184.885 269.158 184.731 268.913 184.624C268.678 184.517 268.433 184.443 268.177 184.4C267.932 184.347 267.676 184.32 267.409 184.32C266.94 184.32 266.545 184.432 266.225 184.656C265.916 184.869 265.761 185.2 265.761 185.648C265.761 186 265.852 186.277 266.033 186.48C266.214 186.672 266.508 186.805 266.913 186.88L268.001 187.072C268.801 187.221 269.382 187.52 269.745 187.968C270.108 188.416 270.289 188.981 270.289 189.664C270.289 190.155 270.166 190.587 269.921 190.96C269.686 191.333 269.345 191.627 268.897 191.84C268.449 192.043 267.926 192.144 267.329 192.144ZM275.367 192.144C274.524 192.144 273.884 191.915 273.447 191.456C273.01 190.997 272.791 190.293 272.791 189.344V184.496H271.479V183.216H272.887V181.152H274.311V183.216H276.839V184.496H274.311V189.248C274.311 189.856 274.423 190.272 274.647 190.496C274.882 190.72 275.196 190.832 275.591 190.832C275.815 190.832 276.023 190.811 276.215 190.768C276.418 190.725 276.61 190.661 276.791 190.576L277.015 191.792C276.78 191.92 276.519 192.011 276.231 192.064C275.954 192.117 275.666 192.144 275.367 192.144ZM282.284 192.144C281.484 192.144 280.796 191.989 280.22 191.68C279.644 191.371 279.202 190.88 278.892 190.208C278.583 189.536 278.428 188.667 278.428 187.6C278.428 186.672 278.551 185.872 278.796 185.2C279.052 184.528 279.436 184.005 279.948 183.632C280.471 183.259 281.111 183.072 281.868 183.072C282.572 183.072 283.159 183.237 283.628 183.568C284.108 183.899 284.46 184.395 284.684 185.056C284.919 185.717 285.036 186.528 285.036 187.488V188.096H279.596V186.944H283.98L283.708 187.344C283.708 186.171 283.543 185.371 283.212 184.944C282.892 184.507 282.439 184.288 281.852 184.288C281.522 184.288 281.207 184.384 280.908 184.576C280.62 184.768 280.38 185.088 280.188 185.536C279.996 185.973 279.9 186.592 279.9 187.392V187.824C279.9 188.592 280.002 189.195 280.204 189.632C280.418 190.069 280.706 190.389 281.068 190.592C281.431 190.784 281.863 190.88 282.364 190.88C282.663 190.88 282.999 190.832 283.372 190.736C283.746 190.629 284.066 190.427 284.332 190.128L284.924 191.136C284.498 191.552 284.055 191.824 283.596 191.952C283.148 192.08 282.711 192.144 282.284 192.144ZM287.328 192V183.216H288.672V184.784H288.8C288.928 184.496 289.099 184.224 289.312 183.968C289.536 183.701 289.803 183.488 290.112 183.328C290.432 183.157 290.784 183.072 291.168 183.072C291.723 183.072 292.192 183.221 292.576 183.52C292.971 183.819 293.216 184.219 293.312 184.72H293.472C293.622 184.315 293.883 183.941 294.256 183.6C294.63 183.248 295.131 183.072 295.76 183.072C296.219 183.072 296.624 183.168 296.976 183.36C297.339 183.552 297.616 183.872 297.808 184.32C298.011 184.757 298.112 185.333 298.112 186.048V192H296.592V186.192C296.592 185.52 296.491 185.056 296.288 184.8C296.086 184.533 295.776 184.4 295.36 184.4C294.998 184.4 294.672 184.485 294.384 184.656C294.096 184.827 293.867 185.067 293.696 185.376C293.536 185.675 293.456 186.011 293.456 186.384V192H291.968V186.192C291.968 185.531 291.84 185.067 291.584 184.8C291.328 184.533 291.046 184.4 290.736 184.4C290.384 184.4 290.064 184.501 289.776 184.704C289.488 184.896 289.259 185.141 289.088 185.44C288.918 185.739 288.832 186.037 288.832 186.336V192H287.328ZM304.587 192V190.912L307.739 186.768C308.016 186.427 308.235 186.096 308.395 185.776C308.566 185.445 308.694 185.12 308.779 184.8C308.864 184.469 308.907 184.133 308.907 183.792C308.907 183.184 308.747 182.715 308.427 182.384C308.118 182.043 307.702 181.872 307.179 181.872C306.806 181.872 306.4 181.963 305.963 182.144C305.526 182.315 305.126 182.592 304.763 182.976L304.219 181.824C304.656 181.387 305.147 181.072 305.691 180.88C306.246 180.677 306.816 180.576 307.403 180.576C308 180.576 308.518 180.704 308.955 180.96C309.403 181.216 309.75 181.579 309.995 182.048C310.24 182.517 310.363 183.061 310.363 183.68C310.363 184.032 310.32 184.379 310.235 184.72C310.16 185.061 310.048 185.392 309.899 185.712C309.75 186.032 309.579 186.347 309.387 186.656C309.195 186.955 308.998 187.248 308.795 187.536L306.667 190.544L306.635 190.72H310.715V192H304.587Z" fill="black"/>
<circle cx="104" cy="255" r="68" stroke="#5D5D5D" stroke-width="4"/>
<path d="M406.5 290.5L454.5 255.5" stroke="#D9D9D9" stroke-width="50" stroke-linecap="round"/>
<path d="M358.5 255.5L406.5 220.5" stroke="#D9D9D9" stroke-width="50" stroke-linecap="round"/>
<circle cx="454.5" cy="255.5" r="17.5" fill="#FF4D00"/>
<circle cx="358.5" cy="255.5" r="17.5" fill="#00B415"/>
<circle cx="406.5" cy="290.5" r="17.5" fill="#F7FF00"/>
<circle cx="406.5" cy="220.5" r="17.5" fill="#009DFF"/>
<path d="M202 278L221 264" stroke="black" stroke-width="12" stroke-linecap="round"/>
<path d="M265 278L284 264" stroke="black" stroke-width="12" stroke-linecap="round"/>
<path d="M398.714 189L404.402 179.568L404.426 181.248L398.954 172.08H403.49L406.898 178.224H407.066L410.522 172.08H415.058L409.562 181.224V179.568L415.274 189H410.738L407.066 182.592H406.922L403.202 189H398.714Z" fill="#D9D9D9"/>
<path d="M356.487 308V299.192L357.159 301.976L350.103 291.08H354.471L358.431 297.44H358.599L362.559 291.08H366.879L359.799 301.976L360.471 299.192V308H356.487Z" fill="#D9D9D9"/>
<path d="M189.802 308.165C189.352 308.165 188.897 308.13 188.437 308.06C187.977 308 187.547 307.91 187.147 307.79C186.747 307.66 186.402 307.5 186.112 307.31L186.772 305.48C187.052 305.66 187.362 305.805 187.702 305.915C188.042 306.025 188.392 306.105 188.752 306.155C189.122 306.195 189.467 306.215 189.787 306.215C190.237 306.215 190.612 306.12 190.912 305.93C191.212 305.74 191.362 305.42 191.362 304.97C191.362 304.71 191.312 304.51 191.212 304.37C191.122 304.22 190.987 304.105 190.807 304.025C190.627 303.935 190.412 303.86 190.162 303.8L188.707 303.485C187.857 303.305 187.237 302.955 186.847 302.435C186.467 301.905 186.277 301.255 186.277 300.485C186.277 299.835 186.442 299.27 186.772 298.79C187.102 298.31 187.557 297.935 188.137 297.665C188.717 297.395 189.387 297.26 190.147 297.26C190.567 297.26 190.977 297.3 191.377 297.38C191.777 297.45 192.142 297.55 192.472 297.68C192.812 297.81 193.102 297.975 193.342 298.175L192.682 300.005C192.362 299.725 191.982 299.525 191.542 299.405C191.102 299.275 190.677 299.21 190.267 299.21C189.947 299.21 189.657 299.255 189.397 299.345C189.137 299.435 188.932 299.565 188.782 299.735C188.632 299.905 188.557 300.135 188.557 300.425C188.557 300.755 188.647 301.02 188.827 301.22C189.017 301.41 189.307 301.55 189.697 301.64L191.122 301.94C191.952 302.1 192.572 302.425 192.982 302.915C193.402 303.405 193.612 304.035 193.612 304.805C193.612 305.485 193.452 306.08 193.132 306.59C192.822 307.09 192.382 307.48 191.812 307.76C191.242 308.03 190.572 308.165 189.802 308.165ZM195.569 308V297.425H201.929V299.315H197.819V301.715H201.614V303.59H197.819V306.11H201.929V308H195.569ZM204.271 308V297.425H206.566V306.05H210.451V308H204.271ZM212.371 308V297.425H218.731V299.315H214.621V301.715H218.416V303.59H214.621V306.11H218.731V308H212.371ZM225.152 308.18C224.282 308.18 223.517 307.97 222.857 307.55C222.207 307.13 221.702 306.515 221.342 305.705C220.982 304.895 220.802 303.895 220.802 302.705C220.802 301.515 220.982 300.515 221.342 299.705C221.712 298.895 222.222 298.285 222.872 297.875C223.522 297.465 224.287 297.26 225.167 297.26C225.817 297.26 226.382 297.335 226.862 297.485C227.352 297.635 227.777 297.895 228.137 298.265L227.492 300.005C227.142 299.715 226.797 299.515 226.457 299.405C226.117 299.295 225.747 299.24 225.347 299.24C224.667 299.24 224.122 299.51 223.712 300.05C223.312 300.58 223.112 301.46 223.112 302.69C223.112 303.92 223.312 304.815 223.712 305.375C224.112 305.925 224.662 306.2 225.362 306.2C225.752 306.2 226.117 306.145 226.457 306.035C226.797 305.915 227.142 305.71 227.492 305.42L228.137 307.16C227.767 307.52 227.337 307.78 226.847 307.94C226.367 308.1 225.802 308.18 225.152 308.18ZM232.18 308V299.39H229.435V297.425H237.22V299.39H234.475V308H232.18Z" fill="#5D5D5D"/>
<path d="M255.862 308.165C255.412 308.165 254.957 308.13 254.497 308.06C254.037 308 253.607 307.91 253.207 307.79C252.807 307.66 252.462 307.5 252.172 307.31L252.832 305.48C253.112 305.66 253.422 305.805 253.762 305.915C254.102 306.025 254.452 306.105 254.812 306.155C255.182 306.195 255.527 306.215 255.847 306.215C256.297 306.215 256.672 306.12 256.972 305.93C257.272 305.74 257.422 305.42 257.422 304.97C257.422 304.71 257.372 304.51 257.272 304.37C257.182 304.22 257.047 304.105 256.867 304.025C256.687 303.935 256.472 303.86 256.222 303.8L254.767 303.485C253.917 303.305 253.297 302.955 252.907 302.435C252.527 301.905 252.337 301.255 252.337 300.485C252.337 299.835 252.502 299.27 252.832 298.79C253.162 298.31 253.617 297.935 254.197 297.665C254.777 297.395 255.447 297.26 256.207 297.26C256.627 297.26 257.037 297.3 257.437 297.38C257.837 297.45 258.202 297.55 258.532 297.68C258.872 297.81 259.162 297.975 259.402 298.175L258.742 300.005C258.422 299.725 258.042 299.525 257.602 299.405C257.162 299.275 256.737 299.21 256.327 299.21C256.007 299.21 255.717 299.255 255.457 299.345C255.197 299.435 254.992 299.565 254.842 299.735C254.692 299.905 254.617 300.135 254.617 300.425C254.617 300.755 254.707 301.02 254.887 301.22C255.077 301.41 255.367 301.55 255.757 301.64L257.182 301.94C258.012 302.1 258.632 302.425 259.042 302.915C259.462 303.405 259.672 304.035 259.672 304.805C259.672 305.485 259.512 306.08 259.192 306.59C258.882 307.09 258.442 307.48 257.872 307.76C257.302 308.03 256.632 308.165 255.862 308.165ZM263.493 308V299.39H260.748V297.425H268.533V299.39H265.788V308H263.493ZM268.254 308L272.199 297.425H274.254L278.199 308H275.799L274.869 305.06L275.709 305.93H270.669L271.509 305.06L270.564 308H268.254ZM273.159 299.72L271.584 304.505L271.374 304.07H275.004L274.779 304.505L273.234 299.72H273.159ZM279.588 308V297.425H283.743C284.793 297.425 285.603 297.705 286.173 298.265C286.753 298.815 287.043 299.6 287.043 300.62C287.043 301.16 286.963 301.62 286.803 302C286.643 302.38 286.438 302.69 286.188 302.93C285.948 303.17 285.703 303.35 285.453 303.47V303.56L285.528 303.605C285.628 303.675 285.733 303.795 285.843 303.965C285.953 304.125 286.073 304.365 286.203 304.685L287.583 308H285.063L283.863 304.985C283.773 304.775 283.678 304.61 283.578 304.49C283.488 304.37 283.378 304.285 283.248 304.235C283.128 304.175 282.968 304.145 282.768 304.145H281.883V308H279.588ZM281.883 302.36H283.533C283.953 302.36 284.268 302.225 284.478 301.955C284.688 301.685 284.793 301.295 284.793 300.785C284.793 300.285 284.683 299.905 284.463 299.645C284.253 299.385 283.928 299.255 283.488 299.255H281.883V302.36ZM291.12 308V299.39H288.375V297.425H296.16V299.39H293.415V308H291.12Z" fill="#5D5D5D"/>
<path d="M399.522 342V325.08H407.538C409.458 325.08 410.962 325.456 412.05 326.208C413.154 326.96 413.706 328.048 413.706 329.472C413.706 330.448 413.458 331.248 412.962 331.872C412.482 332.48 411.922 332.904 411.282 333.144V333.288C411.778 333.416 412.242 333.64 412.674 333.96C413.106 334.28 413.458 334.704 413.73 335.232C414.002 335.76 414.138 336.416 414.138 337.2C414.138 338.192 413.882 339.048 413.37 339.768C412.874 340.488 412.146 341.04 411.186 341.424C410.226 341.808 409.082 342 407.754 342H399.522ZM403.434 338.88H407.706C408.026 338.88 408.322 338.856 408.594 338.808C408.866 338.744 409.106 338.656 409.314 338.544C409.522 338.432 409.69 338.296 409.818 338.136C409.962 337.976 410.066 337.8 410.13 337.608C410.21 337.4 410.25 337.176 410.25 336.936C410.25 336.664 410.21 336.424 410.13 336.216C410.05 336.008 409.938 335.832 409.794 335.688C409.65 335.544 409.474 335.424 409.266 335.328C409.058 335.216 408.826 335.144 408.57 335.112C408.314 335.064 408.026 335.04 407.706 335.04H403.434V338.88ZM403.434 331.944H407.298C408.162 331.944 408.794 331.784 409.194 331.464C409.594 331.144 409.794 330.664 409.794 330.024C409.794 329.432 409.594 328.984 409.194 328.68C408.794 328.36 408.162 328.2 407.298 328.2H403.434V331.944Z" fill="#D9D9D9"/>
<path d="M449.515 220L457.219 203.08H460.747L468.475 220H464.323L462.331 215.32L463.963 216.832H453.955L455.563 215.32L453.571 220H449.515ZM458.875 207.064L455.803 214.408L455.203 213.568H462.715L462.091 214.408L459.043 207.064H458.875Z" fill="#D9D9D9"/>
</svg>
