<svg width="16" height="16" viewBox="0 0 16 16" fill="none" xmlns="http://www.w3.org/2000/svg">
<path d="M1 7C1 5.11438 1 4.17157 1.58579 3.58579C2.17157 3 3.11438 3 5 3H11C12.8856 3 13.8284 3 14.4142 3.58579C15 4.17157 15 5.11438 15 7V9C15 10.8856 15 11.8284 14.4142 12.4142C13.8284 13 12.8856 13 11 13H5C3.11438 13 2.17157 13 1.58579 12.4142C1 11.8284 1 10.8856 1 9V7Z" fill="#0078D7"/>
<rect x="4.46446" y="1.87627" width="10" height="10" rx="1" transform="rotate(15 4.46446 1.87627)" fill="white"/>
<rect x="9.03528" y="4.1363" width="4" height="1" rx="0.5" transform="rotate(15 9.03528 4.1363)" fill="#0078D7"/>
<rect x="10.8978" y="8.77645" width="4" height="1" rx="0.5" transform="rotate(-75 10.8978 8.77645)" fill="#0078D7"/>
<rect x="6.96472" y="11.8637" width="4" height="1" rx="0.5" transform="rotate(-165 6.96472 11.8637)" fill="#0078D7"/>
<rect x="5.10222" y="7.22354" width="4" height="1" rx="0.5" transform="rotate(105 5.10222 7.22354)" fill="#0078D7"/>
</svg>
