<svg width="16" height="16" viewBox="0 0 16 16" fill="none" xmlns="http://www.w3.org/2000/svg">
<path d="M1 8C1 5.64298 1 4.46447 1.73223 3.73223C2.46447 3 3.64298 3 6 3H10C12.357 3 13.5355 3 14.2678 3.73223C15 4.46447 15 5.64298 15 8C15 10.357 15 11.5355 14.2678 12.2678C13.5355 13 12.357 13 10 13H6C3.64298 13 2.46447 13 1.73223 12.2678C1 11.5355 1 10.357 1 8Z" fill="#EE5300"/>
<path d="M11.9331 4.91278C13 5.19866 13.6332 6.29533 13.3473 7.36227L12.0532 12.1919C11.9102 12.7254 11.3619 13.0419 10.8284 12.899L3.10102 10.8284C2.56756 10.6855 2.25098 10.1372 2.39392 9.6037L3.68801 4.77408C3.9739 3.70714 5.07057 3.07398 6.1375 3.35986L11.9331 4.91278ZM5.87868 4.32579C5.34522 4.18285 4.79688 4.49943 4.65394 5.03289L4.1363 6.96475C3.99336 7.49821 4.30994 8.04655 4.84341 8.18949L10.639 9.74241C11.1724 9.88535 11.7208 9.56876 11.8637 9.0353L12.3813 7.10345C12.5243 6.56998 12.2077 6.02164 11.6742 5.8787L5.87868 4.32579Z" fill="white"/>
</svg>
