<svg width="16" height="16" viewBox="0 0 16 16" fill="none" xmlns="http://www.w3.org/2000/svg">
<g clip-path="url(#clip0_434_90)">
<g filter="url(#filter0_d_434_90)">
<path d="M2 7C2 3.68629 4.68629 1 8 1V1C11.3137 1 14 3.68629 14 7V14C14 14.5523 13.5523 15 13 15H3C2.44772 15 2 14.5523 2 14V7Z" fill="url(#paint0_radial_434_90)"/>
</g>
<g filter="url(#filter1_i_434_90)">
<path d="M3 7C3 4.23858 5.23858 2 8 2V2C10.7614 2 13 4.23858 13 7V14H3V7Z" fill="#606060"/>
</g>
<g filter="url(#filter2_d_434_90)">
<path d="M7.42645 11.5692C6.75918 11.3904 6.25161 10.9997 5.90376 10.3972C5.5559 9.79473 5.47137 9.15985 5.65016 8.49257C5.82896 7.8253 6.21961 7.31773 6.82211 6.96988C7.42462 6.62202 8.05951 6.53749 8.72678 6.71629C8.95931 6.7786 9.16678 6.86409 9.34918 6.97278C9.53157 7.08147 9.69872 7.21555 9.85061 7.37501L11.5654 0.975248L15.2051 1.9505L14.5549 4.37694L12.1285 3.72678L10.5031 9.7929C10.3243 10.4602 9.93362 10.9677 9.33111 11.3156C8.72861 11.6635 8.09372 11.748 7.42645 11.5692Z" fill="white"/>
</g>
</g>
<defs>
<filter id="filter0_d_434_90" x="1" y="0" width="14" height="16" filterUnits="userSpaceOnUse" color-interpolation-filters="sRGB">
<feFlood flood-opacity="0" result="BackgroundImageFix"/>
<feColorMatrix in="SourceAlpha" type="matrix" values="0 0 0 0 0 0 0 0 0 0 0 0 0 0 0 0 0 0 127 0" result="hardAlpha"/>
<feOffset/>
<feGaussianBlur stdDeviation="0.5"/>
<feComposite in2="hardAlpha" operator="out"/>
<feColorMatrix type="matrix" values="0 0 0 0 0 0 0 0 0 0 0 0 0 0 0 0 0 0 0.63 0"/>
<feBlend mode="normal" in2="BackgroundImageFix" result="effect1_dropShadow_434_90"/>
<feBlend mode="normal" in="SourceGraphic" in2="effect1_dropShadow_434_90" result="shape"/>
</filter>
<filter id="filter1_i_434_90" x="3" y="2" width="10" height="12" filterUnits="userSpaceOnUse" color-interpolation-filters="sRGB">
<feFlood flood-opacity="0" result="BackgroundImageFix"/>
<feBlend mode="normal" in="SourceGraphic" in2="BackgroundImageFix" result="shape"/>
<feColorMatrix in="SourceAlpha" type="matrix" values="0 0 0 0 0 0 0 0 0 0 0 0 0 0 0 0 0 0 127 0" result="hardAlpha"/>
<feOffset/>
<feGaussianBlur stdDeviation="0.5"/>
<feComposite in2="hardAlpha" operator="arithmetic" k2="-1" k3="1"/>
<feColorMatrix type="matrix" values="0 0 0 0 0 0 0 0 0 0 0 0 0 0 0 0 0 0 0.5 0"/>
<feBlend mode="normal" in2="shape" result="effect1_innerShadow_434_90"/>
</filter>
<filter id="filter2_d_434_90" x="4.55911" y="0.97525" width="11.646" height="12.685" filterUnits="userSpaceOnUse" color-interpolation-filters="sRGB">
<feFlood flood-opacity="0" result="BackgroundImageFix"/>
<feColorMatrix in="SourceAlpha" type="matrix" values="0 0 0 0 0 0 0 0 0 0 0 0 0 0 0 0 0 0 127 0" result="hardAlpha"/>
<feOffset dy="1"/>
<feGaussianBlur stdDeviation="0.5"/>
<feComposite in2="hardAlpha" operator="out"/>
<feColorMatrix type="matrix" values="0 0 0 0 0 0 0 0 0 0 0 0 0 0 0 0 0 0 0.25 0"/>
<feBlend mode="normal" in2="BackgroundImageFix" result="effect1_dropShadow_434_90"/>
<feBlend mode="normal" in="SourceGraphic" in2="effect1_dropShadow_434_90" result="shape"/>
</filter>
<radialGradient id="paint0_radial_434_90" cx="0" cy="0" r="1" gradientUnits="userSpaceOnUse" gradientTransform="translate(8 1) rotate(90) scale(14 32.0245)">
<stop stop-color="#FF5555"/>
<stop stop-color="#606060"/>
<stop offset="0.0001" stop-color="#FF5555"/>
<stop offset="0.16" stop-color="#0078D7"/>
<stop offset="0.365" stop-color="#FFFF55"/>
<stop offset="0.565" stop-color="#29CB00"/>
<stop offset="0.785" stop-color="#FF55FF"/>
<stop offset="1" stop-color="#0063B1"/>
</radialGradient>
<clipPath id="clip0_434_90">
<rect width="16" height="16" fill="white"/>
</clipPath>
</defs>
</svg>
