<svg width="16" height="16" viewBox="0 0 16 16" fill="none" xmlns="http://www.w3.org/2000/svg">
<g filter="url(#filter0_d_134_22)">
<rect x="1" y="3" width="14" height="10" rx="2" fill="url(#paint0_linear_134_22)"/>
</g>
<g clip-path="url(#clip0_134_22)">
<rect x="1" y="3" width="14" height="10" rx="2" fill="#250074"/>
<line x1="4" y1="3" x2="4" y2="13" stroke="#0063D7"/>
<line x1="8" y1="3" x2="8" y2="13" stroke="#0063D7"/>
<line x1="12" y1="3" x2="12" y2="13" stroke="#0063D7"/>
<line x1="15" y1="5.5" x2="1" y2="5.5" stroke="#0063D7"/>
<line x1="15" y1="10.5" x2="1" y2="10.5" stroke="#0063D7"/>
<line x1="15" y1="8" x2="1" y2="8" stroke="#0063D7"/>
</g>
<rect x="1.5" y="3.5" width="13" height="9" rx="1.5" stroke="#0063D7"/>
<path d="M6.76269 11.732L1.80669 8.756V7.04L6.76269 4.124V6.002L4.74069 7.22L3.48669 7.91V7.946L4.74069 8.624L6.76269 9.854V11.732ZM9.242 11.732V9.854L11.264 8.624L12.518 7.946V7.91L11.264 7.22L9.242 6.002V4.124L14.198 7.04V8.756L9.242 11.732Z" fill="white"/>
<defs>
<filter id="filter0_d_134_22" x="0" y="2.2" width="16" height="12" filterUnits="userSpaceOnUse" color-interpolation-filters="sRGB">
<feFlood flood-opacity="0" result="BackgroundImageFix"/>
<feColorMatrix in="SourceAlpha" type="matrix" values="0 0 0 0 0 0 0 0 0 0 0 0 0 0 0 0 0 0 127 0" result="hardAlpha"/>
<feOffset dy="0.2"/>
<feGaussianBlur stdDeviation="0.5"/>
<feColorMatrix type="matrix" values="0 0 0 0 0 0 0 0 0 0 0 0 0 0 0 0 0 0 0.25 0"/>
<feBlend mode="normal" in2="BackgroundImageFix" result="effect1_dropShadow_134_22"/>
<feBlend mode="normal" in="SourceGraphic" in2="effect1_dropShadow_134_22" result="shape"/>
</filter>
<linearGradient id="paint0_linear_134_22" x1="8" y1="3" x2="8" y2="13" gradientUnits="userSpaceOnUse">
<stop stop-color="#29CB00"/>
<stop offset="1" stop-color="#00A8B3"/>
</linearGradient>
<clipPath id="clip0_134_22">
<rect x="1" y="3" width="14" height="10" rx="2" fill="white"/>
</clipPath>
</defs>
</svg>
