<svg width="16" height="16" viewBox="0 0 16 16" fill="none" xmlns="http://www.w3.org/2000/svg">
<g filter="url(#filter0_d_433_84)">
<rect x="1" y="3" width="14" height="10" rx="2" fill="url(#paint0_linear_433_84)"/>
</g>
<g filter="url(#filter1_d_433_84)">
<rect x="4.46447" y="1.87627" width="10" height="10" rx="1" transform="rotate(15 4.46447 1.87627)" fill="white"/>
<mask id="mask0_433_84" style="mask-type:alpha" maskUnits="userSpaceOnUse" x="2" y="2" width="12" height="12">
<rect x="4.46447" y="1.87627" width="10" height="10" rx="1" transform="rotate(15 4.46447 1.87627)" fill="white"/>
</mask>
<g mask="url(#mask0_433_84)">
<rect x="5.17157" y="3.10102" width="2" height="2" transform="rotate(15 5.17157 3.10102)" fill="black"/>
<rect x="4.65393" y="5.03287" width="2" height="2" transform="rotate(15 4.65393 5.03287)" fill="#AA0000"/>
<rect x="4.1363" y="6.96472" width="2" height="2" transform="rotate(15 4.1363 6.96472)" fill="#555555"/>
<rect x="3.61866" y="8.89658" width="2" height="2" transform="rotate(15 3.61866 8.89658)" fill="#FF5555"/>
<rect x="7.10342" y="3.61866" width="2" height="2" transform="rotate(15 7.10342 3.61866)" fill="#0000AA"/>
<rect x="6.58578" y="5.55051" width="2" height="2" transform="rotate(15 6.58578 5.55051)" fill="#AA00AA"/>
<rect x="6.06815" y="7.48236" width="2" height="2" transform="rotate(15 6.06815 7.48236)" fill="#5555FF"/>
<rect x="5.55051" y="9.41422" width="2" height="2" transform="rotate(15 5.55051 9.41422)" fill="#FF55FF"/>
<rect x="9.03527" y="4.13629" width="2" height="2" transform="rotate(15 9.03527 4.13629)" fill="#00AA00"/>
<rect x="8.51764" y="6.06815" width="2" height="2" transform="rotate(15 8.51764 6.06815)" fill="#AAAA00"/>
<rect x="8" y="8" width="2" height="2" transform="rotate(15 8 8)" fill="#55FF55"/>
<rect x="7.48236" y="9.93185" width="2" height="2" transform="rotate(15 7.48236 9.93185)" fill="#FFFF55"/>
<rect x="10.9671" y="4.65393" width="2" height="2" transform="rotate(15 10.9671 4.65393)" fill="#00AAAA"/>
<rect x="10.4495" y="6.58578" width="2" height="2" transform="rotate(15 10.4495 6.58578)" fill="#AAAAAA"/>
<rect x="9.93185" y="8.51764" width="2" height="2" transform="rotate(15 9.93185 8.51764)" fill="#55FFFF"/>
<rect x="9.41422" y="10.4495" width="2" height="2" transform="rotate(15 9.41422 10.4495)" fill="white"/>
</g>
</g>
<g filter="url(#filter2_d_433_84)">
<path d="M11.9588 1.26387L11.2971 1.92559L13.0744 3.70293L13.7361 3.04121C14.0779 2.69942 14.0779 2.14571 13.7361 1.80391L13.1975 1.26387C12.8557 0.922073 12.302 0.922073 11.9602 1.26387H11.9588ZM10.9881 2.23457L7.80117 5.42285C7.65898 5.56504 7.55508 5.74141 7.49766 5.93418L7.01367 7.57891C6.97949 7.69512 7.01094 7.81953 7.0957 7.9043C7.18047 7.98907 7.30488 8.02051 7.41973 7.9877L9.06445 7.50371C9.25723 7.44629 9.43359 7.34239 9.57578 7.2002L12.7654 4.01192L10.9881 2.23457Z" fill="white"/>
</g>
<defs>
<filter id="filter0_d_433_84" x="0" y="2.2" width="16" height="12" filterUnits="userSpaceOnUse" color-interpolation-filters="sRGB">
<feFlood flood-opacity="0" result="BackgroundImageFix"/>
<feColorMatrix in="SourceAlpha" type="matrix" values="0 0 0 0 0 0 0 0 0 0 0 0 0 0 0 0 0 0 127 0" result="hardAlpha"/>
<feOffset dy="0.2"/>
<feGaussianBlur stdDeviation="0.5"/>
<feColorMatrix type="matrix" values="0 0 0 0 0 0 0 0 0 0 0 0 0 0 0 0 0 0 0.25 0"/>
<feBlend mode="normal" in2="BackgroundImageFix" result="effect1_dropShadow_433_84"/>
<feBlend mode="normal" in="SourceGraphic" in2="effect1_dropShadow_433_84" result="shape"/>
</filter>
<filter id="filter1_d_433_84" x="1.10077" y="1.30077" width="13.7985" height="13.7985" filterUnits="userSpaceOnUse" color-interpolation-filters="sRGB">
<feFlood flood-opacity="0" result="BackgroundImageFix"/>
<feColorMatrix in="SourceAlpha" type="matrix" values="0 0 0 0 0 0 0 0 0 0 0 0 0 0 0 0 0 0 127 0" result="hardAlpha"/>
<feOffset dy="0.2"/>
<feGaussianBlur stdDeviation="0.5"/>
<feColorMatrix type="matrix" values="0 0 0 0 0 0 0 0 0 0 0 0 0 0 0 0 0 0 0.25 0"/>
<feBlend mode="normal" in2="BackgroundImageFix" result="effect1_dropShadow_433_84"/>
<feBlend mode="normal" in="SourceGraphic" in2="effect1_dropShadow_433_84" result="shape"/>
</filter>
<filter id="filter2_d_433_84" x="6.0001" y="1.00752" width="8.99239" height="8.99293" filterUnits="userSpaceOnUse" color-interpolation-filters="sRGB">
<feFlood flood-opacity="0" result="BackgroundImageFix"/>
<feColorMatrix in="SourceAlpha" type="matrix" values="0 0 0 0 0 0 0 0 0 0 0 0 0 0 0 0 0 0 127 0" result="hardAlpha"/>
<feOffset dy="1"/>
<feGaussianBlur stdDeviation="0.5"/>
<feComposite in2="hardAlpha" operator="out"/>
<feColorMatrix type="matrix" values="0 0 0 0 0 0 0 0 0 0 0 0 0 0 0 0 0 0 0.25 0"/>
<feBlend mode="normal" in2="BackgroundImageFix" result="effect1_dropShadow_433_84"/>
<feBlend mode="normal" in="SourceGraphic" in2="effect1_dropShadow_433_84" result="shape"/>
</filter>
<linearGradient id="paint0_linear_433_84" x1="8" y1="3" x2="8" y2="13" gradientUnits="userSpaceOnUse">
<stop stop-color="#0063D7"/>
<stop offset="1" stop-color="#B10055"/>
</linearGradient>
</defs>
</svg>
