<svg width="16" height="16" viewBox="0 0 16 16" fill="none" xmlns="http://www.w3.org/2000/svg">
<g clip-path="url(#clip0_441_38)">
<rect x="2.5" y="2.5" width="13" height="10" fill="black"/>
<rect x="0.5" y="3.5" width="2" height="9" fill="black"/>
<path d="M8 5H5.00094V8H8V5ZM8.99969 10V11H4.00125V10H8.99969ZM8.99969 4V9H4.00125V4H8.99969ZM13.9981 10V11H9.99938V10H13.9981ZM13.9981 8V9H9.99938V8H13.9981ZM13.9981 6V7H9.99938V6H13.9981ZM13.9981 4V5H9.99938V4H13.9981ZM2.00188 11.5V4H1.00219V11.5C1.00219 11.6354 1.05165 11.7526 1.15058 11.8516C1.24951 11.9505 1.36666 12 1.50203 12C1.63741 12 1.75456 11.9505 1.85349 11.8516C1.95241 11.7526 2.00188 11.6354 2.00188 11.5ZM14.9978 11.5V3H3.00157V11.5C3.00157 11.6719 2.97293 11.8385 2.91565 12H14.498C14.6333 12 14.7505 11.9505 14.8494 11.8516C14.9484 11.7526 14.9978 11.6354 14.9978 11.5ZM15.9975 2V11.5C15.9975 11.9167 15.8517 12.2708 15.5601 12.5625C15.2686 12.8542 14.9145 13 14.498 13H1.50203C1.0855 13 0.731441 12.8542 0.439866 12.5625C0.14829 12.2708 0.00250244 11.9167 0.00250244 11.5V3H2.00188V2H15.9975Z" fill="white"/>
</g>
<defs>
<clipPath id="clip0_441_38">
<rect width="16" height="11" fill="white" transform="translate(0 2)"/>
</clipPath>
</defs>
</svg>
