<svg width="16" height="16" viewBox="0 0 16 16" fill="none" xmlns="http://www.w3.org/2000/svg">
<g clip-path="url(#clip0_512_112)">
<path d="M11 2H4C4.47677 3.07274 4.7286 4.08332 4.82957 5C5.06744 7.15959 4.46801 8.79798 4 9.5C3.5 10.3333 2.5 12.3 2.5 13.5C2.5 14.7 3.5 15 4 15C5 15 7 14.4 7 12H9.89302C10.1973 11.0348 10.6792 10.0346 11 9.5C11.6667 8.5 12.6 5.6 11 2Z" fill="url(#paint0_linear_512_112)"/>
<path d="M4 15H11C12 15 14 14.4 14 12H9.89302H7C7 14.4 5 15 4 15Z" fill="url(#paint1_linear_512_112)"/>
<path d="M4 2C3 2 1 2.6 1 5H4.82957C4.7286 4.08332 4.47677 3.07274 4 2Z" fill="url(#paint2_linear_512_112)"/>
<path d="M4 2H11C12.6 5.6 11.6667 8.5 11 9.5C10.6792 10.0346 10.1973 11.0348 9.89302 12M4.82957 5H1C1 2.6 3 2 4 2M4 15C3.5 15 2.5 14.7 2.5 13.5C2.5 12.3 3.5 10.3333 4 9.5C4.66667 8.5 5.6 5.6 4 2M4 9.5C4.46801 8.79798 5.06744 7.15959 4.82957 5C4.7286 4.08332 4.47677 3.07274 4 2M9.89302 12H14C14 14.4 12 15 11 15H4M14 12C13.1417 12 9.84474 12 7 12C7 14.4 5 15 4 15M1 5C2.6 5 4.49624 5 4.82957 5M7 12H9.89302" stroke="#808080" stroke-opacity="0.5" stroke-width="0.5"/>
<mask id="mask0_512_112" style="mask-type:alpha" maskUnits="userSpaceOnUse" x="0" y="1" width="15" height="15">
<path d="M11 2H4C4.47677 3.07274 4.7286 4.08332 4.82957 5C5.06744 7.15959 4.46801 8.79798 4 9.5C3.5 10.3333 2.5 12.3 2.5 13.5C2.5 14.7 3.5 15 4 15C5 15 7 14.4 7 12H9.89302C10.1973 11.0348 10.6792 10.0346 11 9.5C11.6667 8.5 12.6 5.6 11 2Z" fill="url(#paint3_linear_512_112)"/>
<path d="M4 15H11C12 15 14 14.4 14 12H9.89302H7C7 14.4 5 15 4 15Z" fill="url(#paint4_linear_512_112)"/>
<path d="M4 2C3 2 1 2.6 1 5H4.82957C4.7286 4.08332 4.47677 3.07274 4 2Z" fill="url(#paint5_linear_512_112)"/>
<path d="M4 2H11C12.6 5.6 11.6667 8.5 11 9.5C10.6792 10.0346 10.1973 11.0348 9.89302 12M4.82957 5H1C1 2.6 3 2 4 2M4 15C3.5 15 2.5 14.7 2.5 13.5C2.5 12.3 3.5 10.3333 4 9.5C4.66667 8.5 5.6 5.6 4 2M4 9.5C4.46801 8.79798 5.06744 7.15959 4.82957 5C4.7286 4.08332 4.47677 3.07274 4 2M9.89302 12H14C14 14.4 12 15 11 15H4M14 12C13.1417 12 9.84474 12 7 12C7 14.4 5 15 4 15M1 5C2.6 5 4.49624 5 4.82957 5M7 12H9.89302" stroke="#808080" stroke-opacity="0.5" stroke-width="0.5"/>
</mask>
<g mask="url(#mask0_512_112)">
<g filter="url(#filter0_d_512_112)">
<path d="M14 6.5H9L14 1V6.5Z" fill="black" fill-opacity="0.01"/>
</g>
</g>
<path fill-rule="evenodd" clip-rule="evenodd" d="M9.12493 6.89979L9.5 5.5L10.866 6.86603L9.5 7.23205L9.12493 6.89979Z" fill="#FFF7DB"/>
<path d="M9.12493 6.89979L9 7.36603L9.5 7.23205L9.12493 6.89979Z" fill="black"/>
<path d="M14.134 0.866026L9.5 5.5L10.866 6.86603L15.5 2.23205L14.134 0.866026Z" fill="#FFA800"/>
</g>
<defs>
<filter id="filter0_d_512_112" x="8" y="1" width="7" height="7.5" filterUnits="userSpaceOnUse" color-interpolation-filters="sRGB">
<feFlood flood-opacity="0" result="BackgroundImageFix"/>
<feColorMatrix in="SourceAlpha" type="matrix" values="0 0 0 0 0 0 0 0 0 0 0 0 0 0 0 0 0 0 127 0" result="hardAlpha"/>
<feOffset dy="1"/>
<feGaussianBlur stdDeviation="0.5"/>
<feColorMatrix type="matrix" values="0 0 0 0 0 0 0 0 0 0 0 0 0 0 0 0 0 0 0.25 0"/>
<feBlend mode="normal" in2="BackgroundImageFix" result="effect1_dropShadow_512_112"/>
<feBlend mode="normal" in="SourceGraphic" in2="effect1_dropShadow_512_112" result="shape"/>
</filter>
<linearGradient id="paint0_linear_512_112" x1="7.5" y1="2" x2="7.5" y2="15" gradientUnits="userSpaceOnUse">
<stop stop-color="white"/>
<stop offset="1" stop-color="#999999"/>
</linearGradient>
<linearGradient id="paint1_linear_512_112" x1="7.5" y1="12" x2="7.5" y2="15" gradientUnits="userSpaceOnUse">
<stop stop-color="#747474"/>
<stop offset="1" stop-color="#323232"/>
</linearGradient>
<linearGradient id="paint2_linear_512_112" x1="7.5" y1="2" x2="7.5" y2="15" gradientUnits="userSpaceOnUse">
<stop stop-color="#525252"/>
<stop offset="0.283654" stop-color="#B1B1B1"/>
</linearGradient>
<linearGradient id="paint3_linear_512_112" x1="7.5" y1="2" x2="7.5" y2="15" gradientUnits="userSpaceOnUse">
<stop stop-color="white"/>
<stop offset="1" stop-color="#999999"/>
</linearGradient>
<linearGradient id="paint4_linear_512_112" x1="7.5" y1="12" x2="7.5" y2="15" gradientUnits="userSpaceOnUse">
<stop stop-color="#747474"/>
<stop offset="1" stop-color="#323232"/>
</linearGradient>
<linearGradient id="paint5_linear_512_112" x1="7.5" y1="2" x2="7.5" y2="15" gradientUnits="userSpaceOnUse">
<stop stop-color="#525252"/>
<stop offset="0.283654" stop-color="#B1B1B1"/>
</linearGradient>
<clipPath id="clip0_512_112">
<rect width="16" height="16" fill="white"/>
</clipPath>
</defs>
</svg>
